<mxfile host="app.diagrams.net" agent="Mozilla/5.0 (Windows NT 10.0; Win64; x64) AppleWebKit/537.36 (KHTML, like Gecko) Chrome/135.0.0.0 Safari/537.36" version="26.2.13">
  <diagram name="PÃ¡gina-1" id="Kg12HyfPGgDhLVb59r8t">
    <mxGraphModel dx="1116" dy="1657" grid="1" gridSize="10" guides="1" tooltips="1" connect="1" arrows="1" fold="1" page="1" pageScale="1" pageWidth="827" pageHeight="1169" math="0" shadow="0">
      <root>
        <mxCell id="0" />
        <mxCell id="1" parent="0" />
        <mxCell id="1T_SigNr_V3jTHDhT6Bn-1" value="" style="shape=image;verticalLabelPosition=bottom;labelBackgroundColor=default;verticalAlign=top;aspect=fixed;imageAspect=0;image=data:image/png,iVBORw0KGgoAAAANSUhEUgAAAMwAAAEXCAIAAABuzjz9AAAgAElEQVR4Ae2deXAVx5nAp1xJrfePrXJVKhsntX/Y2tqqbG2Vk92U4zImEZYBu3CismJ7iQFjzCFsULARCceaIyDLXAGZyxJIyIDRrSeBjUDigbhlkB/o5gESIOlJerrPp3eMkLTV3TPdPYeeRk/vmqee6pJm+vi65/t+7+uemZ5pbpRtTAM+1gDnY/lMPNPAKIOMQeBzDTDIfK5iVgGDjDHgcw0wyHyuYlYBg4wx4HMNMMh8rmJWAYOMMeBzDTDIfK5iVgGDjDHgcw0wyHyuYlbBpCCzWq25ubnr1q2LjY2dN29eBNtCSwPz5s2LhVt6enpDQ4PHvxYPIautrV23bt28efMOHDhQUlJiMpksDXW23mYxtNh6lcFq64Whz2qThsG+1jFC22C/MrQP9suDvb/DPqAaOu0DytBlt6kEh61bLfQ4BlVDr2NQLdh7HfY+FJz2Pir0O+2K4Bhwqgeb0yEEl8MGgtPmcg6OEewupzS47C6XAwfe5ZAGJ++iAu/kheDieUmwWltMcDt8+PCiRYuio6PLy8s9QM0TyI4dO7Zs2bKSkpL+7saOhpKmakNjZUZjZSYMWY1VWZaqbEtVjqU6x1Kda6nObao2NNUYmmryYMhvupvffPcUCObTKLSYv225923Lve9gONNy/4z1fgEMZ60PzlofnGt9UNhaW9haWwTD+da68211RhgutD280PbwYvvD4vZHxe2PLsFwuf3x5Y7HV2C42lF/taP+Wkf9tc6G650NN2Ao6Wws6Wr8HoabXZabXZZbXZZb3ZbS7qYfYDB1N5t6mm/DcKen5U5PS1lPS1lvS3mvtbzXWgFCayUMVb2tVX1t1TDU9LXV9LXX9LXfBaHD3N9xD4b7/Z33+zsf9Hc+GOisHeiqHeiqg+GhrfsRDI9tPY9tPfW2nvrBnobB3obB3kYYLIN9Fntfk72v2d7fbO9vsfe3OPqtjgGrY6AVhjaHrc1pawdhsMM52Okc7HQNdrnsXS57Nww9LkcP7+gVgrOPd/YNOfuHXP1DrgEYbEO87Qk/CIP9yZD9yZBjeMg5/MQ5/MQFAz88zA8/GRoa4s1m8+rVq+Pi4lwu14RQmxhkAwMD69atS01Nddj72h4WN1SkN1SkN1ZkMMhCG7KR4aGR4aFhwBpvNBpjYmIGBga0czYxyGJjY69cudLb/sBSldNQkcYg622dEp4MQTYy/GRkBPg0s9kcExOj3Z9NALLk5OSTJ0/2tj9oKD/ZUJ7GIJs63SUN2cjI8PDwE6PRGB0drdGZaYWstrZ22bJljsE+S1U2g2yqjclkkI2MDA8NDW3cuPEXv/jFli1bxkVNK2SxsbEmk6m17gIkjHmyEBz4D/F2u93ucNiVA38lZCMjw48ePXrjjTeeeuqpX/7yl+450wRZQ0PDokWL+rse15d9wyALyavLIX7QbrcPDAzYbDanwy67ulRCNjoKes21a9f+5Cc/4TjumWeeccOZJsiOHTuWmpra9ugygywkb2EM8YODg4OPHz+Oi4s7fPhwf38/5IzcwlCFbGRkpKCg4MUXX+Tg9txzz43FmSbI1q1bV1JS0lCRxiALPch4lw0Rtn79+tdff/3tt98+cuRIb2+vw2F/Am6YgftkqpCNjo4+fFAxa9YsBBnHcW+99ZYqZ5ogi46Orq2trS874RayA7um4eqEnfBtiZO7GbvjYyjp45MqN2Pzl0qqe3V7hjduxibGQKkxOVPkZqzgw9avX//OO+/s27cvLi7u3XffTU5O7u7uBuMzt5C1t9TSkHGcOk7qsTIeIyMj+/r6PICM47jwbYmTuOM/FmQnE34vIYzjOAbZxO/4Ex/2zjvvHD9+vLW11Ww2x8XF/fnPf05OTu7s7HQ4HE+euMbyZL3t9yMiImhLvPHGGzJ4Rke1vRIXERExNDSkEbLwrQfhY6W/L0eVf7jV+5CdfBfJXnFSfKx09a8rvOPJps5jJZvdbn/8+DHyYcePH6+pqdm4ceO+ffuqqqo+//zzefPmpaSkdHR0IH8GOQM3Y0dGhkdGhkdHR0ZHR5WQPf300wGAbHkqeXZ5c9t/E+pfWXmLenZZ+vn/kKTpq34Qnl3Snuz43ukoy2/2fqGAjHp2mb+MSFqZgZ5d7l8J41ZmHQQ74fNXhsPj5Ye6GsGzy/LdL8PjBd81ybvLyn9Qg4CPU9CY7AzqxWGZv+Tp8tklupaMi4tDPqympmbNmjWRkZFz587dv39/WVlZfHz8Bx98kJOTY7fbXU6HRshUe0xN3eWEPBnUPPrzq93nyQPy7A+pFGE3KgdylrtYmfS2AXBGQXbyHZjpN3svn2+t272ClHg3n3pAThOGsqzMvNpRL0AmFArfcHrXS3B//mkI2WnkdZcndksh++4jUg3Yg5DRhKHkVfn6e0DucNhtNtvRo0dPnDhRXV29Zs2aBQsWHD16dM+ePe+9997+/ftNJtPRo0eNRqPD4XC5nEELGTCB4MmMHyPf8dHXcBbGhZUzoH1mfJ7SfDEG7X98As7CuLhKSIr/moJsJ/IdM+K/aa2FszCuxL6KLIz+/v6vtx8Vt1/7K4z8bcJ1MAvjzo7fgsTofQSy8PVlYCJGSWfJBlQ8Jutml+UrYbCfXSqB7Nam16Dw1/YUwFkYBfv3pPT+sAVGTttvArMwqva+ArKsSNXjA3K73T44OIgJMxgMdru9qalp79698+fPP3DgQFNTE3BjAmFD6Nml++7ST55MHJPliK4rMrva0PR1JDDGKytu1ghTfXKQ91oc33w8CiRNjykVp/rkLoG2XbIdQwaPOW76ahOY7UNN9aFRW5bQnj5XyEn/C197R/RkK7PwVJ+8LyH1r+7K78qeD7KHf1YBpvpQ3WXOQihm4Xf0VB/DB7RsYf/VbdVgto+epvqgOxfV1dWxsbELFixAhDkc4I6/xWLZu3fv+++/f/DgQYvF4nA4hp+AWRjBCJklFYLF/ffu8wZhNKYG2S00GnML2Yzpv4Hm/M3ey1LI6sDAX+wi/zdhO7oxODdfPp8Mj8kwZCXlqMcM/7/Tu0HX+eru03A+GYGs8h9woDZjcyUFWdUeNET74IzO55PhMdn8+fPz8vLsdrvTMfhkyM7zdqfD3tDQkJCQsHTp0iAdk4meLHE37Ek4DnqyMbrLj46fHqu7/PgEPSYTR/3AmZ1vPfnuq1+cxJMWBch+/9fboid7dUcWmrR4Z8d7CTfImIzyZCVdQo/50qvApb385U00aZFA1qPaXYqe7LW9hWgWRtXeRQdu63BMBoZktszMTEIYL0xaHOIdToe9vr4+MzPz6tWrDoed59FdjPGvLv3UXcp6E3yfTOw9qfTpMegCU2XgL1xgUgP/y5+KY7WTreItDEoWuk+Wqbh/9tsxIWvMRz0mEBL+WbkwM5aCrPm22sD/3H7UDlL3K3qEbMg14HSA55UOhwP4MDA5lsyMHRpyOB0O9Lyc59GoP5i6S6J8eCeWvuMv4Wzx5/T0awlnYDSGpl9TkNUW5om3+D8+SV9dggpXpJHp12LvCRuybB+cfq3SXXY1fi/0mLCvFKdfSyDrkXL22p5zylsY3Mdo1K+zMRmafu1y2p1Ou+r06ydPXC74KoCbx0rK+2S+9mRsjr+eBv4TmuMPR/1B4ckYZAwy0Hv49I4/g4xBxiBjr8R5+koc6y7Ze5c+f++SQcYgY5CxN8g7dP8GOfNkzJMxT8Y8GfNkyrsayhht88nYLQx2CyNgtzC2fsRFZrOv+uj5qz7BNibbLEztB0xHZoNPRzHI2MBf2TsqYrR2l0f/wHG/2lUkfp/s/EfLwStxDDIGmQIpZYQ2yDYv5361q1D5ETwCGfUiSVSO+BE8YYosx3GL49FH8ISZsRzHLdnBPoIXDB/BC5ru8ugfuGnRJZVuIEva/aEw/TpnMTcjLhlM9TkeBSZe019aPPEnjrytxL60GBRfWgwmyBZtbnQHGfU5z2NRHJpPBt4iicqlIQMvkvwJvqpUYL3PIGOQ0Z/zPPoHblzIvn4LXA+gDU9aRC+ScFG54oskLSf+BLO8bWCQBcc3Y4PGk1WONyb7+i3ythL2ZPC9S/Bh4hNR3PS/wBeWxA8Tn3ibm/7JD+zDxEHwYeLggSyz5O+/cnN1CUb9H25rgq/EgcE+9mTm0wCyizEzZJAVr5rBIGOeTOXDxEf/KHaHHPfKRzcl98mSxPeXuI8Wi2Myoa/kOO5/9lyEL/cKfSWMKWZjMjYmo8dk7Dv+unq5l83xZ4tFBNdiEUE0JmMrkoTqiiQMMjafjM0nY/PJ2Hwy5ZNKZYy2Z5dsPhmbTwZuLSj5UYlSZmKQTfFV4tiYjI3J2JiMjcnYmEzZOSpjWHfJukvYYwb++2Rs4M8G/mzgz76Fwb6FwdYgD9o1yNnVJbu6ZFeX7OqSXV0qryWVMezqkl1dsqvLi+3U2krtjy63y7/jf62j/lonG/izgT8b+LOB/7hLEbL7ZOw+GbtPxrpL1l2y7pJ1l6y7LOttKQ+9he6HeJvqiiTDT1wwuFvonq1IcgWu4YVW7mVXl728o5dn3SXrLqd6d+lyuZrMZ5vMZ5vvnYOhsPl+YfP9oub7RS33i1oeFLU8OA+DseWBseXBBRBqL7TUXmypvWitLbbWFVvrLgnh4aXWh5dhuNL6EIS2h1fbHuFwre3xtbbH12G40VYPQnt9CQzft9d/315/s73hZocQbnU03upoLO1s/KHTgoOp02LqtNyG4U5nkxC6msu6msthqOhqqegWQmV3S2V3S1V3S1VPS3WPFYWantaanta7MJh72oTQ23YPhvu9bfd72x/g0NdRC0NdX0ddX2ddX+dDFPo7H8HwuL/rcX9XvRC66/u7G2BoHOixUKFpoKfJ1tNs62229bYIoa9lsM862Nc62N862N9GhfbB/vbB/o7BgQ77QCcItk67rctu63LYuh2D3Y7BHhycg71CsPc5Qeh3OnAYcDoHXE4bDIMuJwi808677LzLAYOT551DQnANDbmGhngYhoaGhno7HkdERJDXueGe8ma+1unXfX19d9nGNCDVQGdnpzch43m+vuwEC0wDtAZ4nmeQsV+FbzXAIPOtfukf9JTdZ5AxyHyuAQaZz1U8ZR0YPnEGGYPM5xpgkPlcxfgHPWV3GGQMMp9rQGeQZS6U3jdeuKG+LGHnNI6btuSGu/tzIE/45gRVX5K5cMwk1fwscqIa0CFkAKyJ/vgYZBPVmDfzM8hOME828R/txBAMPGQPSlO1nyToLuWeTO6lqC51Tqbg88bOs3CDBLLkObg/jk6emCq1n8VUyxlgyO5c+ip8+otL3o/UqPdxIaMz3Nj8gjhWk0AG8uAxHKRKGK4VLAnnXthZANkqWLKTQTbhYYn6zzKQkCHCnn/++ag/RkwAMuxqOA46GwogQAn2XifqyzZEC9DI8ogkQSUSTyYvrq4yjU1l2bAGAgYZJmzCkLnpLqnODqMoBxHkoUGkx2SARY5jF5te/nUFBjKaMG9DJgFI/DFRnswdZEi5G6IhoWxMJmpvsswFADIZYd6EjB5UScYTFGTyPFQSVQSM5+Quc7K69pbNdCcnAJC9HRnxvHSb2JhMbnsJJZJBfVnCzoXoJi2dB+zjgT+ACfePyXOw96IvIHRn1GBrcAAgy07dtHX9YjqczYrXqBc129MAnRAeAIgjMhGaMfOEb06QDvzFkvjyk3JvGhvJssk0EADIZC1ghyGvAQYZG2n5XAMMMp+rOOQd1bgnyCBjkPlcAwwyn6t43B96yGdgkDHIfK4BBpnPVRzyjmrcE2SQMch8rgEGmc9VPO4PPeQzMMgYZD7XAIPM5yoOeUc17gl6HzKebUwDCg14+as+CvksgmnA25+O8qdGz50v3n8sz581sro804AuPVlZefmsDae4RZefWnxxYTzjzDPT+6+UziBrbm5ZssPw1OKL/xZTePjkqZT00z9eXMw48x8vHtWkG8h6enq2HMr95w+N/7K4eNPBnOqaGhQYZx7Z3a+F9AFZctqpf11u/PHi4g++MJhu38GEeZWzuqRZ3KykOu+p3+sCvdc0/0oKdsgKCi/856fnnlp8cfbG/AuXrsrwQoeVlVUf7crlFl0+mfPdJLTndSa8LnASJxfQokEN2Vcn8rhFl/9rVUG6oUAVr+qamqz8gml/+/ZnK4qithoM3xVOQpleZ8LrAidxcgEtGtSQbTyY86/LjUt2GCorq5SQnTtf/M5Wwz8tvrDpYI7ZbD5wLD//TNEklCkwYYwVXyeR9p0gWdykKfwYSTRkKEusked5UgEHjyfRZJ0UDWrIdiUbEr859R+fFMo4u/H9zb/8I+fHi4uXfJFrun2nv7/fG9oWUBENDw/FAwiGeAAxwZyNnUQgA3lQARLH83VJSQC60N+CHbKMvILSH0yYM9PtO58n5f7L4uKZ/5dfaCy2Wq02m626unr58uVz5szZt2+f3W731GgSqoAQgAYEiyYDSdeSBB3crKQ6iVxwgGH1tKV6K6cDyKxWK+Lsrc35/x5T9B+fFKYbzjQ1NVmt1o6ODrvdPnPmzFWrVqWlpU2fPv3IkSOemkCBEo7ASGHRWpIQZLNmCaQKZUFJTvRrWF5o7wQ7ZOmGM1a4Xbx09d9iCrcfyW1sbEQxVqu1t7e3oqIiLCysqamJ5/nExMQVK1Z4ajAMjigARECvMwnIuFlyyqB0IJGT0ifWGoL/gxqy784Zo3cZbt4qtVqtZrP5/fg8s9mMCevu7uZ5PisrKywsrARu8fHxCxYsaGho8MhQCsiMsSoDKSRaS5LYXUqHcKRpmGESFaJ7QQ0Zz/PpeQWIMxlkN2+VPnr0KCcnJ0yxzZgxwyNjAaNT/RhwNpLRPT4ggzVQjySfJIlQC0XD8sZYPCJT+kePmq2DQsEOGeas6MIl5Mmqa2oOHM9/Pz6vpuZuSkrK0qVLLdRWVFQUFhbmkeIRE0Z8p4JABcUJPZxaNzdGEoEM37iITcLiKYQ9aq6OCukAMsTZB9sN78fnJX5zasmO3J1HDHfvmnme9ypkOrKazpqqD8gQZ+/H5639Mufaje+xjj2FjHY90DVNmTE4Vp0/d3QDGc/ztbW1NpuN1k5KSsrcuXOLqC05OdnT7pIWzPa9qQE9QaY877NnzyrG/WFRUVHKnCwmgBrQN2QBVByrWrsGGGTadcVyeqgBBpmHimPFtGuAQaZdVyynhxpgkHmoOFZMuwYYZNp1xXJ6qAEdQHbz5k30/Husv54+EfdQZazYRDUQ7JCpPgKX3Rvz9In4RHXF8nuogWCHTPngiHoaDnY9fiIue7SEJ0d4qEg8sWe88rJ64Yw1MksDTMrW8GaeTMgEG6+pivHOYwLpUxsybBxgNNmsiwkoEWbVajlQFa5XpRJNciRCQAm3ItEkEHJ+mqpQaZqnUXqC7Jvs03tScnAwmW5P1pMRY0us5pEytVpuvJo0yZEJGb8MnmUJzm387B5pYMxCeoJs26Hsd7fk4nDl2nWvQkZ+6YIdhPkZchcHTCRuVBnacigLRBjgIGwIaRkf0DLyspRYOA1SIgCUkAkh5VHNKL/4E6KagDyekB3H09WNScokEvQEmWw0hg6vXr2am5vrgQZoO9H74gRD0UTSqa/QMKpJxNAgD7IbiSMvwMnqgi2X5qPGZHRmOhMdTzNXlxQrfmhBmkXhycgbBiCjbzHTE2TvbgHfIsCh0HjRYrF4/Eoc0C3ZKC3TxkTwYnu5SRL7IJAFD5DAASZS+CFI60XJtFxqX16ckIJbBISCA6r9Qj0gmsRKDoBcql1UjWJZ7/7XE2RXrl0vNF7EwXzvXnNzs8evxEnsRBtKmgDUja3gJgllkr+aBM0pRUApg6qArgzRQ34HaA8xC4SQjbAkumEhjSQoICNJ5PS8ixaRpifIlN1lV1eXx6/EyYyNQYK8Sd0PTpOVkSABedLwApxShlvIpC0RDacmRARMLCHhSnKAzweJkx2KdXjvvw4gk819xdNga2trJ/NKnMxORNNkT1QztpCbJOwPgFzKTYgyQFFoflm9MJ2WS+1Tu6IY4b+aEPnlAG41KCM5kMmVHcqq8sJhsEOmOvcV3fG/ceOG6vMAjQ8AJHYCeiZoSDmRZBw7iZiKCFN7AU4iTrAgKSv1anQvDt2mOKxXEyItCnKQM5K6Z7o6iTf2AlBqIoIdMrU2kzjl8wDtDwCgFci4RuxkBOF0qrYkieVQcdUX4ECSTCL2gqByiRx0iFuJy6kJEQuj3LFGifOCYkEKEKFShYrvJWqe7N7UhWyymmPlNWuAQaZZVSyjpxrQPWSyywL2SpynJPiwnL4hU70sYK/E+ZAXj0TrGzKPTpkV8rcGGGT+1vgUrI9BNgWN7u9T9jJk1gdFLDAN0BpwuVxehmzcJTZZhqmmAe8vqjrVNMjOd1wNMMjY8tA+1wCDzOcqHveHHvIZGGQMMp9rgEHmcxWHvKMa9wQZZAwyn2uAQeZzFY/7Qw/5DDqDLHMhx3Ev7CxQIcNN0thWTNg5jQvfnDB2BpWKlJkzF3pBiFJsyMToETKOW7hBboCCJeFg0qc6f5LMyXO4aUtulCF6GGSafkUSBQqqm0DBwEP2oDRV+zkAn7FwTjg3J1N6qjc2v8BNeyGcQSZVi3bF+jRngCG7c+mr8OkvLnk/UuNJwo5pg6KP2xDNvbAzeYkMMtiBounuApRUDHKHgifD8bKuE7ArbrIkXIRbuEHSXSbPEUtw0ckT+Llr1IAeswUSMkTY888/H/XHCI26E8wp6fJO1KND0GOS7hJAIPaq0M+JXaSkLICM40QaAB9SCcRlbojmyMALCMd9LqRKQJBuQ8GSnQwy6FkDBhkmzBPIyoDJRT8BQAH7UgNLu1To6tDlghIykcX6MmqIRktDfRCACXpERRLxZCBJ3pVr/P2EcLbAQEYT5hFkJ4BzQnBgu9K2p/oseeelgIzqBynIMFJ4lIPlK5IIZBBTjvJ5IYyO9lMLAGQywjyDrB44M9C1EQNjCMpgBzqWR/EtZGgQBhwt6YUxplN1JwCQvR0Z8bx0m/CYDFoL4rUEoQZ+VTRk9L7MtBohU0rABeVJlP+j6iK+lorU/usPpZwBgCw7ddPW9YvpcDYrXqNOid8SqCKjewlkZcDDkbF5WcLOhdTAnzg5GR+SQ6kE+SgQC0dXoEKfmzxHHCnCBpDR3pS+zAwAZBp5Us0mgQwOgLBRZZChUbx8QAacCiAJbIAACVWKQwiKKIJURAuBwy/SKuDkxA1ffjJPxvNs+vWUdjOqP2bvRurMk3n35Jk0/2iAQcbcmM81wCDzuYr94y2CuRYGGYPM5xpgkPlcxcHsY/zTNgYZg8znGmCQ+VzF/vEWwVwLg4xB5nMNMMh8ruJg9jH+aZv3IXM5B1lgGqA14H3I/P3lK1afHjTg5WeXejhl1kZ/a0B/kH1fcnPrssxN87OKL1z2t7ZYfR5pQE+QVVZU7tmQsfLl3H1b0g9tz1j1O8OOT9Nv3Sr16MRZIf9pQB+QNTQ0Ju4CeO1ak1584XIN3C5fupqwOT3mpVNfbkpDi3n5T22spoloINgh6+npOXE4Z9XvcrcsTj9zuhDhRf81FhXHrwT8HUnIam1t1X7u9OpJZBlb7eXlOWULFpFkSUV4dSSSPtE9UBG1NNdEiwcgf7BDZiwqjnnp1LrILFXCEG1F5y589l5GzEunzpwu1K5CyRpY4GCSa1ipQgaBoMAyJomrN2tvqP5zBjtkZ04XHt6buW9L+sqXc7d8kJGVdqqysgp7MkPWt/ErAV57P0tL3J3hOWTSpfo8MqsaZGpxHgnXdyEdQJa8P8tqtVZUVBxOyPo0wrAhKuP44ZyTqYZN88DY/9D2jB9+MFmt1uT9wNtpt4bEk0kXHRUWBBTn68tcHPROQhqVRAOFssQa3bJLdaPY1yEhRtAhcopVgIUW0xWB00WVoQZhQWrCtevGyzl1A5kVbnV1dSdTDH/7Y07s67mpX+XcvWtG8ZOETAocRIOsSQkSMUzQeBJTiknE9nQBRICYhxiPrpGUFIARs9OZyOK7VHaBMLE9dUlJRlAFXU6Sm9Tv1z2dQYaQSks1pKUaMF5oxxNPJvoqiiLFkqO00ZQWI/YU0sA/Aii0JYySrKMLYkQyBCoQWLLSRDphTLIkqnThVETOmML9ChZd2dSGjBgamFNwILRlidlgopskZPtZCsKwskFZET+0TxDHKQAQ0Y+BkqRCghOVhyTjalAZqWixWiqTX3cZZIK6iemUlsNpbpJQT6cYR0mM6UaOohVChMiW+F+6frSyPRIwJZUH8IBBpjAvRgGbBVvYTRLuxYDhaWeEpVD2V8pRtEIshuo2xpLulSpM7Yr51bp7khaYPR1Alrg7o76+nh6BKcdkFotlUrcwgLUIGlJOJO5i7CRicCKsLmkW6ZGRrxOOpXLqkmLR/TMiBONQlzQL+EciR5IHyMFp9MCfcI6FY5H+3gl2yO7eNe/bkr73s/ScjNO1tbXKgX99ff1pQ0ECzFNeVq5df9A8ZOxCjAhF0KnakpS252KNtBiKYlAFRFGsX6xCIkQ4F5hRzCDtLuVNxWSpChfk+f9fsEPG87zNZrt08crBL9J3r01PSzWUlZUjT1ZTU5Oddmr32vT929KNRcXd3d3+Vx+rUYsGdAAZPo1bt0pTDmTtWgMcW8ImwFziPzKvX73hcDhwHrYThBrQE2RIfXfvmtO+NnyTYphQ5xiEqp86TdIfZFPHNiFzpgyykDFl8J4Igyx4bRMyLWOQhYwpg/dEGGTBa5uQaRmDLGRMGbwnoifI7t27t39reumtH4JXnaxlahrQDWTJX2Z98rtTq17KWznt9P6t6QMDA2qnw+KCUQM6gOxS8ZV1kdmrXspL2JReXl6RuCtjVXjemtdzv80/G4waZW1SaCCoIWtpadm9NuMvLxs2zc8yFl3E74/cuF6y7SMQ//mKjLq6h4qT0hQBnl1Tj501ldGQCU8LEjNVCuMAAAhPSURBVGb2iI/AqckSGqSoZ1F7fK6eM7higxqy/dvAu7vxKzMwXvTOvi0gdfun6Z5p1E+QYY5BfXiWhGdNZpBFRHimOTeljiRkbZoPPNaG/80+e6YIE3bp4pW/fwDehFv3Vm7i7gw3Etwk+Rsyaiq1m1a5TWKQ+QCy1IPZ+TlnjEXFG6IAajtWp18qvrJnfdqql/L+9npudtqp/JwzqQez3RpmzMSxIKOnYkk8D52A/RMUD0ShDc4gw6WkVdAdKShGy8NFUHPHSALRYk6UBbaDVO+L/n9MBWpPCOruEkGGJiqeTDF8EpEb89KpT3536tDOjMbGRqvV6nXIoL0wQeBINCpPTTCVwCPJBMvjInQ+el8crqlXBGWoJhHIQB5UDYkD2KJX4rSb3z85dQOZ1WqtrKz6+5L070tu4qnY+TlnTKbb1dXVy5cvnzNnzr59++x2u0bFyawOStEGQ1JUMoEE4pQURUiS/L0hzJ7bihQCqW5WSAP/sM8CB5hIjafu72x6gsxsNu9ak242kxd6r1+9YbfbZ86cuWrVqrS0tOnTpx85ckSjClX4UUZJTQ7SxU1ARlFEDhkBAGQdqxThWyGQJKE9+Vt3EDksWePJ+zdbsEOWcTwP+y0lZBaLpaKiIiwsrKmpief5xMTEFStWaFSg0pqUzxBlEMhAduwyCEkKKSSJfmsSypMKI/SBRJymEEiS4J7y6wVQNmweaaDY/uD4H9SQXbl8bffa9CMJWWVl5VarlYbMbDZfvXLd4XBkZWWFhYWVwC0+Pn7BggUNDQ1adKu0JmVOUQBGRpobRyuKYFiABGkhKq8kF6wLS3SThAUAuVTnKzYWFJWiK6YE+H9QQ8bzfGNj47GknN1r0zOO59023d61Jr2ysiov+7s96zMqKipycnLCFNuMGTO0KFVGACoiNR+VhbY9iMZGBgnSA3wkhUySESYRTqiKEJrqSaQRRJgxFnMlkaJFBf7KE+yQIT3cvn3n0M6M3WvT0Vsk+7el37hewvN8SkrK0qVLLdRWVFQUFhamRXsQFXGERVFDx2P7Se44SO9ToK4OCZqVVIddkngJSaqgpclStSURyHDx2CQAubARNLUowH959AEZz/MOh6Po3IWDX6R/d+qczWZDGpoMZP7T8ZSvSTeQqVqKQaaqlmCL1D1kc+fOLaK25ORkjd1lsFkihNujb8jOnj2rGPeHRUVFhbDB9Hhq+oZMjxqfgm1mkE1Bo/v7lBlk/tb4FKyPQTYFje7vU2aQ+VvjU7A+/UHGVonTHaZ6goytEqc7vFCD9QEZWyVOp3jpAzLfrRKHnzELT5dlz6i9aVXJg22ZYPp5PDVjTZZL+6G7urRL8W7OYPdkPlslDk6WocDy5fpt7gwvmZ8DDiY5lcJdXd5FR7u0YIfMV6vE+dUW7iqTQCadgabdilROd3VR2fy6qwPIfLNKnNS4Up2DNGUnCswnbsQFIqMK67qRj/FLMgqGx2JpZyVtBz0bDbSJrpMuNXaSUBc8IVQathXXHYgp2rqBDM309+IqccgCMssJAzWRIanFhAUdpNOq5WLgMSkP31FDecSp0cDepFoaMnpfHDKKoqRzaSEzqkmkyaQeEgew9f9rczqDDKGmXJHEg6UIaUdBbA7sgY2HDE0Ssb+jHA4EiJSgUnBu5I9IHtrmkB3R7dHw4Qn9RAxmUCIApuMksZikWeCAVE8E+mtvakOGtAzdgmAFtE+sDvawfehEET2pwYmxaQNK84gckMpxBbS7UorCYtwkIeFB9tocgwza2o39BFogYCINlL/CJWE+pflBtDSP9FBWgmSVJdBi3CRB4cH22hyDDEEk2o0YWYBL+Cem49zqnky9uCxWcigVTAEoyQWrxWi7ScICgFyxjdSpgKLiT4WK9u2uDiDzySpxE12/jbYrsB82IJ0ATAUTRTMKo2xZHsmhBDKQgiXTfafsgsRNEhFOhAX6tblgh8xnq8RBGPDYS/Kbh9YRk0ReUD8EYyWvxBGjYm9AiUZyZXkkh1RmyfgPSaNTcUvcJqkID/hrc8EOGVslDrOr3x0dQIaVy1aJw6rQ146eIEOaZavE6Yswnuf1B5nuVMwazCBjDPhcAwwyn6uYVeA1yCIjI3t6ephCmQaUGvAaZIsWLXr40MN1G5TNYjEhowGbzTZz5kzxtqPwf1SxcYoYlYjY2FiTyRQyqmEn4i0NWCyW2bNneweyY8eOpaameqtlTE7IaKCgoODFF1/0DmQ1NTUrV64MGdWwE/GWBrZt2/azn/3MO5CNjo5GR0ebzWZvNY7JCQENtLa2vvHGG0899ZTXICstLV27dm0IqIadgrc0sGfPnueee05GGMepjPJVolRG/jBq586dBQUF3moik6NrDZhMJuXNCwSckp8JQOZyuVavXl1RUaFr7bDGT14DFovlzTff/NGPfqR0Y88999ykIBsdHbVarTExMUajcfINZRJ0qoGKioo333zz6aefVhKm2leOjo5OwJMhQl0uV1xc3Nq1a9ntWZ1S4nGzW1tbt2/f/tprr6n6MI7jnn32WaUb8wQyJKW0tHTRokWrV6/OysoymUytra0eN50VDGYNdHd3m0ym/Pz8jRs3zp49++c//7mqAxtrNIZombAno1EtLy8/dOhQRETE7NmzI9gWihqYNWtWRETEr3/965/+9Kdu8Bqro/QCZBg499Wz1JDXACZBdWdSnoyW+Oyzz4a8KtkJKjXw9NNP0xio7nsNMiT9mWeeUbaDxYSkBrTghajwMmQ0yDPYFooaoE2scd+HkGlsAcsW8hpgkIW8iQN/ggyywNsg5FvAIAt5Ewf+BBlkgbdByLeAQRbyJg78Cf4/p6cobx6RSi8AAAAASUVORK5CYII=;" vertex="1" parent="1">
          <mxGeometry x="40" y="210" width="204" height="279" as="geometry" />
        </mxCell>
        <mxCell id="1T_SigNr_V3jTHDhT6Bn-2" value="" style="shape=image;verticalLabelPosition=bottom;labelBackgroundColor=default;verticalAlign=top;aspect=fixed;imageAspect=0;image=data:image/png,iVBORw0KGgoAAAANSUhEUgAAAMwAAAD4CAIAAAAvq54eAAAc9UlEQVR4Ae2de2wU17nAR1H/iPpXq6hS1X+aoKhCqtSkjegfgQpkyQJFrRUKVVsnaQkEk9yS3ItdxUTyTRscdJNGATmgG4iBgIGU8ErpLWmSDcSQsjGJi3nYMXj9Wq+9a3vX+96Zfdjeq3Nmzpkzj7XXZsaes/uNPslnznPmOz9/58yZ880KeThAAzZrQLC5fqgeNJAHyAAC2zUAkNmuYmgAIAMGbNcAQGa7iqEBgAwYsF0DAJntKoYGADJgwHYNAGS2qxgaAMiAAds1AJDZrmJo4K4gCwQCp0+frq+vr62tra6uroCjtDRQXV1di4/33nvP6/XO+79lnpB5PJ76+vrq6uo9e/a43e729naftzcZHSHiT0aNEkhGscQCSa2kYqMFZCwVN8p4Kq4XMR4UE6YSEhNGmRCTJiIlw2YSkVKmEpVSZiJGJTEmS1qMMRJPiwaREmlzSaYlRTJSEkk6mUmnCoiYSWslI2YyEpVsRtJKOpthJJvOKpLJZjUSCPjb8bF///4NGzbU1NRcv359HqjNB7LDhw9v3rzZ7XbHw0NBr3u488zQzb8O3TyB5f2hW+/7bp303Trl6zzl6zzt6zw93HlmuOvMcNdZLB8Mf/3ByNd/Q9J9ThZ/99/9t//uv/1/WP7hv/OPwJ3zWD4M9HwY6PnnaM9Ho56PRj0fY/lktPeTsV4Xlk/H+j4d67sw3ndxvP/ieP9nWFrHB1qDA5ewXA4OXg4Ofh4c/Dzk/VfIewWLOzTknhj6AkvbhK9twnd1wnc17PsyPPwVlvbwSHtk5N9YrkX81yL+joi/I+q/Hg1cjwZuIBm9ieVWdPRWbKwTS1dsrCs23hUb/xpJsDsevI3lTjx0Jx7qiYd6EiFPYsKTmOjF0pcM92MZSEYGkpHBZGQwFfGmot5UdAiLLxXzibFhMTYixkfEuF+M+6V4QEoEpMQoljEpOZZOjiNJBdOpUDoVyqQmMuJERgxjiWSkSFaKKpKOZdOxXDqey8RzmQSWZC6bnMymsIiTOXEyJ03l0lOT6anJDJbs1FR2ajKXy2W7u7u3bdvW2NiYyWTmhNrcIEskEvX19YcOHZLE2FjfRe+N97w33hu68VeArLQhm57KTU/lphBrWZfLtXXr1kQiUTxnc4Ostrb20qVL0fEe361T3hvHAbLoaFlYMhmy6anJ6Wlk07q7u7du3Vq8PZsDZM3NzceOHYuO93ivH/NePw6Qlc9wyUI2PT01NTXpcrlqamqKNGbFQubxeDZv3iylYr5bJwGycpuT6SCbnp7K5XINDQ3f+973/vSnP82KWrGQ1dbWtre3j/Z+igkDS1aCE/9cVhRFUZJE48TfCNn09FR/f/+aNWvuueeepUuXzsxZUZB5vd4NGzbEJwYGO44CZCX5dJnLpkRRTCQSyWQyLYm6p0sjZPk8GjVffPHF++67TxCEb33rWzNwVhRkhw8fPnTo0Fh/K0BWkksYuWwqlUoNDAw0Njbu378/Ho9jztQlDFPIpqenz58/v2zZMgEf999/fyHOioKsvr7e7XZ7bxwHyEoPsmwmKRO2ffv21atXr1u37p133olGo5IkTqIFM7ROZgpZPp/v67lRWVkpQyYIwuOPP27KWVGQ1dTUeDyewY6WGSHb85dHaXNKYOWOt+9uMfa153BNzx2DxVibFmMVG7Z9+/b169c3NTU1Njb+6le/am5uDofDaH42I2Tjfg8LmSCY42Qeq+OxqqoqFovNAzJBEFbuePsuVvwBMltX/FUbtn79+iNHjoyOjnZ3dzc2Nv7mN79pbm4OhUKSJE1OZgpZsuj4nYqKCta0rFmzRgdPPl+cS1xFRUUulysSspWv7MWvlf68RW786VcAMke+VkqKojgwMCDbsCNHjnR1dTU0NDQ1Nd26devVV1+trq4+cOBAMBiU7RnmDC3GTk9PTU9P5fPT+XzeCNm99967CJBtOaS+u2zb8WOV+uV/uMq8u/zy1Z+oSSte+Ep5d8lasiO7VshZHtl1Cd5d3u27S/lZsrGxUbZhXV1ddXV1VVVVv/71r996662Ojo6dO3f+/ve/P3XqlCiKmbRUJGSmI2ZRw+WcLJnKivDQG5+oL8hPPs2kKMG1pzBnpzcak9adQZwxkB1bjzM9sqsVXpBb8IJcksRkMnnw4MGWlpbOzs66uronn3zy4MGDb7755m9/+9u33nqrvb394MGDLpdLkqRMJu1YyBAViiVzPbcSM/Lsu3gXxqd/WIVPV716YOTCVjn8XAvehXHhBSVp57sMZK/LTwCrdh4d9QBkFkCWyyREUUylUpSwM2fOiKI4PDy8a9euJ554Ys+ePcPDw8iMKYTl5HeXMw+XC2TJyJzsFDFdVSc7zwy/W4WgWv4fbV3KVp9TsvXauHPkyFqUtGLrl2Srz+lNGMBN/0Mhw+eCsGJbO9rtA5BZAJm8ctHZ2VlbW/vkk0/KhEkSWvH3+Xy7du166qmn9u7d6/P5JEmamkS7MJwIme8QBkv48RufnFFmY2aQXZVnYzNCtmrFI5izR3a1AmTW7Cejc7Innnji7NmzoiimpdRkTsxmxbQker3e3bt3P/PMMw6dkxFL9vYby2UDhC1ZgeHy2SPnCg2Xz7WwczIy60fGDCyZBZYMT8mSJ06cUAnLKpsWc1kpLYmDg4MnTpy4fPmyJInZrLyKMfvT5QINl8rQRv7QdTIyepIEPETKD5gmE3/lAZOZ+Lf+F5mrHYOdsZbsjE1L6H2lJEnIhqHNserO2FxOSkuS/L48m5Vn/U4aLhmI0Eosu+Kv4Wzjq+z2aw1naDYmb79mIPN8dPYZpe7njsESxt0uYcjbrzNpMZ0WTbdfT05mMtgVYIbXSsZ1MrstGezxL9k9/njW7whLBpABZGiosXXFHyADyAAycImbr0scDJfgd2m73yVABpABZOBBHuTegxwsGVgysGRgycCSGVc1jDHF7SeDJQxYwli0JYxXnhWqTsJXfXj+qo/T5mQvK1v7EdNVJ9GnowAymPgbR0dDTLHD5cGfC8JDf/mYfJ/sk2e3oBfkABlAZkDKGFEcZC9vER76y0fGj+CpkDGOJGtPkY/gKVtkBUHYuFP+CJ6yM1YQhE2vwUfwnPARPMcMlwd/Ljxa4745A2T73nha2X59aqOwqrEZbfU5shZtvGa/tNjyS0H1VoIvLdrqd5nIZYr60qKTINvw8tBMkDGf8zy8VpD3kyEvkrWnWciQI8kvsavS+cAdgAwgYz/nefDnwqyQvfs4eh6QD7ppUXYkEdaeJo4k/pZf4izrzgBkzvhmrGMs2c3Z5mTvPq56K1FLhv0u0YeJW9YKK57HDkvkw8Qt64QV//kVfJjYAR8mdg5kJ9x/fmiGp0s06396xzB2iUOTfWrJus8hyC5sXaWD7OILqwAysGQmHyY++AsyHArC8mfbNOtk+4j/kvDsRjInU8ZKQRB+8uYF7NyrjJU45iLMyWBOxs7J4Dv+Y/BaCVkY4xKYSZQxU3HrZPDuEiADyGD7NWy/hp+9cezP3jjo6RJ+W6lUf1sJIIOdsbAzFnbGws5Y47OkMQaeLsv8pwhhuIThEoZLGC5huDQOjsYYGC5huMQj5uJ/BA9W/GHFH1b8YcUfVvxhxR9W/Gf92RsYLmG4hOEShksYLmG4hOEShsuOqP966f2oai6bNP369dTkLL/ca/orcbBp8V8h7xUs7tCQe2LoCyxtE762Cd/VCd/VsO/L8PBXWNrDI+2RkX9juRbxX4N1MlgnuzDed3G8/+J4/2dYWscHWoMDl7BcDg5eDg5+Hhz8PARzMpiTwZwM5mQwJ4M5GbxWguEyFUqnQpnUREacyIhhLJGMFMlKUUVguIThstyHy0wmM9z94XD3hyO3/4nlo5E7H43c+Xjkzsf+Ox/7ez7293yCxeXvcfl7PkXi+dTvueD3XAh4LgZ6LwZ6P1Ok77PRvlYsl0b7kIz1XR7rp/L52MDnYwP/wnJlbBDJ+KAbyxfjg1+MD7aNe9uCilwNDl0NDn0ZGvoq5KPSHvK1h3z/xnItNKzIxEjHxMh1LDcm/DfCitwM+2+G/bfC/lsRf2ckIEtXZLQrMvo1lu7ImCLRsdtY7kTH7kTHe6jEgh4svbFgbyzUGwv1yRIP9WMZiE8MxCcGFQkPxsNeLEOJiI+R4URkOBkZSUZHklG/IjF/KhZIxUZT8dFUfIyR8VR8PBUPphJBMRFCkgyJyQkxOSElw1IqLKUiVNKpqCJiLI0knpaoJNLpRCadxJLKpJFk02I2I2YzEpZ0NpvOKZLJ5TK5XBZLLpfLRYMDFRUVaJmfOYy7eIr1u4zFYl/DARrQaiAUClkJWTabHexoAQENsBrIZrMAGfxX2KsBgMxe/bL/0GUbBsgAMts1AJDZruKyNWD0xgEygMx2DQBktquY/kOXbQAgA8hs1wBnkJ34HbNmLAg1zbYraDbzs/v1RwXh0U1XYHWwsAY4hOx3Lykdf37TykXhrPkxoGq2/z3NPz/PkHW0XHn5R4vQ3wBZYaNlCt/iQ9bz5SHTKzONRMMltWQqZGjMWvnyS2jkEn70+nn0b4T4I8fKl3eT2uScu9VhVzvSqfHCYycUVWoqX4maIAe6EqVCUn+LWQ0tg82PkTJOGOI1ZoZeuX2BRYbs2mf/u3LFsk1PVRV5hzrIyCnqaYrXYIfc05SSl2oEgXAm56Q9jU8JtaQ2wqjCn75yRIyKJkolleN2SW2qlUXDuoL+4PlNry/+PLKcIJMJe+CBB9b+omI+kCHzIHeehpVBtlNla4Ryysxpc3bINgYnoVKUy5bBjpdqTCuXi5hCVqgGffxC93GRurUv26JZMkrYnCGjAw81D7oxS0WKdKeKncbwILXSJGZEoy3gp1dDkUKWbMYaBNWakqua48zGPgjsrnlxIGMJmzNkZDxiVKPlYM6QYQNmLKWZk9FZHTZ+ppasYA0yVWjUFhblcXixaV4EyHSEWQ8ZNU5Uuart0eLIjn3GUnOFrGANqulCEzWTfxI1A/OfUzqRiwDZuqqKB7THPOdklCHdcClP/FVjg0wIWbZFkJGZnDzx0k7b1VK7X/+dvMRqxqU6e9OkokcHYw3Nj5HWNU8GJcmT6U0tAmQnD/33K9s3svLh+ztNL84YyT4AMqmanpbjUU5y0D4mKw7yYgdKpg+GuJSMoFKMlDJWTrIhm6RLJUm4DqUGZOHIoSJYOoaK6Qjzm1oEyGa9Jjsz6JgwV4qdF1COLQJk5djrC/xfBJABZLZroNwgs12hC2wkuGgOIAPsbNcAQGa7irkwNrZeJEAGkNmuAYDMdhXbaiS4qBwgA8hs1wBAZruKuTA2tl4kQAaQ2a4B6yHLwgEaMGjA4q/6GOqHCNCA1Z+OWkiN9vf3Hz9+/LXXXmtqaurs7FzIpqGtOWmAV0t29uzZhx9+eAk+GhoaRFGc021D5oXUAJeQtba2yngtWbLkhRdeAMIWkph5tMUlZFVVVTJkW7ZsCYfD7G3fvn2bPYWwEzTAH2SBQICasdbWVlaJTU1NO3bsYGOKCLtqBUGodRWR0zRL775KoXJfr2kaRMoa4A+ya9euUch++MMfXrlyRb6TpqamJUuW/PGPf5xb17pqhcrKyjlRhopQrACy2fXNH2TxePwHP/gBy1lbW5tM2JIlS955553Zb5rJ4aoVal0IlDnYMoCMUWAxQf4g6+zsXLVqFYVsyZIlDz74oHz64IMPXrt2rZjbJnkwY9mswRyhMZTBTqUQD67EMQTlUIrSeNXG4TZQMjmYJLmUCycy0eSySuwvZ5B1dnbW1dXt3bv3Zz/7GcuZHN67d++cukdlR0GFli4IGcphsGTqpA6VU6HB5FFW2TSZPTUnbbgkAzxBJhN29OjRQCBw/PjxFStWUM5++tOfvv/++3PsIZUxapBIDXOEjIJEDBuqRw8uplOxjxgytRRptkT/cgMZS9i5c+eef/55t9sdDAbb2trmudzPMqZHYm6QMRaJIUtXhwY7JluJgsXeFh+QsYR98MEHMmHsbcwjjI0JmS4pfyktOkC0PBqGS1pMw6quDoCMUfb8f8BrHj1dTBGWsKNHj9bV1bnd7mIKzphHyw3OylChS2VSzOZk5pChOpgUTUFj2owXy3mi0y2ZkbB5Do66ftJioyQykShICEFh9mGTyaYxXagWDT1sJeyMTJdNd2mld+poyDweT11dnTzTl22YNYRpO5zpVBYfGS0ZL51hQ6eEOw1VRnrUWlhMtSwyF1CaQUdDdvTo0f379wcCAWsJK82edPBdORqyc+fONTQ0vP3223V1dVbZMAf3RclemqMhi8Vi586dO3DgAOyt4BpAR0PGtWbh4qkGADKqCgjYpQGAzC7NQr1UAwAZVQUE7NIAQGaXZqFeqgGOIQOXONqLDg/wChm4xDkcLPbyuIQMXOLYLnR+mEvIwCXO+WCxV8gfZFa5xLGvrvHrbrLpglWPZWH8Tn3OLcyvlGUXbVVF/EFmlUscu+MCaVOGbtG3RGt2RFrVy4tcD3+QWeUSp4dM2QzGOiktRt8AZMZdszSmoqJiYfrEKpc4E8gM+8xk60b3jik3aBZLtpiRbWbKjjHq9MZuO1PCajVkGFVjlE2SbCnUONsKKaTulKTFmaSF6ZNZWuHMkskbZS1xiUNdYhgc2V5lM6jxagj1+T78eQPc96QuJRLH0c21ml2KchJtXFPa6G9HicEMkVbw6E6StBWifCRllt5foGSeIGO3Yt+9SxzLEFU26i65g1CI9iizP18fzyTRWlAAd7xagVqxIUlrPzXDJVOKCSrtqDdg0pbasuaqFueEG8hYwixxiVP7iNG82pUoWX/gnsM9ytoK04o0pksd0XBTaiNKy2xEIciMrail1JB5/cwNLkqQD8hYwqxyiTP2mmxjlJHGLJnpIZSsTJzMc87Q8bokuVliegAyOs03Buyb+LOEWecShyc1pGcVelhcDCQwhClBlKXWpbdZTCIzM2KrY8M4NwsWG2arNhRiZm+6NN2p8cIXOsbplsxImFWb/VmiyByKoUKeKakRvftq8eeiXLWUTFoDCtAJHDPxV0uzuOAwM96i0mpOWikiQYNL4XyabLpSCw2UWXuOhsw+lzi6+KpOu9R+pnpCnUcPhS02jimCOZPzyrEzdLycJK9uoCJMNYT2AksYTCsUaj2LABntv6ICJeoSp+OvKFVwncnRlqxEXeIAMsE4pzeJMmayY+Jfoi5xAJkJUSZRCwMZ12MEXDzVgKOHS3qVEOBaAwAZ193Hx8UDZHz0E9dXCZBx3X18XDzHkIFLHB+IZbn9KUJwieOFMF5/uRdc4jgijFfIwCUOILNXA1a6xNENFfZesknt7KtuZguHSU6zKM7eGfA38bfLJc6sM+2LQ5BRxBEz6pl5o4X2mZnndlYsf5DZ6BK3gF2jgayY3TkAWT6ft+MFuWmn2+ASJ48+dIMX3t+FrQveIEYNjswC2WDGRGt2p9W6NDwQr2FdVQUhU9tVjZtmbEXtyhfcS+O1O9JM1baYkZxZMnmjrNUucXLHKj2FO7Cykj0jv6BKdscqUFHMUGfTfsY9rzkj+RQ0cHejXCSera5QE8xma3Vjo1KBpvnFhKlQ2zxBxm7FttQlju19xVxRALRpqhpVc2XIoU2iNcksKfhpICtAiVqPpiiBTK3YcAXqZToixA1kLGFWu8TpOknTuVoTgt1PyIBpxgvqVLU8okd/yGxoU6jhU4rTMmqCWikH+611aPMBGUuYDS5xRUKGwSD2Q+10FE1isXZnSKLaNxSSUwo0oSEXIKNatC7AEmaPS1xxkGm5UEnSlSazcqQAfZKqFG1lJF4bqzYBkMm7ZG16ujQSZoNLnI4FTeeqgx+bC1scMpahBDrxxyf0DA+vJB+CTvar036ZgCCmhVLThK4AeykzsqxWvZghRw+XtrvEKaOcrs8KQKY8EuD5kn6dQkYLJVXuQysLKlfYmtE5Fh1WtTZLJUCtqFATqArdBetO1docEnI0ZHy6xKEupzA5pJsX9zIcDRmPLnHYFAFjGqodDRknLnGYKzoiMiOlRtNlfOJoyMq4X0rq1gGykupOZ94MQObMfimpqwLISqo7nXkzAJkz+6WkropjyMAljhcSeYUMXOJ4IYxXbyVwieOIMF4hA5c4gMxeDVjlEidvn6EL9fC60b5u429OZpFLnP4do2sf2cmv3URRUPVFZitYvowS+IPMGpc4xFiBt4xF0lNktjJiqeCt8geZRS5x5hu68E5BMoTKeynY199kd4Uhm642VIbkLeATV7BHSjCBM8jkjbKWuMTJ8JhYM62JUjez4l2uGnTUwoUhY00m+VW5EuRoxlviCTJ2K/bdu8QhtRArpdKi302vUZ4GP/0JY7pwvQqOWqOmqa5sTriBjCXMEpc4tYvlwY/aKA09KBc7OKo4arIVtmQEZLWg2nC5hPiAjCXMKpc4TQ+zg5qBHmqj9CkqODNAJrejgEpJ1rRe6iccQMYSZqFLnLZnGUpYlJho/UDKZmPHR1SvthhpqWxHTqdDZiTMGpe43n2VjFXBczNyzhKis3Cq55seJFSIGDYUpv6+Zr8qR6grl7+OhsxOlziZBLJaQfjA3Y6RI5iQE0SNxniRyRYZTNUKa12okMKsWl6lsFzgIvfpaMj4dIkjqoW/RAOOhoxHlziiWPirasDRkHHiEqdqE0KmGnA0ZKZXDJHcaQAg467L+LtggIy/PuPuigEy7rqMvwsGyPjrM+6umGPIwCWOF9p4hQxc4nghjFdvJXCJ44gwXiEDlziAzF4NWOISp77NJq/I5c+9KptlNe/L6e2gd93mKTQLBMw0wN+czCKXOEUZ2o0VBg1pkgEyg36Ki+APMmtc4oh2NBSRSPWvJhkgUxUzpxB/kFnkEqdoSUMRilNJ0gypaHeYmiQXZjKQDY9z0n3ZZOYMMnmjrCUucRQU7TRLS5KGQU0SIoygpUkoG3SKv1GeIGO3YlvjEoc3Uc8HMoQVQQwpWwNj8dovk5zcQMYSZqFLnIEOrVXSJDNJzEhJH09Z6MqEniJvkw/IWMKsdYnTUIR0xpCkt1BMEjtYFqnpMs7GAWQsYZa7xM0TMoa3Moan2Ft3OmRGwqxxiSP6mR0yde6lIQvZMnU2x3wxg9QMf6kGHA2ZnS5xigZmgUzj96aBTHk3QGZkMCGjSBkDjoYMXOKMHcZjjKMhA5c4HpEyXrOjIQOXOGOH8RjjaMh4VChcs1EDAJlRJxBjsQYAMosVCtUZNWAZZFVVVZFIxNgAxJS5BjKZjGWQ1dTUdHd3l7lC4faNGgiHw5WVlWQ9UfmbNxyCIcYkor6+3u12G9uAmDLXQF9fn2WQHT58+NChQ2WuULh9owbOnz+/bNkyayyZ1+vdsGGDsQ2IKXMNvPjii/fdd581kOXz+dra2vb29jLXKdw+q4G+vr41a9bcc889lkHm8Xg2b97MtgHhMtdAQ0PDd77zHR1hgmAyyzeJMpn546jm5uZjx46VuWbh9mUNuFyu5cuXGwm7W8jkQfPSpUug6DLXQHd39+rVq40DpSAI999/v9FIzcGS5fP5RCJRX18PT5rlDJnL5Vq9evU3vvGNIs1YPp+fG2QypIcPH968eTOsnJUbat3d3du2bVu+fLmpDRME4bvf/a7RjM0Tsnw+7/F46uvrq6ur9+zZ43a72+EoaQ3s379/w4YNlZWV3/72t00NmBxpStj8IZOrCwQCp0+fXrlyZQUcJa2B73//+9/85jdnwMt0vk+Zm89wSQvTwL333jvzFUBqaWuAkmAasAayfD6/dOnS0tYj3J2pBgrNw1jaLINMrvThhx82vRSILD0NLF26lCVphrDFkM3QEiSVrQYAsrLt+oW7cYBs4XRdti0BZGXb9Qt34wDZwum6bFsCyMq26xfuxgGyhdN12bb0/0lZP0bHmXTiAAAAAElFTkSuQmCC;" vertex="1" parent="1">
          <mxGeometry x="40" y="520" width="204" height="248" as="geometry" />
        </mxCell>
        <mxCell id="1T_SigNr_V3jTHDhT6Bn-3" value="" style="shape=image;verticalLabelPosition=bottom;labelBackgroundColor=default;verticalAlign=top;aspect=fixed;imageAspect=0;image=data:image/png,iVBORw0KGgoAAAANSUhEUgAAAMwAAACsCAIAAAC4tNT/AAATvElEQVR4Ae2d+28Vx73A919Kq3tR0/7il/JblAbThJdSXaVIqbEJRrolV5GoZKMI9QbXxnEMxq1IexNSLqHOOQaDmxseTUpTgvHbBBJDcJJj+zz3vedhruY7O7uzjwMHcx57zn5XX+Hd2dmZ2e/3w/c7OzuzR3iIG2qgwhoQKlw+Fo8aeIiQIQQV1wBCVnEVYwUIGTJQcQ0gZBVXMVaAkCEDFdcAQlZxFWMFCBkyUHENIGQVVzFWgJAhAxXXAEJWcRVjBSVBtmfPnmbcUAN+GtizZ89j/xeVBFlzc7NiGAui5BR5UfSXJUmmckdWflA1XmKq5pVVVSsma6pGRNNdsq7pXolrejFJaLqvJDU9qbslpetOMVI6kXQRyeiGr4i6YYphiJxIhlFMZMPwSFYx/EU1skSyPqJls76iZ7NeMbJZJjkjmzNytmRzOV/JwSbqenNzc9kgi+v6+7HEB7HEaZAPY4kPV5N/ATmzmjyzmvxfkLOrybOryY/WiJxbS1H563rqr+upMZCP11Mfr6ciINF4ehzkfDx9Pp6+ADIRT0/E0xcTGSqXEplLicxkUpxMin8D+SQpfpIU/w/k06T4aUq6nJKugFxNSVdT0jUqaenvIJ+l5c/S8udp+fOM/A+Q6xn5ekb+J8gXGfkLUfkXyA1R+RLkpqjcFJUpicgtIuo0yIyszsjqLMicrM7J6jzIgqItKNoikyVFW1K024r2FcgdRbuj6ndBvlb1r1X9G5BlVV/W9Hsg9zWDyre68a1uPABZ0Y0V3fhOz36vZ783sj+AxIxczMitgqwZuTUjt54lEs/mqSRy+UQunwRJ5fKpXD4NksnlM/mCmC9IIHK+IOcLCohaKFDRChtaYUPfIGKAZDc2shsbOZD8xkb+4cMCyAaQ9ZWkIGSEM4QMISPODD0ZerKHzc3NGC6nJRIrMVxiuMQ+GemQVblPdsi5eZ8DSn26RE/W+J4sn1dVVdX1J+34C84NISMPmPh0KcGjpePpEgiTJEmWZcpZ6U+XTsZ83JZPkpdE7JM1+BBGPq8oyvLyck9Pz/Hjx0VRVHUdIcNxMjJUVpZxMjmbo4QdPHjwueee27p164kTJ9LpNPFnhUIp42TV9GTTrzW5qhOe6Zs5t0ZGYp96MHZ8G5S9LSJ+khz/Bez/IiI+zWDsu12O1v5kcDGMg7E504cdPHiwvb29v7+/p6dn27ZtIyMjyWRS1fU6gEwQCGfBg2zhv1ochAmCYEI2P/QTQRBah8YfO+K/MPRTyDkpq3U64q84CTt16lQsFltcXOzp6Xn55ZdHRkbi8bim60ah8OgRf5cqvd2tMvbJTE/2TN80vFaKvEArbxoYKbMne+rXStF9tGm7orL5Wml+aDd4suhgKzlVAmSX3jFz1ilkSo48Sy4vL1MfdurUqfn5+TfffLO/v392dra3t3fHjh0nT55cX18n/gw4K/ZaqYaQJXt/DbVzkB3usNvz4rkUfXf5FpcoCC2vT1nvLuf2s/j7b/2DRcLl+EtQ5PbI/H8y57Q9Aq8vyYvL+d+wxC0D7+yEnDuj8nUvZPDu8rgzgD47uDglKScdia2/XSDvLv9gUmrezk+Hbi8svvszctTWu0heXC6xw8OLGnl3ObHfzEr+7H8/AO8uVVWVJKmnp6e9vZ0SduDAgeeff/6ll14aGBiYmpo6fPjwK6+8cubMGVVVNcPIbWwED7Iv+58BvVrhkieMavzFsfR4fLaLkcTM0HkEXpD/bi9L4P56+mQmZFwWQRC6BlLSNY4w/iyBLHOBAgfp+95lL8j9IFs8BA6LK+H1PzwpZBOvc5cHBjJNl2V5dHT0vffem5ubO3DgwK5du0ZHR99+++3t27cPDAzcuHFjdHR0cnJS0zQ9aJA5FNo0cIJ2/G8O/IicaNl7k8zCGO0DD9MRdc7CiG6Fi9vH0hdvHfsx7G8bg1kYEdOfFIWs8/yVlHTVzNb6mxnp2uzgv0MJO6IwC4N5L4BMvj73Dul7WVvr0MeickNUHhkuJ34J+X95gTgzd7hkrsvryS4PtZHrWt+9AlMwgjMLQ1VVRVEsws6ePauq6srKytGjR3fu3Hns2LGVlRUyOpvNBq5PZhlOAMLMp8tznXa6tdc08Md4+o+/ZyGNpRPIxihVXb8zp/rMd0OuYpBtj5DZPldT57dDISRiRs0SBs2pPgtvQAkmZHSqD49a14QvZBdoL421TRCEJ4XsjsOT7f+fYEz1ob3+ubm57u7uXbt2UcJUTVd1/cGDB0ePHt29e/fg4OCDBw80Xc8Fsk9m9/qpJxuhrkvoPOyaTzZmwvfj389eiNue7E+UvKZjfzYhKzaEYfXJ3JCdGYA41zJ41oTMDJEOyDKk48/GMvYd93qy82bn69nBpWlpk54M5pNdfNXGtO2tJTKlrLbzyaw+2c6dOz/66CPi1XRdK2youbyq6/fv3+/r63v11Vfrqk/GPNmP+mbopMXRvs6uKebGOqJk0uLUAA2RnCcTSgyXxT2Z4BMuo/u2HFuwJi2akLUORT2QjVM31jVBRvznh54FUPw9mXLxP+Dsz4ZuLynaJzRECm1mx9+ctHjxV5DnVxO1h0zRNFmWT58+bRGmFgp00qKWJ5zdu3fv9OnTV69eVTXNgIgZvI7/Gnu6FDp7yRDGzF53B7/Fhsz+X072CGSJaLszkR49Qbh8RMef9c/4GsxxsnH7ufHZwUUTMj4fC5dzF+zuPHm6VG73uh8RyMPm4UXN7JPZhQTCk5EXl7pOnhw1jezA5FhrZqyWz2twVtW0IPbJ2DhZ8tyaHTRHYO614wGzIwJDGNbTZcu+KTtcwtxrm7NtkScOl9fIEMb5HaZpW9+Y5cMl/3RJcuweJzOw6Yi/9YwJQxjW02Xrb+cd4XKOe8YEyLRFs+8vCMLr77HnAA9kJmE1D5d0+rVqGER8p18XCnQ1wGOnX9v/fWCvooOxZJp/YOf4D5p9v33v4CyMcs/xDzNk9kispYUtxxZwqk/ZF5JY6qU7ofJkLsha35jD1UoVWa0UZshwSRxZD1eFJXEIGS6Jq/i6S4QMIUPIcAV5/a8gR0+Gngw9GXoy9GR0zANXKzX4aiXfEf+SP7iC4RLDZUOFS+dqpab+E/jpqHB8Oqqanmz6taaW177E75PBHP8wfZ+s5pBFXhA6e28O0Pn+QkcEPoIXeRFmL1oLSbaOpc+TGYudR9gcxvaxjDlvUSBTyvAjeEH+CF4QIBMEWLA0th75uSD8/Fzq4/VikAlCR5R8aZGitjd6MZG5NNYlNB37M35pMcBfWqwyZHZ1z/RNw7c8Iy8ILR03zRXkhzsEmBlbDLKWfbAebiIebRda9t8iX/S8lIhuE7r+GyFDyOCbsb59MgiXbHHvyb6WR0JGFsPBN2Oj7QJZQoKQ1cU3Y23XAnsVneqDkJnfJg7bh4mDCdlMZ5NgriCH7pfd8UdPVodfv64yZHx1e3vJOJlvuExF2OIloSP6VoeAkNX1h4l5qwuCz9dVfJK8MRVfK+FrpYB8CyPQC0nwxyIq92MR6Mnw3WVDvbtET4ZPl8SpebtbPkneTNgnwz4Z9snwB7xq+QNe2CfDPhn2yXD6NU6/pv0z7JNhnwz7ZNgnwz4Zm4UxBp9ZxF/ubbBf7sWOP3b8seOPHX/s+GPHH3/oHr+0KH6aki6nsOOPHX/s+Jtfv9a/ht+LwI6/99Ul/tC9iuNkOE6G4RLDJYZLDJc+AdKZhK+VMFxiuMRwieESwyWGS2ds9DnCcInhEsMlhsuGCJcxRf0glvggljgN8mEs8eFq8i+cnFlNwhcxYDnJWvIsyNh66tN46jLIlXjqSjx1lZNrifTfQT5LpC35PJH+PJH+RzJD5XoyQyQlXk+J/wT5IiV+kRL/xcmNlPglyM2UaEtanAK5lZZupaXptDSdMWUmI81kpFmQuYw0J8pU5kV5AWRRlC1ZEuUlUbkN8pWkWHJHUu5Iyl2Qr2WFl29k5RtZWZaVe5Yo6n2QbxX1W0V9wMmKoq4o6neKRuV7VbPkB1X7QdViqr6q6quaKWuavqbp6yBxTSeiE0noBpWkbiR1I8VJWjfSupHRjYyRFZlIRlYysjKIks0yySnZnJojooHouZwlRi5n5HJZkBxs90S5ubm5bLMwllPp92OJJ5XISmwBt8bVQDweLydk3ynqkxL2fixxIyNncWtoDSBkDW3eYNwcQhYMOzR0KxCyhjZvMG4OIQuGHRq6FQhZQ5s3GDcXRMgmu8moSvekU0OT3ULb8F1nWilHtDRznMZdaCkFPG2ezTb8aesNzvXBhcyNVIm2cmS7O9zmoHVymGHqyFayOTZ11aYuKrlJ9ZAxqJB1Dw+3OTEr0VZ8NsJYEe/HZyvdTpu6alMXld6mOsgZWMgmsyTOcYg4bQU+yoyBViZPZCQJ3gjpyZbN8sXZF1BIJ4k7FNrayL9sY3m4olgSGN1O7550NrwOmCh7EwMMWRYws2zH2QpMyJ/gYOSyZRk8FoW2+tzZurk4anFJ0eOudl5FmsFaQXmkXUaSbl0EbbWO7AaEaS/QkDkwswzM25Oaire2lc2yIkWFszs5483G8nNn4EqGkfsqctLvnKd5XIGsjpD9DThkNI6BLS1b8UhRa/F2tbK5DAkexabCk42ep+GQOR6+XCiOv4q/gI+inubxF7kaFZLDoENGIx6xumUrjxWBRAaGlc1rQJ4ZRzbghXkl7gx/gS9k7Bq+Lk/zuAL5fCHaDz5kDLNhNk7mMb3N3yPjoH/wpZfYLo4vzFMTz4vnpEmNO919HCK42K3WA2SUDvKEZ/bOibNg+w50XMTcHW7jfA2xtgUT7294DMCpsbL5E6Aw/ipaMctK/iuYDw9QD0uHA66xTO+h+lsfkJmYMcuZLPE9Idto1KwUJ0CGZXOams/GjWA4RhxIHq5O62nVYpUVAlW4eYbEtuG7vPuzmxmmvSBCFib9h+JeEbJQmLm2N4mQ1Vb/oagdIQuFmWt7kwhZbfUfitoRslCYubY3iZDVVv+hqB0hC4WZa3uTCFlt9R+K2hGyUJi5tjeJkNVW/6GoHSELhZlre5NBhMw516Gofpxvv635FUXz44laaaDOIbNmPsB8COuoVtrEen010CiQsamNm1j966sXTCyjBgIOmTmjy4qM/OwuV1Rlk7/oX3MdG53lCG7OnFbGl+CYl+Yzk8xRiNUGazYZMYM31ZtSRnPVZ1F1AJn9yQJiPxsScsQFSHZIiXJms/M5ivAcWKX7FcLqohQTl2nvkf3hSb+U+sSivK2uB8iYdakNrSNGFSjE5gX4sDLxHFDNWZd5TnFTWL2FWCVS9wUQk1x8uquB5bVUHZdWB5DZTsnhOvhIxc3/d+aBTF4OoEiLNmY+F2R2vSSne4NCgUXeu7KJ3Pa1rPAw/61zyJz8gCGdDspDkg2h59QjIfOpiXFjMsjl8KawvKH82+iQOZEjJrZQcp/ij/l9Z0+rCCXkAo4ys8PmTClyaeMnNzpk7oVrvPsiYBTp6jshcxfCVr9NdlsUmeV6UxofocffYeND5hxn8HE3tLflXLvmhox6M6tfZrIFlJqJtBfmTXm8CRo/RxAhq5HWCSCWZ6pRGxqzWoTMtCv4IGSsIpSHGTI+ttmds4qoOdyFhhmycFu+inePkFVR2WGtCiELq+WreN8IWRWVHdaqELKwWr6K942QVVHZYa0KIQur5at43whZFZUd1qoQsrBavor3HWDIzElZ5gvoyr/xIS8AKjTZ0JpeVEXLBqiqgEIGgHFcsck1ldRcaZBtipdNXVTJe61u2UGErDRrl11PpVW7KV42dVHZb7BmBQYQMn5eoY9eCAts46IbRYQuYmNT/u2sllM0SbJDsV2Eecqq0s7DZgBxKfZCKS7RqoWUYac7FttZxYdoJ3iQEVs7rMVbAyxnnSVHDBIKlHkEvLS18Ufm70zQbFYFcGiWBxcV+7E4Vo09exuaRVrAmsNfz7eM4mYVwN9OSPaDBxlvN5cReDPSU3Zm5zlyZFnfXjtiTnBlWJAyfEsgl7syMUj4yFcsm7Mt/LoC1w2F5LCuILOBYNaxzWnvwTmeBSDJx6tBRvs6e48LdSwwW8jyBZP2uDfCpqed/EWs6SH6GzzIiK0dbsS2hsd4nI/iECEXOM1qH7my8ctxuVPeiqxG2EX5wGTm8lzOX2SVFJ6d4EFGbceik8MSHAa2Of1dlNOs9pGnCN9Tnlx2M+z8xZfKuS93H9ulhWMviJBRzKwuPTEEGycjPsLmj/cYLkPyLPB+jWTjiuDLc5TAn7Crd/ThSLuKZINaWDtdVYaDK8ddBhMyZj+7w2N3w4ld2WancoET7u9RkLUNWyMdHLHuEigbZk2uikiqmfS4bEC0szUOA4ThILiQVUb7hAnmYipTA5bq0QBC5lEJJpRbAwhZuTWK5Xk0EDbIPArAhMprACGrvI5DXwNCFnoEKq+A2kN2OSlW/jaxhpppwDCM2kP2t0SmZgrAiquiAYSsKmoOdyUIWbjtX5W7R8iqouZwV4KQhdv+Vbl7hKwqag53JQhZuO1flbtHyKqi5nBXgpCF2/5VuXuErCpqDncl5YTsBm6oAT8NlA2yI0eOdDu3HTt2NOOGGmhu3rJlC5swb/596NkET0pJCYcOHXIVjYeoAaoBL0AIGbJRZg0gZGVWKBbn1QBC5tUJppRZAwhZmRWKxXk1UDbIvAVhCmqgmAY22fEvVhymowa8GkDIvDrBlDJrACErs0KxOK8GEDKvTjClzBr4f2zOmGK7StptAAAAAElFTkSuQmCC;" vertex="1" parent="1">
          <mxGeometry x="40" y="803" width="204" height="172" as="geometry" />
        </mxCell>
        <mxCell id="1T_SigNr_V3jTHDhT6Bn-4" value="" style="shape=image;verticalLabelPosition=bottom;labelBackgroundColor=default;verticalAlign=top;aspect=fixed;imageAspect=0;image=data:image/png,iVBORw0KGgoAAAANSUhEUgAAAMwAAADpCAIAAADnIU8gAAAejElEQVR4Ae2dC2wU17mAR6jVza1UqVXUe6uqUgNXlbi6UtLbilYFWlMrviDUWCEQpXGAuHZsSHBJY24x3PJo4jgJUHB4JDwMjnGMsbGXR4KJnQXzCg4Qg7Gx2eC1sdePXb8f+5jdncXeq3PmdeZhe2zvemd3/9Eve+bMecz855v//2f2nBnKDwtoIMgaoIJcP1QPGvADZABB0DUAkAVdxdAAQAYMBF0DAFnQVQwNAGTAQNA1AJAFXcXQAEAGDARdAwBZ0FUMDQBkwEDQNQCQBV3F0MC0ILPZbKWlpRkZGenp6QkJCbGwRJYGEhIS0vFSWFhosVimfLVMETKz2ZyRkZGQkLB///6qqqrq6up2S5NzqJMXq3NIKTbnEJZhm1MqruGuMaTbZVdKj8suF9reSztUpY92KKWfdqqI2zmgJoNul6oMuV1qQg+56WFWPPQwIXYPrRC3w6MuTo+bE6/bicTj9HpcYwjt9UjFS3u9bkEYr1sqHsZLCONhOPEyjERsNms1Xg4fPpyYmJiamnrv3r0poDYVyPLy8lJSUqqqquwDbb2Wqo56Q1vdyba6IizFbfeL2++far9f0l5f0l5f2l5f2lFv6GgwdDScxnKm48GZzgdnkZjOsWI1fWb99jPrt59jOW99eN72sAzLBVvjBVvjF12N5V3m8i5zBZYvu5q+7G4yYrnY3Xyxu/lST3Nlz6PKnkeXsVzpabnS23IVy7Xe1mu9rdd7W6/3Wb7qs9zAUtXXVtXf9jWWm/3tN/vbb/W33xpovz3Q8Q2W6oHO6sHOO1juDlrvDlprBq01Q9Z7Q7Z7Q7ZaJF11WO4Pdd0f7q7H0jDc3TDc0zDc8wBJr8ne+y2Wh/a+h/a+Rntfo6PP7Og3O/qbsDQ7Bx5haXEOtjgHW52Dra5Bi2vI4hpqw9LuGm6nhzvo4U7a3knbrbTd6rbb3A6b29GFpdvt7PY4e5C4ej2uPo+rz+vq99L9XnoAy6DXPci4hzjxDDOeYZ/H7vPafV4HFqePcT5mXFjoxz76sc894vOMPPaMPPZiYUZGmJHHPp+PMZlMb731VmZmptfrnRRqk4PM4XBkZGTk5ua66eHu5kpLbaGltrCt9iRAFtmQjY74Rkd8I4g1xmg0pqWlORwO7ZxNDrL09PSrV68O9TS23y+x1J4AyIa6osKSsZCNjjweHUU2zWQypaWlabdnk4AsJyenoKBgqKfRcq/Acu8EQBY97pKEbHR0ZGTksdFoTE1N1WjMtEJmNptTUlLcruH2+6cAsmiLyWSQjY6O+Hy+LVu2/OQnP9m+ffuEqGmFLD09vbq6uqvpIiYMLFkEBv4+hqZp2u2mlYG/ErLR0ZFHjx4tWbJk1qxZc+fOHZ8zTZBZLJbExER7f0trzacAWUTeXfoYF03TDofD6XR63LTs7lIJmd+PvObGjRuffPJJiqJ+8IMfjMOZJsjy8vJyc3O7H10ByCLyEYaPcblcrpaWlszMzMOHD9vtdsyZ+AhDFbLR0dGysrJ58+ZReHnqqafG4kwTZBkZGVVVVZbaEwBZ5EHGeJ0sYZs2bVq8ePHy5cuPHDkyNDTkdtOP0QMz9JxMFTK/39/cWBsXF8dCRlHU888/r8qZJshSU1PNZnNrTf64kO3fOV9ojltZkwsPY7+19+r5YSxnwzZt2rRixYq9e/dmZma++OKLOTk5AwMDKD4bF7Ieq5mEjKLUcVJPlfEYHx8/PDw8Bcgoiop55yA88dfrE3/Rhq1YseL48eNdXV0mkykzM/NPf/pTTk5OX1+f2+1+/Ng7liUb6nkYGxtLmpYlS5bI4PH7tU2Ji42N9fl8GiGLefsA/lnp4K4FuPUFr9+En5X0+LOSk6bplpYW1oYdP368oaFhy5Yte/fuvX///rvvvpuQkHD06NHe3l7WnmHO0MPY0dGR0dERv3/U7/crIXviiSdmErKSm+88gymLP1X/zlq8tvYTvLJg3S382+Wtd38pXgQL026Lv13m7l7I7VmU9ebrePX1gvIu8y5+fdcbFEX9Pv1O08UzKWIdFDUv+/rlnkdXelqy1+HkdSdPZcewGX794Y2v+ooTuNwxm+9F92+X7L1kZmYma8MaGho2bNgQHx//0ksv7du3r6amJisr69VXXy0pKaFp2utxa4RM1WNqcpdTsmT/WMP2J7JkHGRcB2PISpK4LeLfC6WIM5EwYhdFQsalI8gKsn9P5qIo6qUzBGSyfeTmH3aeieYfyN1u2ul0Hjt2LD8/v76+fsOGDStXrjx27Nju3btffvnlffv2VVdXHzt2zGg0ut1ur9ejL8jIjqQoak1uaYcA2YI3bjbgURgX1y3C+dYeRwMxrJfS2M1F7x6zXlrPrr+eX2Z7eMFWsJytUALZ79+6ozIKIxuZN4p6o1C0ZFTK3t7Wa3d3/JqtZF3xjT6L4UPWtq35KJoh83kdNE27XC6BMIPBQNN0R0fHnj17Xnnllf3793d0dCAzxhHmY3+7HN9dzpAlY7sT/40/xQ31Edzl6Q4WsrxlKMPCtFt4tI/V9Fkpa9iSsqz5L+Cyyw1otM8FW2Me6zpJyF4vEIf63Hmfe04jtEtCtu4kHupT9DLem3AOD/U5l4q3ohsy9slFfX19enr6ypUrWcLcbvTEv729fc+ePatWrTpw4EB7e7vb7R55jEZh6AgyPvAnx5PJIbuV+d+on9Ugu80GagvXf8NB9gEfh5ExGQ9ZwYssW394/2TPIxVLBpCNNZ5MiMleeeWV06dP0zTtcbse+2iGoT1u2mKxZGdnv/baazqPycaDrHMMd/l6/ue8JaPGcZeCJbvzHjZjKXvQoMXr//sHTBxYMi2DFnFI5iwqKhIJY7hBiz7G7XHTra2tRUVF165dc7tphmGfYkx8dzlD7lKLJet8cFYl8F/4F3yDOXHgL4eMtWb8X4BMC2Q+r8PjRr9Xut1uZMPQ4FhxZKzP5/a43ezv5QzDRv3h5i7Z4dcSzpKyiOHX77MukqJ+tfvKuO5SvLucl30d3OWkh197PbTHQ6sOv3782OvFUwHG+VlJ+Zws2JYsKGP8DcmsgVpxGsb4h26MP476dWHJAgWZirtclHUcJpKEcCJJxEP2q91XYLZSiGcrRR5kMCVOd1PiADKYdxn0eZcAGUAGkMEMcl0PWtQ0gxwsGVgysGRgycCSKccxKlO0jScL1HMyuLuEu0v0joJJTe59ey0Vfwre6hPOb/XRW0y2jRsQi34NYseTAWR6nq0UdoH/sT9S1DM7K/j3k325ds07B9vrATKATBmCKVK0xWTb1lDP7CxXvgRPhOzmO3isIjJyy0r4l+CJYzG4gRjnS7kfxSkq+QN4CZ4eXoKnG3d57I/U/NSqunEgO7Trz9wY/5IkalFmDnrN4vFl1MK02+SbFvNfoLhhsezwa3jTYujftKgnyBK3tY0HGfE6z7xlVNK7CDI0hWRZKQkZmkjyAh7gD5Dp5XWeYQXZJ8/zw1cpDjLWmGEHiufDfW799jw/Anu5AU0kAUsGlkx8Z+xEMdknz1PClDjBkvGzlaz5yyhu+DX/nCx/ObXwzW8AMh28mFg3lqyuqOofz4xzd4mi/j+/w06JQ8E+6y4FyC6lLZJBVrl+EUCmj7df6wgy9Ir1Y8+JDnHB2pto3qVwd3mIezsGRa1N4mOy43gCJirzy92X8CvWuXmXOKUS3KUuXrGuM8hUAn94jz88J1M8FVMmaHtOBr9dRuzHIsCSwVAfGOoDQ31gqI/SOSpTwF1G+beVwF2CuwR3Ce4S3KXSOSpTwF2Cu8QeM/Rv9YFHGPAIAz1VVxoplSRlJrBkYMnAksGXe4P75V64u4S7S7i7hLtLuLtURmDKFIjJICaDmAxiMojJ4NtKevy2ksPndfi8YTfvsq5IbSIJjCeD8WTKEEyRAjEZxGQQk0FMBjEZxGQQkyncozwB3CW4S3CX4C7BXYK7BHcp946KbXCX4C5nwl16vd4O04UO04XOb7/AUt75sLzzYUXnwwrrwwprY4W18UssRmuj0dp4EYn5otV8yWq+ZDNX2poqbU2XOWm+3NV8BcvVrmYk3c3Xuh8Jcr275Xp3y1dYbnS3IulprcLydU/r1z2tN3ssN3s5udXbdqu37XZf2zd97YJU97VX97XfwXK3r4OT/s6a/s57WGr7rbUDnNQNWOsGrPcHrPcHrfWDNlYaBrsaBrseYDENdnMy1P0tlodD3Q+HehoFGe41Y2ka7m0a7msa7mtmxd73CEuLvb/F3t/KyUCrfcCCpc0x2E5Ih2OwwznY6RzqdA5ZORm2uoZtruEul73LZe8mpMdl73HZe12OXtrRh8TZRzv7aWe/2zngdg24XYOCeFxDnNDDHiR2j1sQh8fj8HqcWFxeDxLGQzNemvG6sXgYxuPjxOvzeX0+BovP5/MN9bbExsaK07nxmsJG+bWOJxseHn4AC2hAqoG+vr5AQsYwTGtNPghogNQAwzAAGVwVwdUAQBZc/ZIXdNSuA2QAWdA1AJAFXcVRa8CEEwfIALKgawAgC7qKhQs6alcAMoAs6BoIM8iKVkufG6/e3FqTvWM+Rc1PvjHe8zmUJ2ZbtqotKVo95i7V/JA4WQ2EIWQIrMlefADZZDUWyPwAWT5YsslftJNDMPSQNd7O1X6SyF3KLZncShEudWkRZ/PGzrN6swSynKWCP07NmZwqtZ9FtOUMMWR3L38cs3Be8qp4jXqfEDIyw41tT/OxmgQylEeI4TBVXLhWlhxDPb2jDLNVlrwDIJt0WKJ+WYYSMpaw2bNnL3sudhKQCaaGorCxIQBClAjWK7+1ZnMqB40sD08SVqJoyeTF1VWm8VAhm6CBkEEmEDZpyMZxl4SzE1CUg4jykCCSMRlikaLgZjPAV1doICMJCzRkEoD4i4mwZONBxip3cyomFGIyXnvTZS4EkMkICyRkZFAliScIyOR5iF1EERTPyU3mdHUdqD4Lu3pCANny+NjZ0mVyMZm87yWUSIL6muwdq9mHtGQetC4E/ggmwT/mLBWsF3kDEXadqrcDDgFkp3K3vr0piZQLxVka9aLW9yRA+dwPAHxExkMzZp6YbdnSwJ8vKdx+EuZN40FCNpkGQgCZ7AhgM+I1AJBBpBV0DQBkQVdxxBuqCU8QIAPIgq4BgCzoKp7wQo/4DAAZQBZ0DQBkQVdxxBuqCU8QIAPIgq4BgCzoKp7wQo/4DAAZQBZ0DQBkQVdxxBuqCU8w8JAxsIAGFBoI8Ft9FPVDAmgg0K+OmkmNfvFl5b680zPZIrQ1NQ2EpSWruXcvbvNZKvHKrKRLq7OAs6l1/cyVCjPIOjutyR8YZiVd+mla+eGCs0cLz303qRI4mzleptRS2EA2ODi4/aPSf/2z8ftJlVsPlNQ3NLACnE2p32e0UHhAlnPi7L+tMX43qfLV9wzVd+4KhE2Ds6ZDcVTcoabAKXvMCo3p/IBbiqLSjdNuETUU2EOf9iFNUIHeISsrv/iff/1iVtKl/9ly5uLlazK82M26uvtrd5ZSiVcKSj6f4HTF3WMyIWaZ3JpqhRgIAizjoUByPbkDDF1uXUP2cf5pKvHKf60vKzSUqeJV39BQfKZs/t8++/c3Kpa9bTB8Xq5Zk6pMaC6tklGtQrU0laKRnqRryLYcKPm3NcbkDwx1dfeVkH3xZeWKtw3/knRx64ESk8m0P+/MmfMVmvuL63/Rl0l9J9rNL9I9zBi7SKDYLOlGBlVPGDLJ0YlNi1nYSoy48bi4OGlhrjKyIVQh2xh7sEJbapVLWp/JDV1DtjPHcPDTsz9/s1zG2Y2vb/7lnyXfTapMfq+0+s5du90+eZVxXcP3Ct7kN3AP8RsYFIGzsXeJfY/y8AXYZvgt8TBRHr4FsSQHDJ+dzMSg48A7iOwcYWJFh3DIR5aT5Bbbn9E1vUN28nTZ7W+qBc6q79x991Dp95Mqn/2/M+XGSpvN5nQ66+vr16xZs3Tp0r1799I0rU1/uPf53kFFhJ5RdouWXZiPuENNinpFU8Ozw6bI2mZ3ykoLDbPHJ+bhq+LBI88Z1aFaOZlpRtfDADKbzcZy9vy2M/+RVvHzN8sLDec7OjpsNltvby9N088+++z69etPnDixcOHCI0eOaNOfAiUhgexZti4tu1jI5B6OOBZULW+92HXeHROeTmiJKygei4gTkUfcrWhIpXIiz8yu6h2yQsN5G14uXb7207Ty94+UtrW1sSk2m21oaKi2tnbOnDkdHR0Mwxw8ePCNN97QpkCiq9gCKAEbAGXPCXnH2cV6OkUcJTmYcerh8gk5+HI8W/x/LgbjLJnyeEiTzNcR8v+6huzzL4ypOw03b9222Wwmk2lV1mmTySQQNjAwwDBMcXHxnDlzqvCSlZW1cuVKi8WiQa1jdifv94g6hB5WFBICJdYFor5HHc97M6IOvMpDoayHy6ncwbZtTBc9IJGHWBWbUk0Ud4dgTdeQMQxTeLqM5UwG2c1btx89elRSUjJHsSxatEiDIlFXEDRI0JBsiMEaqnXsXWLf4qoxZ02H4ojoCKdz29J6mg6ls8/PxEqEU2g6FIfso1iPJA+qR9jXdEgM/EXOhcqFKmd6Re+QCZxVXLzMWrL6hob9x8+syjrd0PDg6NGjr732WjuxVFRUzJkzR4MW2a5iHxag+EXsFFwYdx4X14j9O94uZd9T6UayGlkbKL+w8E1IKuHOAmfkM0jdpfx4hJNQrZyrb+b/hQFkLGevvm9YlXX64Kdnkz8o3XHE8OCBiWGYaUA286qO3hbDAzKWs1VZpzd+WHL9xtdCdwFkgir0vBI2kDEMYzabnU4nqc2jR4++9NJLFcSSk5OjzV2S1cB6cDUQTpApNXHhwgVF3D9n2bJlypyQEkINhDdkIVQcNK1dAwCZdl1BzilqACCbouKgmHYNAGTadQU5p6iBMIYMpsRNsc9nvFhYQgZT4mack2k1GGaQwZS4afV2iAqHDWQwJS5EhASg2fCALAhT4gKgO9UqJD+JEz9rq2bWkIh/6hZ++NZQQIdZ9A5Z0KbEBaMv5OMlonMCnFKzuoYsmFPilKqYdgpiLMxtzrR1oFqBriEL5pQ45NYIb4YAETcJnyckqqWxWHEz2A41yeqUKHzC4vLpAVxlcnLRNr+Me2yS1kO7oWvIgjklTgYEARnZreRYU75Lif1sj4vWS77N9y3Z2JjFyUzhPAGOP2nxv94hC9qUOGmX4oH9HEWIAh4oVlHyFMmYf1ledkKJZKit1uLkIUma4CkWEsX+Iw8cp6rlIbKHZDUMIAvOlDiyR7kxzTxZCAoJJSivfMGZUU6eAGn3sUXYGjUXF49JRIVoQtxNtDVm5USeUK/qHbKgTYmT9Zjc2rBTRrhJGrK8Yp8RBIiJ/JqwU3txni3+v3REv2o9qon8Iejkv64hC/aUON50jTlZkUNPwEXeaWPuwBn5/h8zl3IHS1d4T4CTK4nR/TtjgzYlTjK5DeEg3Gwa0wX4eEwkmdEUS9UZbDABTskXTtG1JWOPmeUs0FPiOOvFhlrpRmRUOLbQKr+IAReZyueUzwNmWVWW5bwev2Os4vh0cTsC5eKcYb7/iDaEg1M9Nr6ADv6HAWQwJU4HnEzrEMIDMpgSN61ODnXhsIEMpsSFGpWptx9OkCnPEqbEKXWiw5TwhkyHCoVDUmoAIFPqBFICrAGALMAKheqUGggwZLbGChDQAKkBr9cbYMgm/MQmZIg2DQT+o6rRpkE43wk1AJDB56GDrgGALOgqnvBCj/gMABlAFnQNAGRBV3HEG6oJTxAgA8iCrgGALOgqnvBCj/gMYQZZ0WqKop7eUaZCxji7xu7F7B3zqZht2WNnUGlImblodQAqUVYbMSnhCBlFrd4s74Cy5Bg06lSdP0nmnKXU/OQbNSw9AJmmq0iiQE51kygYesgab+dqPwdkM1YvjaGWFklP9ca2p6n5T8cAZFK1aFdsUHOGGLK7lz+OWTgveVW8xpPEjmmzwsdtTqWe3pGTLIMMO1B2VD0HJZHCmkPOkgnpMteJ2OUX2S6hCLV6s8Rd5izlS1CpOZO43DVqIByzhRIylrDZs2cvey5Wo+647pS4vPxWdhN5TNFdIgh4r4rtHO8iJWURZBTF04D4kNYgmszNqZQYeKHKBZ+LqeIQJI+hLHkHQIYta8ggEwibCmQ1qMt5O4FAQevSDpa6VGzq2NsFJWQ8i601RIhG1sb6IAQTtoiKXaIlQ7vkrlzj9RPB2UIDGUnYlCDLR8aJhUPoV7LvCZ8ld14KyAg/SEAmICVEOUL9il0iZBhTirB5EYyO9lMLAWQywqYGWSsyZsi1iR0sQFCDHehYFiW4kLFBGDK0ohcWMI3WlRBAtjw+drZ0mXRMhnsL45XMooauKhIycl3WtRohU9YgFJTvIuwf0ZZoa4lE7Vd/JOUMAWSncre+vSmJlAvFWRp1KtotjioxupdAVoMsnBib12TvWE0E/qKRk/Eh2ZTWII8ChcrZO1DO5+Ys5SNFfABitBfVt5khgEwjT6rZJJDhAEjoVBlkbBQvD8iQUUEkoQURIKFKsYlB4asQGyIrweGXeFTIyPGLcPsJlizgL1xRhQMSo1kDYWbJormrwvfcAbKojpZmBlyADCALugYAsqCreGashZ5bAcgAsqBrACALuor1bGNm5tgAMoAs6BoAyIKu4pmxFnpuBSADyIKugcBD5vW4QEADpAYCD5ny3VSQAhoI8KujQKGgAaUGwg+yr6tuvp1StPWV4sqLV5TnAyk61EA4QVZXW7d788l1vy3du73wo/dPrv+d4YO/Ft66dVuHaoVDIjUQHpBZLG0HdyK8dm4orLx4pQEvVy5fy95WmPabsx9uPWE2m8mzgnVdaUDvkA0ODuYfLln/u9LtSYXnz5WzeJF/jRWVWesQf0eyi7u6urQrF3+kSPg8kaTcOLuIfPiLRuoVELlgNeCDFgOuUmNFZdpvzmbEF6sSxtJW8cXFv798Mu03Z8+fK9d+ANyXsIhvZXFluc9hAT7adTlBTr1bsvPnyg/vKdq7vXDdb0u3v3qy+MTZurr7giUzFH+WtQ7htefvJw7uOjlZyOLS04Vvwwl6QozFxY31RV4hG6xo10AYQJazr9hms9XW1h7OLv5rrGHzspPHD5cU5Bq2JqDY/6P3T37zTbXNZsvZh6yd9jPH3y81Kr7vrJZMfupPtHyYxkNNuEVuXfhOIJhBsiPCBjIbXpqamgqOGv72XEn64tLcj0sePDCx6VOFrAl9LpUkgt0k+SG+ocp+M5rHjMyE1snPslKSSkmFR+N6mEHGInUi13Ai1yDgxa5MyZI1KblBDJH8SKkgmCQzYch4+tjy4pa0hijcAsgwUSwRCBW8RvKDoRD8ICXaKDITuS79On0UMqU4ZYCM/U40cpmilZIwgwHj7ZKYR2LuJAXGs4SKDoiGBIAM9TJG55AYnZHMIMZ4xLickmAfU0IWAEsmv3DCALKDu062traSEZgyJmtvb5/KIwzu3pA1PQRLJDPkOjZq/H0CuYNcB8jCDbIHD0x7txfu+XthyclzZrNZGfi3traeM5Rl4zz3au7Jz2/sbcLxcViI9krKDNpil3QjUYrMRK4DZHKl692SMQzjdDovX7p64L3CXRsLT+QaamrusZasoaHh1ImzuzYW7nun0FhROTAwID852NaHBsIAMkFRt27dPrq/eOcGZNiytyLmDv6z6KtrN9xut5AHVnSogXCCjFXfgwemE58YPj1qmJRz1KHqo+eQwg+y6OmbiDlTgCxiulK/JwKQ6bdvIubIAgZZfHz84OBgxOgFTiRQGgjkh+5TU1NNJlOgjgzqiRgNDAwMoOF50sWvWChFikpCRkZGVVVVxKgGTiRQGmhubg4YZHl5ebm5uYE6MqgnYjRQVlY2b948qSFTMVsqSUpTZrFYEhMTI0Y1cCKB0sDGjRuffPLJwEDm9/vT09Orq6sDdXBQTwRooLm5ecmSJbNmzQoYZGazOSUlJQJUA6cQKA1s2bLlRz/6kYwwilLxjSpJSnfJpuTk5BQUFATqEKGesNaA0WhcsGCBkrDpQsY6zatXr4a1duDgp68Bk8m0ePFipaOkKOqpp55SGqlJWDK/3+9wODIyMuBOc/r9FL41GI3GxYsXf+c739Foxvx+/+QgYyHNy8tLSUmBJ2fhC8rUjtxkMr311lsLFixQtWEURf34xz9WmrEpQub3+81mc0ZGRkJCwv79+6uqqqphiWgNHD58ODExMS4u7oc//KGqAWMTVQmbOmRsdTabrbS0NCYmJhaWiNbAz372s+9973vj4KUa7wvMTcVdCoWFlSeeeGL8I4C9ka0BgQTVlcBA5vf7586dG9l6hLNT1cBYcRhJW8AgYyv9xS9+oXookBh5Gpg7dy5J0jjrAYZsnJZgV9RqACCL2q6fuRMHyGZO11HbEkAWtV0/cycOkM2crqO2JYAsart+5k4cIJs5XUdtS/8PDdAUz4x2sL8AAAAASUVORK5CYII=;" vertex="1" parent="1">
          <mxGeometry x="300" y="-60" width="204" height="233" as="geometry" />
        </mxCell>
        <mxCell id="1T_SigNr_V3jTHDhT6Bn-5" value="" style="shape=image;verticalLabelPosition=bottom;labelBackgroundColor=default;verticalAlign=top;aspect=fixed;imageAspect=0;image=data:image/png,iVBORw0KGgoAAAANSUhEUgAAAOoAAAHQCAIAAAAgYGFmAAAgAElEQVR4Ae2de3BUR3bwp7aSSr6qJLVVqcqXSuWPtTZJ5aut2s0mtSG2sWEpa71F7VImZuMY4xeYh4HFtsiCyRpjG8s2sCADZhEIaw1GI4ReYANGOyAeBhmwsCRewkiAXmgEer9mpBGgr7r7dvfp+xjNSKPRbc25dUvTtx+nT5/zmzM9V91zPYN4oAW0tYBHW81RcbTAIOKLEGhsAcRXY+eh6ogvMqCxBRBfjZ2HqiO+yIDGFkB8NXYeqo74IgMaWwDx1dh5qDriiwxobAHEV2Pnoeojwtfv9+fl5S1fvjwlJWXmzJlT8EALRGaBmTNnptDD6/XW1tYO+304THyrqqqWL18+c+bMzZs3l5SUlJaW1tdW93TcUs/Gng6n09/TQc9Of4/l7O1scj5v93Y5nXd6u2zOQFdzoNvpbAl0O52tgR6bM9jT5ny2B3udzo5gr8MZ6AgGOuHZF+gEZ1dfwO4MdvUFux3Onr6gPPuDPcbZ19Pf1+t8Bvr7LGd/oL8/CM9Qf1A9+0L9ljPUFzLO/lDI9gz5/Y2l9Ni2bdsLL7wwb9688vLyYUA8HHw/+eSTuXPnlpSUdLXVNteW1F/Kq6vIJueF7LoLe+iZU3cxp/7iXnrm1l/Krb+UV38pr+FSPjkv5zdcLqBnYcOVwlvk3EfOyv3sbKz8rPHqZ41XP+fngcZvD/i/PUjPQ/5rh/zXvvBf+6Lp2uGmKnYWNVUVNVX9san6j7erffQ8cvv6kdvXj96+fvTO9eI7N9h57M6NY3duHL9z83jzzRP0PNlcc7K55svmmi9bak611J5qqT3Nz5KWupLWuq/oeaa1/kxr/dnW+rNt9efaGs61NXzNz9K2W6Xtt87T85v2xm/aG8vaG8s6Gss7/OUd/gp+XuhoutDRdJGdnbcv8fNy553LnXeu8LOys7myq/kqPb/tavm2q+VaV8u17paq7taq7tZqfl7vbrve03aDnjd72m/2tNf0tNf0ttf2dtT2dtTxs763sz7Q2UDPW4GuW4GuxkBXY7DLH+z2B7ub+Hk72HO7r+cOPZv7epv7elv6elv6e1v7A639gTZ+tvcH20PBDuPs6wyRs2ugr2ugv2ugv5uePQP9PQOhnruhXnoG7g4E7g4E7w4E7w303bvbd+9uPz1D9+6G7t0L3b83cO/uwMDAQGVl5WuvvbZ69er+/v6oII4O3+7u7uXLl2dmZgYDnbevF9dWZNVWeGsrvIgv4js8fO/fG7h/7+49SrHP51u8eHF3d3fkBEeHb0pKyokTJzruXKu/uLe2PAvxbWvA6Dui6MvwvX//7v3791gYXrx4ceQxOAp8MzIydu/e3XHn29ry3fREfL9GfEc4eYD43r9/7969ez6fb968eREG4Ejxraqqmjt3brC3s+5iDuLLJ76I70jnviZ8B+/fHxgYeOONN/7u7/5u1apVQ0IcKb4pKSmlpaVN1Udqyj9FfBFf+r0t0q9uAwPBQCDQFwxav7pZ8b1//96NGzd+/vOff+c73/nnf/7n8ARHhG9tbe0LL7zQ1XqzpuxTxBfvPJCbDxHfeWDsdnd39/T0cILlnQcrvoODZA6xbNmyv/7rv/Z4PN/97nfDEBwRvp988klmZubtG8cRX7xxFtWNs4GBQG9v782bN1evXr1t27auri5K8BD43r9//+DBgz/5yU889Pje977nRHBE+C5fvrykpKS2IgvxRXwjxzfU38vYff311x9//PEnn3xy+/btHR0dwWDw7kA/u+9rG30HBwevX6tITk5m+Ho8nieeeMKW4IjwnTdvXlVVVU3ZrrD4rpxPe5v/8Z66C8a/Lc68/SOS9/CCMzH6t0X+HDEikpicupP+52KE/7bYtIhKXZSD/7aI2b8tBkKS3RkzZmzcuHH16tW/+tWvMjIy2tragsFgeHzvNFZBfD0ee1Dtc02kT5s2rbOzc6zx/cP6iQq7iK9r/+tmYnfnzp1NTU2VlZWrV6/+7//+74yMjJaWFkLwXfKPt/v37rL7vvfv3xu8f39w8P7g4GDHnW+nTJkC/f3zn//chOXgYGQb5adMmTIwMDDG+O56kg3m5d38n8bHX305NtEX/2kc238a9wYCgZs3b77++uszZszYuXPn5cuX33jjjY0bN168ePHdd9+dOXPmjh07mpub2Tw4Qnz//M//fKzxzZwG3k9P7L1srHnInS2zF+zcT9c8pL5M817eRRMTl3xtxReseSh4SUpYuNt3u/rI7evrF9K8hVlpJPHofy18lF7PTWNrHr754N/p9dOFNebJQ9maCVLc/C2tdWTNw342N6IFi/fimgfHNQ+BQKC7u3v16tWC3aVLl06bNu2pp57atGlTWVlZamrq888/n5ubGwgE+vuCEeJrO3+IaPIQm+irsEum4wxfyC6D5uWdnzVeNfA1MJq45Otv32dA05wn88GSHcguq79wt8TXkPDo/xS+z77JPlVIl+wUzqUl8zY2q/jun2e0MF4ovpBdls8Jxn8am/9pHAwGenp6Pv744127dl26dGnp0qWzZs36+OOP169f//TTT2/atKm0tPTjjz/2+XzBYLC/v08PfM+882Pi+IdfPgNXnB1ZNJnk/vh3R8iKs7Pv/iu5mp0q8Z3463NX+Yqz4iW0MuPH45n4amnV4abjr9LMf9twnKw4O/8eZfSl9SL6eh79n/NsxdmX//NT2nRh9vHmmx8aX9f2nFTwPf06q/PTNQV0xVnhh2u3tJb8L8188MMzZMVZxboHiZgFW+k/LxBfM74DoZ5AgNwvE+zm5+cHAoGGhoYNGzY888wzmzdvbmhoCAQCof7+yOe+Yxd9X3yLLJhUou8Te8maycKGT57gMILXiYvP8ej78q7PGwW+ZM3kIf/xVyTEL61p2j0DtOTJR1POy8mDWDC5J43OH376QU5z9tOk6qPLviELJsHkIWcmFTFzfy1YMJnzDJcLXie9UUGWTSK+ZnzZ/bJLly6lpKTMmjWLsRsMkv+61dfXb9iw4dlnn/3oo4/q6+vp3DfSr26jje/mtQ8R7056a7O4cbb3Bepvhi9Z7/vOAgnAj9f5Cs+spiHZMz3XvN5XzH0t+NL1vvwO2owNqf9GRc4oMK/3FXNfge+x82z+8OhvCunE96cf7KXrfSW+xqx30utlAN/ytWwqPGs/rveNYL2vmPs+88wzBQUF9N/FgXsDfQOhYF8wWFtbm5aW9tJLL7lt7pudw2D1/CKH3fctWjCJkjU/07Rc3YB4wR9k9J28OoOtVT/77vT1R+XcV0bfXU9OTv0Dib4Q34mvlvLoOzl1N1uufv69X6WdkHPfhVkS3zvG/OHff0rC8L+nnWLL1SW+LbaTBx59f7puP/u3RcW6ZzeeYd/eMPqao28w0NvT07Nnzx7BrliuPhDq6wsGa2pq9uzZc/LkyWAwGAr1u2Tum113eB7jVUZY438WBF9j7ivLSPRtuLL9dw/LLJr6Vyd8TfX4fd+dG8z3g3/iiO8NY/5ARD267JubFnxrT9t9dSv80DywBxHfMLst+sgSnUAwGOwL9pp2WwwMEIJpaYCy65bJA9ss9Ca4v+TxvPBW/UVjs5CK74/X+ejcl24WUm4+zE5Vb5yJyQO880Dwe3m33Cyk3Hx46XfqjTMQfW8cO/8+u1/mITMHO3xbVIJ/urbQeuOMf2/Dua/jgkm2c852s9Ddu6H+frIfjn5vcxe+uNcN97pFsdfNPXcecKsmbtWMeqsm4nuYbjPGncZa7jRGfBFfjTfKI76IL+JrXcwDciJb84BzX5z74ty3kq04w1/ZSYhf2cHJA04ecPIApgrWJE4e8DfO+gOj8htnGH0x+mL0tYZckDOy6PvWfM+0vTHaqimW7OAvTI6PX5h0W/SFax5+uZf8RiriW9Hhxx9Itf+BVDfh+/EvPJ4frT3MN8oXLZj/9u8RX/oTv4iv2/FdOd9gl+Nr/Dy1jL5g0RnfbXGlUC43m53KlvzmiZ2bZNeQWHGGP089Dn+e2jXR9+NfeB6aV2Lz6+oC363rXnz5DP119b0veia9k25sFnp40Vn46+o7p3vIZiG874v3fZXfeRjlzUIf/8Lzwkq7hwMIfMHDAf7whOfFdwi+ZKvmE2SnkNgsdHTxZM/0PMS3GfF1G75wtybD90rhLWO35vRc8WyLndPpxor/zDMeb8F3GrOtmvhsi9bx82wL10weKoaa+2ZOI7vk2aNZRPQVj2b5hMwZzlKCjUez7PpPD9klj3Pf8fxoFvfgm13y1o/C3Hkg39tefIc9WWjvix5j8iDwPbJosgnfo7+ejPiO9ycLuQhf8mAscu+MHw8vOKPc9926ju/KXPAin/vK33n48e+O0gdjGTMHj8fzr+uPsmdj4eRh3D4Yy2X42tx5wOe64b8tHJ/rhvjimgdc8wBWOFiTI1vzgNEXoy9GX3wo7Hh8KCxOHnDygJMH64wB5ODkAZer43J18E9jfKK88VD5RH+iPE4ecPKAkwcwVbAmcfKAkwecPODk4WJHEzk7jZnDpc7bOHnAX5isGuFjCfHBWLF9MBb+wiSu98X1vupjCUd5uXoF/kgU/kgU/kgU/khU89UucuJui3jutsDoewujL0ZfjL4Yfe0eyY1z32N3bhy7c+M4e6Zx880T/NEseOcB7zzg5AEnD/04ecDJA04ecPJw+/qR29eP3r5+9M515bluOHkIdvmD3f5gdxM/bwd7cPKAkwecPODk4RZOHnDygJMHnDz0dtT3dtYHOhvoeSvQdSvQ1RjoasTJw+7a8t215Vm1FVm1Fd7aCm9dRTY5L2Tb/cYZbtXErZpjvVWzv7+/ofIQOa8eunX1C3oevvXt4VvfFt36tqiRndeKGq/9kZ6+xmu+xmtHjLPqSGPV0caqo/6qYnJWF/urjxnn9WNN5DxOzxNN18l5+/rJ2zfg+eXtm1/evnmKnqdv1xjnnZoSfn51p+arOzVn7tSeaTbOs811Z5vrzjXXnWup+7qlHp6lLfWlLfXn6flNS4NxtjaUtd4qa71Vzs+K1saKNuO80NZ4oa3xYlvjxfbGS+1+eF5ub7rc3nSFnpXtt42z4/ZVen7bcZud1zruyLOzuYqf1Z0t1Z0t1+HZ1XKDnje7Wm92tdYYZ1tNV1stP+u62uu62+vB2dDd3tDTfqun41ZPR6M8Oxt7O/30bOrtaurtug3OO71d7Gzu7W4OdLcYZ09LoKc10NMa7GkL9rYFe9vh2dfbYZyBzj5ydpEzKM7uvmB3X193f18PPXv7+4wz1BcI9QdC/UF69oXoI7kHQn307B8Y6B8YCNFzgB0dzTenxHDJTmdn5xU80ALxskBLS0ss8Q2FQjVlu/BEC8THAqFQCPHF95uuFkB8dfVcfMKby3tBfBFfjS2A+GrsPJeHxjioh/givhpbAPHV2HlxCG8u7wLxRXw1toBm+O55jj9SgL0+t6KmLG3NQx7PQ3NOh7vfTOpMejPNNpbsec6xyLY+ZrrHAhriS5CNNmAgvtFaTI/6iO8ujL7RhwO3wD32+F47lxm5+cjkwRx9zZEVTDCm7jHitHOd51Yo+GZMFbOTeRlucVLk9km0mmOM7zfHfj9p4k/mPDstQrsPiS+scPrNH/I5sYIvqSPmypRXY1p8cM4kzw/XHKTUHpyzBvGNepIW7zf8WOLL2H3ggQem/3JKFPiK8Ojx0AAJ0CT8iYi7q6ZsxTwDR1Mdzih1j4y+5ubxdkaERsBqwgJjhq9gN2p8w0wewEe/gNyMOKkDEYdzX0K5x4M3IrR5344NvpDdWOOroMnfpiD6hsOXuW3FPMo+zn259dxL8xjga2I3lvjCyasybwP4muuAItCEzJvNYd69XnQ/Z6Ok4Rjg++S0KQ+oR3RzXzNVCn/K17KytDXPsX9nwDokLb66EUzFbCFjqoi48CvgKJkexY7cAmOA797MlW+/Phueh3JSIxyJHVUQzV3GP+H4zJfj6Fhn0ptp6lc33lLcmgAhOUIlsVrcLDAG+MZtbNjRuLcA4oszWo0tgPhq7LxxH1yHHCDii/hqbAHEV2PnDRmcxn0FxBfx1dgCiK/Gzhv3wXXIASK+iK/GFkB8NXbekMFp3FdAfBFfjS2A+GrsvHEfXIccYOzxDeGBFoijBWL8C5Nx1By7QgvE+gdS42nRL/5YvOmTgnj2iH25zQJaRt+y8vLkFfs8Lxz/zuyjz6UiwW6DKn76aIbvrVuNcz7I/87so3+/+PC23ft2ePf/6exiJDh+vLisJ23wbW9vX7Ul7/+86PvL2cUrP8q9dPkyO5FglxEVV3X0wDcja9/fzPf96ezi59/LLz3/jWAXCY4rLO7rzO34Hjx85P+9+sV3Zh/92RuFR46dNIHLLi9cuLhgbZ7nheO7cz93n4VRo1G0gKvx/f2uAs8Lx3+w5KA3/6AtuJcuX84pPPjQbz77vwuLpr+dn//54VE0FYp2nwVcje8bH+X+zXzfnA/yL1y4aMX3iz8Wz3g7/89mH1n5UW5lZeXmTwoLDxSNwMK+FI8nxScEVKcng0tSaByijl0eaZWc7ktP9ng8yenVQhomRsUCrsZ3bUb+1k/3/eMrh00En/7qzK9/l/uns4vnvJdXev6brq6uWNjGGV/GJGOxOj2dIg5rg3KSRHBj4Y6IZLgd3+yCg+e+LhUEl57/5t30vL+cXfzY/xYe9hX7/f6enp5Lly7Nnz9/6tSpGzduDAQCEY3bphIEMhQKERCNQAuSRjtzji/FiLUUXxGfbXrBrFhaQAN8/X4/I/iJNwu/v7joH1857M0/0NDQ4Pf7m5ubA4HAY489tmTJkqysrIkTJ27fvn245nHGl6KsBFVS13xQaAm+OGkYrguibud2fL35B/z0OHrs5N8vPvz+9ry6ujqW4/f7Ozo6KioqkpKSGhoaQqHQ1q1bFy5cGLUNjAZh8GU1DGYJpqa6skvEV9oiDilX4/v5F755a/PPnD3n9/srKyufTS2orKwU7La1tYVCoZycnKSkpBJ6pKamzpo1q7a2dliGM00I7Ak1KjlS6lgwLJWw0RAWcDW+oVDIW3CQEWzC98zZczdu3MjNzU2yHJMnTx5i0A7FBFj+wc8irTGJ9aWI2ayAGlYmE+UUdpsB8XUw7uhkux1fQXDRkWMs+l66fHnzzsJnUwsuX76yY8eOl156qR4cRUVFSUlJw7UVg5ZMalN8RpwlokiSH5xvNZd/yaNVZZXh6oHtIrSABvgygp9/P//Z1IKtn+6b80Hemu35V65UhkKhWOMbodGwmlssoAe+jOBnUwuWfZj75emvhPGGi6+MsjyoivApZGNCAwtog28oFKqqqurp6YFG3bFjx1NPPVUEjoyMjBFMHqBsTGtgAZ3wtZrz0KFDlm9uSdOnT7fWxJxxaQG98R2XLsFBRW4BxDdyW2FN11kA8XWdS1ChyC2A+EZuK6zpOgsgvq5zCSoUuQUQ38hthTVdZwEN8D1z5gxbkeP0d7hrdFznDFQoWgu4HV/bRTmme73DXqMTrbGwvtss4HZ8rf8WButzSHK4a3TslobZ5UXrMPP/o8laNbrkx1jIE1EfJiFivVtkykTURWSi3F4L8QUeioXfCXnhcIuoD0UIaRFWZIgun5fr3CLqAgxb46RO+H66d//6HbniLC0979LoG1t8WfSWdNrRJvbakULEdxAeHnjhlJ4yZYqdXUeaBycP72zZ+6tVeeI88eWpUcQXfH4LGu3yGCtyZ7wSOI3RQ55gmhTbyTTvRZJtSIofXC0ggUVpo7rID0/+SD00pu11ir6mWS+7PHnyZF5eXvQ2lEjItiJPJGgsi2pnfFT4wsqwT5hvIE5hFZs6zLvtLNGXrrinIyOyxi3AOuH7q1Xkl6DEedh3tL6+frgb5SEtHGCRRxI8uLFCc47ghRTAuoQWcBjUye3Hog/2IQ97ETLV6OvAn6xtN/cFKoEe+UDHzatO+J748tRh31FxVl69euvWreFulLdzqswjqeHtjDcFTgqKlKtMTE2kU+gZzmqJEjthkSxQWIbdjfOpsE74WicPra2tw94or3jcMcQSpghSdlRa0CQZdhUhTyBtV5Up4lBCskVYVfRXLkAXRJzpkvUwTv5qgK9pP4XYWlFVVTWSjfI2XlUgMBxMqqX4nBkwi7EjD9YBaZA00WQnxPzOUJRVLkxyTZemrvS+dDu+tvsp2H/dTp8+bfs/uYj/CUcgkZ+/xMs8tI1gZ7wdeRAgmKahGmpg7La3DeFqGCXdAOWVXpUu1GZ6w2rV3u34WjWGOfC2GptaRPlPOEoB/6Ylv0ZRlI1siJe8a8VBt4RlBSRDV8gTTBuf7Lx/IdMBX0Yiq53iUwIuVYOUkDHYdCEHAc2nfzrB8dXfgYk9AsQ3sf2v+ei1x9f0xQ43ymsOZHTq642v7Rc73CgfHQI619YbX50tj7rHwAKIbwyMiCLGygKI71hZHvuNgQVijK//WhGeaIH4WKC/vz/G+NaU7cITLRAfC4RCIcQX32+6WgDx1dVz8QlvLu8F8UV8NbYA4qux81weGuOgHuKL+GpsAcRXY+fFIby5vAvEF/HV2AKa4bvnOY/H88M1B20sHqbIOYSkrXnIM+nNNOcKNh1ZK+95LgZCrGIxZ0gL6Iivx/PcCvPADs6ZRHYa2JOtVM6Y6nlozmnjfyuIb0TvT8WAbvq31Njje+1cZuTWIXHuuamTPFP3qEY8/eYPPQ/9cBLiq5olcsNqWnOM8f3m2O8nTfzJnGenRWg++jG9wvKJv2Ke54drMuaY8KXTCbYvzMAd5LAQbkRfkW+aSJB3BT9MRaKJ57kVyuQhYypv4ZmXoXdsi9ApY1htLPFl7D7wwAPTfzklQhMYoCgTgF017JLMH+TkgeDF5xg0NvMJg9KW4OvxcM4IeaoEGeZXzPPICS4RLmYglFcDbqjDwTlrEN9R/jQYM3wFu8PBt4zAxGMbQZCkVXTUCQYNz+wLnxVfTnlNGZgKQ2nMBwRTGsUtRTL6kiLzxCbCdyZWG4YFxgZfyO6w8N1FAirDThADqQKf4OaPcgu+YFYA8BWwivgh5FuKJL70DeABcXoYLsEmkVtgDPA1sTs8fGtIACYf9BIdgVcZnU44RcHRxZdNdsmHg5yTiDcAJmJtgTHA98lpUx5Qj6jnvtQKFNw5DGLyfoX4wrTJZBHia5UgGpqLQMwGfcnPB5AZeVzBmpFYYAzw3Zu58u3XZ8PzUE5qJLrWlIFYa/Aqv58p+NKa8ttVWdqa58BXNxmYTeQpl8r3M8tsWwhndyeMGUjGVD4jJ6qK744Rjg6rRWuBMcA3WhVhfTlVICGN0CZwMeHLSs0TX96K5JOps8Kr5ZIiyEXIjqAQOs2VWpHAzA9xawKj76hZQDN8IcqYRgsgvvifBY0tgPhq7DyMvogv4quxBRBfjZ2H0RfxRXw1tgDiq7HzMPoivoivxhZAfDV2HkZfxBfx1dgCsce3v68XT7RAfCwQe3xj8JOtKAItELEFYvwLkxH3ixXRAjGwgH74flVy5u25e1Y+k1N85HgMDIAidLaATvheqLiwfkX2ogfzNq7ybnk/e8kj+R+86j179pzO9kfdR2QBPfCtra3bupaAu3apt/jI8cv0OH7sZNqb3sUT9n24Mos9nntElsDGGlrA7fi2t7fv2pa75JG8VbO9B/YfZuDCv76i4tRFhOztaTlNTU3Ru4A+1lg+zthegPoAYaUOLFIekSwe8K1Uj+rC9HRi0tbUBVseH8kji5WGxnht5A+ln7kJuSbHUBYcSu7wyt2Or6+oePGEfcun5diyyzgu+uLIb5/OXjxh34H9h6O2AqEvOXko60NGTV3AIoKI8CO5iIQrkzx4aWYFlsF+Yb5dmjImFAuFfOnp1aReOPl2cixNlAE7tBjNbLfje2D/4W0b9mxc5V30YN6q57NzsvZduHBRRN/8nM9SFxFwN/w2a+u67GHg60vxpPiIF4FzbewdhhVYpHpTvbKROmRWOLxgv0MIchTjWOAsUG0ShRLOIkdQogG+GZty/H5/RUXFtrScV6fkr5ievXNb7u7M/JUzybe3Le9nf/11qd/vz9hEInSUpqD0OkQhQh87UnwmNzkVqcCaGtFYx0WawjKBgh+gCLLCqsh3mVk6HbmDHFUvaSNDvhgO6JpUEvngM0WqBPsa4t0ve4xxSht8/fSorq7evSP/N7/MTXk8L/P3uVeuVLL84eFLHMB4kE4x7Es8J5xJ3ahcKRdqRQ4YacTTHAVxbRVvWyTVUhpQHa34UjVt5RjvHKE1h8gg0Gij9kGuuDCph2m+YVWCi47Pq2b4MlizMvOzMvMFuCwRffQlTrFxkGWCx+AzfA88yTwEPUgB4lFUUm0X3gUdFoE06DG9jDLyIjTlXMB+SV44ObQNleIB70rWBggGIkiS24a0Fr2BOjCbaxXn1wTGV/WQ4hbBFveG8B5gyyiTRezTVjqdSDGgtwiUtIUpYpWSbdi1ISecHD4M1kzeJ1AGrbwDiDTzQUemNoGDB53ELZm4+BI/mA/+6WpBQbopTJEZX4moFXpZZhEoi2iK3hhRIiGDQ6okrk21VNIkUjJfpmgpuLRqZbQHdWzeQ7KT+KQSFl/iBhkoqbGly1QfKWEpTFEYfM2tHD+NiSISTN6MaMbfWpwLWYvl8Lq8HMqReTQlBmpqAy5BUm2sFpiVUOuO/pUG+G5dl11TUwNnuta5b319fXQ3zoQHoYllJnGSAIZeqFecJbVIDbKKDFrEW5k4V+GUSsC3jSqMKG0lx1FOdXoyeKdSUeyaJKVSIOwbswxZVp2eYner2KoEtOfop92O75UrlRtXeTf81pubvb+qqsr61a2mpmZ//sE0Wqe8rDxCi0FGQBOYTb1MZxfJ6dWqmxyLSHtwAGZIJ7A0siIFL9ZcNFRVMgbh0AXMlm9L+Pag7ZXuWKkYDe9XrWOrBDDoaCfdjm8oFOrp6Tl29MRH73nXLfNmZeaXlYzSe/4AACAASURBVJWz6Hv58uW9WfvWLfNuesfrKypua2sbbWOhfLdZQAN8hcnOnj23Y3PO2qUkGKetJDRv/d2eUydPB4NBUQcTCWUBnfBljrlypTLrD/mf7siPfKqQUB5NqMHqh29CuQcHG94CiG94+2Cpqy2A+LraPahceAsgvuHtg6WutgDi62r3oHLhLYD4hrcPlrraAvrhixvlXQ1UfJXTCV/cKB9fNjToTQ98caO8BiiNhYpux3fUN8qrq1ng+qsI3aEIMBa2qOtaIhJkbkKuycGXykQkJOEquR3fUd0oT8mDfKgrC21hUNZYUcaAgHGzAd126C7MdDu+o7dR3hzuInQOxNdRhGOBcydqE9iLcxss0QDf0dkoTyIviJs2JIBZgVER5LDGTkIMFkV9ueyb9iPygQoSX5ISR3gVbbROrCxt8GUL1WO2UZ4wEg4NCKYky7LJgaFmolMs9AbUyyoOkpVObLZSJBaWkY5WM3ytuy3EJqLoNspDiJSNEJQzM9zgsxwkDRszhOEmBrbFUr47AJqOkkEdy5skUmcmXj3EF/qcswk+3c0f47wKbEbSrImBrMoi3EPmKFlt4tSLuddEv05UfCluMj4aGHBqTLEZQsKrwDwjLQmUKVoELh0lgzoYfW2Ma5+VsPhSfuWMlFmHs6mypFiOV1EyjQvBpqk9uARJVYJaEK4XtV1iX2mA76hslCdepx/kCsGSGlImi8Q2cdaIR231NjEB0Pg6qLIIJw9MgI1ktYlUJLHxHGr0bsd3lDbKC7NQhMX8luNHiimNvIQDC/JJltoaQun8+wkOkhFf4ZMoEm7HFzfKR+HMxKuqAb7CKbhRXpgCE8wCOuHLNMaN8siusIB++ArVMYEWQHyRAY0tgPhq7DxUHfFFBjS2AOKrsfNQdcQXGdDYAvrhixvlNcYt1qrrhC9ulI+197WXpwe+uFFee9BGZwBux9fdG+XVdTbMQ3Z5o+M7lBpyO77u3ygv15khvnF/Q7kdX1dvlFcX8hq+w+gbR4g1wNfFG+XtUIV5YD2wWDFsl8fa+OgOeXM0jyMM+nWlDb6u3CgPUeW+F3kiQde4p/tIBcIuBxmUkyTc3cFl4esQFtAMX5dtlAcECjuLPJLgqLJSc47YEkQKTHWFPEyEsQDiC43DeQIf8Hy7EKeLV6HNBKpAiMyjUMKg6ihWtgGCMDm0BRIVX+VjXJiJswk/40UhS/Aqdlc0j6AIg67BLMlyFIv4mqwc6WXC4ktZMn9N4myGwYlXYQa2qahWkNVSfLY3KmgFGzGROjCx62mAr3s3yhN0SESV7wLCIY+9vhQRhEXYNde2fUx7YhMZ1ejdjq+7N8ozUxMmxSGQVXbamwDntXlljL5RQSsrux1f3CgvfYUpiwU0wFfojBvlhSkwwSygE75MY9woj+wKC+iHr1AdE2gBxBcZ0NgCiK/GzkPVEV9kQGMLIL4aOw9VR3yRAY0toBO+V69e3fS299zZrzW2N6oeUwtog2/GhzmvPLJvyYSCRQ/t3/S2t7u7O6Z2QGFaWkADfI8Vn1g+be+SCQVpK73l5RVb12YvmVSw9PG8zwoPaWlyVDp2FnA1vo2NjeuWZf/6wfyVz+T4io5e5sfpUyXvLCD57y7Mrq6+PjxriFVgw2vu1Aqsl7RbiGOX5yQK84e0gKvx3fSOd/GEfamLsjm3yuvGVaT0/Ve9Qw7StgLia2sWvTJdje/2tJyVz5Aou+K/9h46UCTgPXb0xFvPZy+esG/5E3lb12UPz+KI7/Ds5qpWrsY386O9hbkHfEXFK6YTiD94zXus+MT617OWTCj4zeN5e7P2FeYeyPxo7/AM6oQvXXFuLMiVy3TBE7FIGV+oy7omotiR4oti8iCbSXl2eWzCgdvobfysAb5sd/HuHfmvTMlbPGHfK4/s27Imu66uzu/3xxxfSo9gk1wJgh0eTahut6DteRO7ea7IEwncRm+DZaRZ2uDr9/svXLj41hzvVyVnxFPkC3MPlJaev3Tp0vz586dOnbpx48ZAIBDh0AlpAlTWBiLFcmwqkQIZYi1NZJHt1jZRnyTU7s05QhIpMNWNcIzjvppO+FZWVq5d6q2srBT4njp5OhAIPPbYY0uWLMnKypo4ceL27dsj9JkNmdYsQRsVSsr5YYRYSxMBHXt6Jo/EXCkpkEIJojsN41w6f6WAyzZcCr4aFnA7vtk7CwSsVnzr6+srKiqSkpIaGhpCodDWrVsXLlwYoW8t4NltZJfkUHR5uJSMWqTIIhikhU5EIJdCMqlYFlstongjqQTPwVfDAq7G98TxL9ct825PyykrK/f7/RDfysrKkydOBYPBnJycpKSkEnqkpqbOmjWrtrY2Evfa0GLlRMCo1hbZlgmCIkK5YDrJllJHUg230Ut7RJFyNb6hUKiuru6T9Nx1y7zZOwvOl55fu9R74cLFgr2fr389u6KiIjc3N8lyTJ48ORIDqEAaLUim/LwHVSCJJFvUIgXqhbjCbfSR+GFEddyOLxvc+fPfbFmTvW6Zd+1S74bfeje94z19qiQUCu3YseOll16qB0dRUVFSUlIkJqEQ8jkm4BHmw495yimtr9wdU+6oJadXW8IrlAfmDVKcpD+ih81HMraEqaMHvqFQKBgMFn1x5KP3vJ/v+6Knp4c5aCT4JoyLx/NAtcHX1gmIr61ZEidTe3yfeuqpInBkZGREOHlIHB+P45Hqje+hQ4cs39ySpk+fPo4dhkODFtAbXzgSTCegBRDfBHT6+Bky4jt+fJmAI0F8E9Dp42fIiO/48WUCjkQ/fPGJ8gmIqdOQdcIXnyjv5MWEzdcDX3yifMICGn7gbsd39J4oryylgctmwhssjqUmDeH6oWFpAVfNGQJMXbAVTHLJnXM3SkNDMxv5zgJYibkJX8gU6Vjdju/oPVGeOEBYiZotErcN5Y9YlisakosRKmhmBepqWSgHC01paixhulDIl55eTaqEk28SwS/VJsqAeZWwr27Hd/SeKG+yFTEkcElYo8WpUNVQvRqOCiorqoQo8HUU41igdgWv1CZRKGEI0QDf0XmiPN2mA3g10UEujUNUYrZmG9b5AmGSxw5RjVhWZoOYaeoCamDXHSxXtocy19l2EbaI6U8DpaGg1NmWHIcuzOMwUOLRV4zF9GEh8k2feqwa7CvyOKINvmzHW3V19e4d+b/5ZW7K43mZv8+9ckVu28zYlHNg/2FuyqFfFSdAz6p73kAJs7DhFJqfnAyv2EeosX9NkEH6MWopXRI6WT7MBt0p+MI6fIucXRdheud4WTaBEFsJZYThSI+SI3JljIK/OcUlb8Lsw9soLZSxgDGCpK0SXLTTq2b4MoizMvOzMvPFFk6WGA6+PMBKzxiRU5ABjaramjpL1JNlMsVtLtGTKQkMqS/EwO6oy4WGUMUwXYQp4viSKkqPRE8zvuHk0HFRKfwziI3UJBiIIEnbMYI6NkpwAzq/Jja+zKQmsxPGzAetqNra5HHhf4iodKsl/ir1bbtTIhaLqhYp3LFCtXC900rJNuzakBNODu+UNZMxWihhO2zbMapNhE1AD+GTiC+1D/QWTCvGU209LHxFI+kpx+5M+PLgaUADgxn40m+VJrUmKU+yPb9SHzbkcHIUowC1ZE+0Bri0SjNkgDo27yG1I7srxJdZBdgRJFWLmQpUj4srUy2zV1g9X4r4MLXW572anC4ryhSoyiJzmCIBGpFrnrgK9Q2J4eTwTo1XoaapDbgESbWxWmBWQq1rd6UBvqP0RHlhdeAF8OEs/St+3Ey1tQikrD0wvYqHuZ/q9GQSAUH0VOuL7tToSzqX0KlNlC6ci6T+qjAyAKC+1R5qwK9OTwbKU1HsWsqnIpRLVSsxRqWOjRKGLo4vbsd39J4or/ic2Ic6wqCWpvlsjTtLtbXJ2Kr/iXB+8ObcB1S2mmnbHcWXC5EzTC4mTBcORYr+rI5QQ1Xf6MNBDswGbykR3Y3WSnf8doUxHt6vWsdWCT5e21e344tPlLd1G2YyC2iAr3AVPlFemAIT+uHLNMYnyiO7wgI6RV+hNCbQAswCiC+SoLEFEF+NnYeqI77IgMYWQHw1dh6qjvgiAxpbAPHV2Hmouk74Xr16ddPb3nNnv0a3oQWYBbTBN+PDnFce2bdkQsGih/Zvetvb3d2NLkQLaIDvseITy6ftXTKhIG2lt7y8Yuva7CWTCpY+nvdZ4aER+k9Ze8JXkYxQJm2urkRhEu3yYtFXQstwNb6NjY3rlpGnGa98JsdXdFQ8kvv0qZJ3FpD8dxdmV1dfH5YDCU3KqkVjt/ewhJkb2aFql2duh9dRWsDV+G56x7t4wr7URdkCXJjYuIqUvv+qN8oh0+qjC5OddLu84WiObYAFXI3v9rSclc+QKLviv/YeOlAk2D129MRbz2cvnrBv+RN5W9dlg+FEniQTB/v5AuGMH7yGuTa4BjMQXtu88pVqBfG1a2OXx9rgs+Qd3epqfDM/2luYe8BXVLxiOoH4g9e8x4pPrH89a8mEgt88nrc3a99InijPKJWbKriJxE4AtjvSQBLwCvcmwGzAJ0hysRJpWFidnu4jNcLIgQvChTBMMAtogC/bB797R/4rU/IWT9j3yiP7tqzJrqur8/v9I8GXjJ8h7AwIWP4PAePZpLmIuJBqSCgnTeSZWzE1HOUoPXBh+MosoA2+fr//woWLb83xflVyRvzCQ2HugdLS85cuXZo/f/7UqVM3btwYCASidi0hU5lJsAw2gRDhWfLL6TXv5qENKIYCVaCLzCMp5RcSYH+sV0Md2QYIwqS0gE74wkdyM4JPnTwdCAQee+yxJUuWZGVlTZw4cfv27XJwkackJxQlHgoFqEQSv+Cv6ke+2pesI/JJF1yuIY6gSrLkO0PUZgmplqkAL5kF3I5v9s4CEWut+NbX11dUVCQlJTU0NIRCoa1bty5cuHBYruUE8VcmRKWQXUW0x92GO1UWk28gbVNblovwP6xxjfNGrsb3xPEv1y3zbk/LKSsr9/v9EN/KysqTJ04Fg8GcnJykpKQSeqSmps6aNau2tnZopznt9oYk0UAM6Yl8jzuLqLItEctjry9FBGHxZiEJWDtl2D85OvTQx1MNV+MbCoXq6uo+Sc9dt8ybvbPgfOn5tUu9Fy5cLNj7+frXsysqKnJzc61P1Zw8eXIEHqJs8okmQEd8nSO4mSMmpNDog2ZxOYJLWqh0IYtgC4isvF3HQZd3KyIYUEJWcTu+zCnnz3+zZU32umXetUu9G37r3fSO9/SpklAohI/kTkho5aD1wDcUCgWDwaIvjnz0nvfzfV/09PSwESC+0pMJmdIGX1vvIL62ZkmcTO3xfeqpp4rAkZGRkZSUlDj+S/CR6o3voUOHrF/dpk+fnuBOTZzh641v4vgJR2prAcTX1iyYqYcFEF89/IRa2loA8bU1C2bqYQHEVw8/oZa2FtAP369Kzrw9d8/KZ3KKjxy3HRJmJo4FdML3QsWF9SuyFz2Yt3GVd8v72Useyf/gVe/Zs+cSx1s4UpMF9MC3trZu61oC7tql3uIjx9mmt+PHTqa9SXZrfrgyq6qqyjSwoS7Jwhm5YIbVtssbSo5YBjxkxaErKGt8xAq1ods51XAcj9KRXEzkJMe9+W7Ht729fde23CWP5K2a7T2w/7DYrSkSvqLi1EWE7O1pOU1NTRFb2s61dnlDCjSvSrNtEFElddk6Qcz8/rKV7ZxpOx6SKZa0kVX44hcCIlMylu9XZ9UjLHE7vr6iYrKjeBp5XrFA1pQo+uLIb58mG4+jeaaxnWvt8oa0Y0ROj6iSiq/pakg9bCrYjccuz2gamZKIr42lnbIO7D+8bcOejau8ix7MW/V8dk7WvgsXLgp883M+S11EwN3w26yt67Jjh6/hZPkhq8ZBmW9aE0za8YN/KMvKYEcdyOT1zJuGzDRB2ao6YI2yErEhqqx1is/hXQH04bEZ9sd1tFQjGbzQ8jxoUBvUcXL1cPLdHn0P7D+csSnH7/dXVFRsS8t5dUr+iunZO7fl7s7MXzmTfHvb8n7211+X+v3+KB/JDV3LDSfzDNdxo9NLfkGcIvChHhJX9pvswT451hP0uexTxRfWYQIAJ1YVuHKUTq6PlA0bsLHxOnzsFiUjG4tJTSLbUEV2TrZSs98DAJ3FJqkNvmzHW3V19e4d+b/5ZW7K43mZv8+9cqVS7ISLPb4CCQMfeg29Ql1gDpLcL0o+vAAuNgkgLMgDAGbpVMbQMEV8swapwqEytKNZym5nC758HOQVqm+5gKKJXIAvtCCUF7O0ZvgyWLMy87My8wW4LBFzfAE+7KcYaIYp3JhcyyIoR1BKgP5XIWV1mZ9V2eTKkKAWEOcLasMUsUr2j+CmAJG2AGyoJChnGtqPRb6NGJEAXz6jkQ1ZlZj+TVh81SBiNr6ggxtb+MWCC3A6xYFHHJCvMm6RwPuwY4E539pEKBimiAHk8Ah5o1MhxybGSrIdx2KnMjcA64HaREoSY41NInHxhY4zbCm9ZCkUReYScK2SJFoQ4fACtDD5UBUgIyxI8RZCoFWaKBLNiFynIAj6lA3Zh4jkEJYoY6FdyHpmmg1tiY6gEh9DDF4TF1/mIulVYmNhZHohXQ79T4t4M6UeueAFpIW4sKEBlMnvSAAlNj2QtaAGJnHORVIhqbTTLwSw95higKjHQgfNRdj9HkAMgFVFaIDv1nXZNTU1cKZrnfvW19dHeeOMmYEZ3JirggDBHM9+2pGUck+yVhQG2ig5vRpGJllguqFGoxRpYfQhK8o8RqWhC6jLHQZ1BaqSYociNopqOFSqF+hDGRjXikrnF0RnOEbjjSX1lp2n+EgjmyEqvfDxxOLV7fheuVK5cRXZHJ+bvb+qqsr61a2mpmZ//sE0Wqe8rDwWNoHfjGIkD8WMjgXcjm8oFOrp6Tl29MRH73nXLfNmZeaXlZWz6Hv58uW9WfvWLSM/++ArKm5ra4udiZS4FTuxKCnGFtAAXzHis2fP7dicw36pJG0loXnr7/acOnk6GAyKOjFKIL4xMuQoi9EJX2aKK1cqs/6Q/+mO/NhNFUbZxih+1CygH76jZgoUrJ8FEF/9fIYaCwsgvsIUmNDPAoivfj5DjYUFEF9hCkzoZwHEVz+focbCAvrhixvlhfMwoRO+uFEeeTVZQA98E2OjvN2/+uzyTC4c8lKuqaFrdcByHyLdtBxpSGmuquB2fBNpo7wdqnZ50QJE8BXMkotRWwAWrWYjru92fBNpo7wdqnZ50TpdwddhRXm0Ml1S3+34JtJGeTtUYR6YBCjB1Fi+K/JYG/kcegu+IvpC6QRIcs0PUcklpNqqoQG+CbNR3gwTB4qCBAv5vnPIJShnEEr8YDWYBhs+SVekSLdJhjb4soXq43qjPCBQhBqRRxIivtJic47YEkEKYF3KJQ+qysRXSDeRTOWrpAuNXJXQDF/rbguxiUj/jfIAJsGIzKNQwq9dKpUMTwq4bMPEqBySKx6ZQU21EmkICoU6bkskLL7ks5J7kTuFOIxFOIvrRJHFzUAOKRNhD+TTD2bRmUUC7z68SqwW7YJ14ijHrLypIigGSVMlxFd4ZSQJ8SNRIsr6/X7rVs3ofyTKLrhI4oBfBTaMP3MJuFYJkMIi3igPZHGbKVKMTFItxWc3AFbBLEbVC7YDNUHS6Maua66WW14TN/qy7yoiJlKvitBJnCk/Y+m3Gl6TFikXPIpDAggyPN+0B93asfH8eKMel23cCDAmvHb7zkknsLbDc+gVfC3qCwGqNKWRW2i16KEBvomzUZ56h3AjDvlljb2hWIEgjr3neG1eGb6NiEhFopzd2MwPYE0uzYKMmzLcji9ulHcTLa7Txe344kZ51yHjJoU0wFeYCzfKC1NggllAJ3yZxrhRHtkVFtAPX6E6JtACiC8yoLEFEF+NnYeqI77IgMYWQHw1dh6qjvgiAxpbQD98caO8xrjFWnWd8MWN8rH2vvby9MAXN8qPBDS4EIcs75ErfkYiFS5dMy8SGoncqNq6HV/cKC+fVhSVY0Flgu/orh9DfIG5YRI3yiO+kAdT2u3RFzfKS3zBJEAEU7s8FgudNsoLAGA1PqUgeewQPRir5i3ZMOLCtJAfj4QG+OJG+fRqdePkCDbKA6YYqsZEmAKYnAyvSK/kkI9NpAvfOdcQWZgGPYx+Uht8caM830bKoSDMcJZIntibRgpgCYjQ8JubypzaSC3jPYI+zO8n+RkhK8chpRm+uFFe3jYwUUk/3SnOZvZIRci5gZWpmqCfFluujMmDvG8Bm8N0HKCVXSQsvjJYSWMQLzA/W/whiiwsAEdToDgoIF+JWsonsOybpJQmrEj0a9Q0mCWdWDThwszKO1Q0VVM7l1dOg4LNYZprEZfXxMXXxuTSZ5ZCUWQuAdcqJqIF8SO8AC1MLrYpgQ15bVJtBBvloRgZyxUVgcKOg4LKwjQXH5fXxMWXhS/pP+IC8RlLL+T9feJDXpMWKRe8CDqRxixeyxwpoTjlqxGNqLIVVClWG+UlVVBd0zsM4AtrKYOCBTAtO4hDSgN8caM84YAQwg8T4DybT1vMMFHqeCXyajtBUuM8uJI9K4+Wh73AdByglV24HV/cKC99hSmLBdyOL26Ut7gMM6QFNMBXKIsb5YUpMMEsoBO+TGPcKI/sCgvoh69QHRNoAcQXGdDYAoivxs5D1RFfZEBjCyC+GjsPVUd8kQGNLaAfvrhRXmPcYq26TvjiRvlYe197eXrgOwob5bX3HA4gFAq5Hd9xslE+Itbs1m3Z5UUkDFRiK874ejReANaU8Sz9Xt2OL26UH/kuMmPBpFxmSTFFfAfBMWXKlNF4847RRvkohhIRBhFVsou0dnlRKMdB9aSkp5veBxGpFG1X8a7v9ugrnqpZUVGxLS3n1Sn5K6Zn79yWuzszf+XM7CWP5G95P/vrr0ujf6qmHRcyz0jJhd5q6JL5ygpudVE5/7SWlcVKcbb9wlhBzuvBx10KDKRK9m2AcJMcy+88kKpgGBBf0gs/hBhDHyYn7A9B2KsmxjCKCW3wHYON8nxbgkEl96uCAcVHQOHwkwhg7w11JWnEpQE+QVJ4XOSJBN15ke4jNcLIgaSKaiJhNOZ6O6hNuhRyaP/2PwQBxUI1xSBGL6EZvvHcKC8IU0ix+AdGMegnJR9eEAkcXkM048giGj730tyKvacc5cAeAF5qkuProLaqD7mSUmWZWTE4VCh4VNKILzCr6hPFuaIIAMBamtxFyvkhJcBKsAavSTEUfTiqJIOhEXt5e/5qKweqTPpgEEKVlE9/McMw6WNpwIbnOBwwilFLJiy+po3h1MDEXyyemTwHQh1kgTYCXqWe5AER5KuTB4sE4VylCcuVKrFrAxbSiaMcs/JqRV4qO6MybdTmNQ39ZAOSIa5U6UbdeL0kLr4m5ygusX6LEt4yNwPXqiNFC1UyeyfIuAwdDWTxbEWKkUmqjeR3Hlg36SlGmHVU26SOqoq4MtXiisfnVQN8R22jPPGb5Ii4Qczt6IUshDVpEW+m1CMXvIC0EBfmSAnFEZxT+K/h0YjKRTDQuUox/Z0Hqh3Xz1FtWADjLSVT4MsGB5WWwxl1ht2O7yhvlDf8yKaO/PNTfGMS94wAiMQjDFrSKDm9GvgRFJhuqIkSow8pAdxMY852UAm2gKzIO14cdMtHB5EIxsbp4/jC8ShqR4ovFGAZzugS7HZ8caP86Ppfc+ka4CssjBvlhSkwwSygE75M47hslDd9biItLrWAfvi61JCo1lhYAPEdC6tjnzGyAOIbI0OimLGwAOI7FlbHPmNkAcQ3RoZEMWNhAcR3LKyOfcbIAvrhixvlY+T68SBGJ3xxo/x4IC6mY9ADX9woH1Onjx9hbsfX/RvlrSw4LLqxVowwh67Wkct0ImyVENXcjq/7N8qrmFDUwPIuX7pYDKlWxKtYWMDt+Lp/o7ziBVwroZhj1C80wHcsnijP1mAbO8hEMAWzApHHgBW70u3W1nInDtk8GSyYJ40MYeb3BI3wkejGOx6/r9rgG9eN8hCY6vSodqUztqwzVcg1EK9Wh5UovVQOqK7uwAgNodv4xZaPTDN847RRngAj4is1lTlH7LGg/Kl1xdYKCXGkzSG/ShdclMjkDjQ2f0AN7OqA6uMpifgCbxLIGCcUSrmbRplLGB/bxgYc2QYIokmCIt+lw9KiJU1Q4szNJb8SQlBHFoPeHIWDOuM0mbD4yp3e0rOEE1MY4wTackNaArakIJ4ShZE359TyV7ULWzm2mVyF8f2auPgKtKSDATIi00Dapjar4lhAizlZjrWsBUwJX4p8I4E6ICk0DP8OktXGY0oDfMdgo/ywd6VXpyeD8E1g4xQSkPkElsRsYze5DY/V6cnJyfBjQKlD5HCZylc3G+HjEVh1TG7Hd2w2ylPujJkqxGLoXemULjHHlW2V7fUKgHy6Lf0CqSe5Cr7qr0OJDqDGgm4pcrym3I7vGG2UH6/uHm/j0gBfYfI4bpQXfWLC1RbQCV9myLhslHe1z1A5YQH98BWqYwItgPgiAxpbAPHV2HmoeszwnTFjRlNTExoULRBPC8QM38WLF1dUVMRTdewrwS3Q1NT0s5/9TNxkZwnwrDYj6bFmWXNWrlx54sSJBDcoDj+eFqisrCT/nlQPK5kR4fvZZ5+tX78+ntpjXwlugU8//fQHP/iBSq8NqzZZVsZbW1tnzJiR4AbF4cfTAosWLfqrv/qr2OA7ODiYlpZWWFgYzwFgXwlrgZKSkkmTJpnY9XhsQq1NljX6Dg4Otra2zpw5s6enJ2FtigOPmwXmzp37F3/xF7HEd3Bw8NSpU2+88UbcxoAdJaYFNm/e/E//9E9WdkcUfVlI3rJly+bNmxPTrDjqOFigsLDw4YcftmX3P/7jP6zzgkgnD6Kl1+t97bXX8L8YcfBlQnXR1ta2fv36CRMm2LJrG3oHBwejxndwcLC8vHzmzJnbtm2rr69PCDQ9SQAAAPxJREFUKBPjYEfDAk1NTTk5OVOnTv2Hf/gHJ3b/5V/+RQRQmBgOvoODg/39/V6vd+bMmXPnzt22bVsmHmiBYVlg0aJFP/vZz370ox/9yZ/8iRO73/3udyGyMD1MfIWIqqqq73//+w/ggRYYlgWsN3etEAvYrImR4sskfu9737P2ijlogRFaIEzcZeDFBt/BwcEFCxaMUFdsjhaAFnjiiSes4daUEzN8hVyMxNAHmI7WAn/7t38rWBoyEXt8h+wSK6AFYmUBxDdWlkQ5Y2ABxHcMjI5dxsoCiG+sLIlyxsACiO8YGB27jJUFEN9YWRLljIEFEN8xMDp2GSsL/H9mc/v0Jt3jfgAAAABJRU5ErkJggg==;" vertex="1" parent="1">
          <mxGeometry x="510" y="210" width="234" height="464" as="geometry" />
        </mxCell>
        <mxCell id="1T_SigNr_V3jTHDhT6Bn-6" value="" style="shape=image;verticalLabelPosition=bottom;labelBackgroundColor=default;verticalAlign=top;aspect=fixed;imageAspect=0;image=data:image/png,iVBORw0KGgoAAAANSUhEUgAAAMwAAADhCAIAAAALcs1NAAAZBElEQVR4Ae2dfWwU1drAJ8QY/vCPmxD/0X+wIYZEc60milEMpAYlRBsRjAqoFWyB90Xe19ZQTAq+UgzqFUiBvFJKuVAol49Cb+8rXrCAgLIWrBRoS2m3pd1uu9t2t9v9nNmPtvvmnPk689GyLTPdnZ1n8iR75syZMzvP/PZ5zpx5nlkqDgtoQGcNUDr3D92DBuIAGUCguwYAMt1VDAcAyIAB3TUAkOmuYjgAQAYM6K4BgEx3FcMBADJgQHcNAGS6qxgOAJABA7prACDTXcVwgAeCzOl0VlVVFRYW5ufnL1u2LAuW9NLAsmXL8vFy9OhRm8026V/LJCGzWq2FhYXLli3bvXu3xWKpr6+329qD3l5eHEGvUpxBLxafMyiVkK9vDOkP+ZUyEPLLhfa76ICquOmAUgbpoIowQY+aDDEhVfEyITWhvQztYyVM+wjxh2mFMIGwugTDDCcRJogkHIyEQ2MIHQlLJUJHIowg0QgjlXA0Qkg0HOUkEo1KxOl01OOltLQ0JycnLy/v5s2bk0BtMpAdPHgwNzfXYrH4Pd0um6Wn6VT37X903z6G5Xh343F74wl740l700l7U5W9qaqn6VRP86me5tNYqnvuVPfe+SeSlhpWHC3/ctz9l+Pu/2H50dH6o7P1DJafnG0/Odv+3dd2ts96ts96DsvPfe0/97fXYjnf33G+v+PCQMfFgXsXB+79guXSQOclV+dlLFdcXVdcXb+6un51235z265isbi7LYPdv2OpG7TXDdqvDdqveezXPT1/YKn39NYP9f6J5caQ48aQo2HI0eB13PQ6b3qdt5D03cbS6O1r9PU3YWn29Tf7Bpp9A3eQuFr8rrtYWv3uVr+7ze9uC7itgUFrYLAdS0fQcw9LZ3CoMzjUFRzqCg3ZQl5byNuNxR7y2WlfD+3rpf29tN9B+x2M38kEnEygD0s/E+wPBweQhFzhkDscckdCgxF6MEJ7sAxFmKEo4+Uk7IuGfbGwPxbxxyIBLMFYNDgcDWGhh2P0cIwZiYVHhsMjwxEs0ZGR6MhwLBaLtrS0fPbZZ8XFxZFIZEKoTQyyQCBQWFh44MABhvb1d1y03Tpqu3W0+9Y/ALL0hmx0JDY6EhtBrEVra2vXrVsXCAQS52xikOXn51++fNk70GZvPGm7VQmQeftMYclYyEZHhkdHkU1raWlZt25d4vZsApCVlZUdOXLEO9Bmu3nEdrMSIDOPuyQhGx0dGRkZrq2tzcvLS9CYJQqZ1WrNzc1lQj574wmAzGxjMhlko6MjsVisqKjoscce+/LLL++LWqKQ5efn19fX97Wfx4SBJUvDgX8sStM0zTC0cuCvhGx0dOTevXsLFy6cNm3a7Nmzx+csIchsNltOTo5/sLOr4TBAlpZ3l7FoiKbpQCAQDAbDDC27u1RCFo8jr7lhw4YZM2ZQFPWXv/xlHM4SguzgwYMHDhzov3cJIEvLKYxYNBQKhTo7O4uLi0tLS/1+P+ZMnMJQhWx0dPTMmTPPP/88hZeZM2eOxVlCkBUWFlosFtutSoAs/SCLRoIsYRs3bnz99deXLFmyb98+r9fLMPQwmjBD82SqkMXj8Y62WwsWLGAhoyjqrbfeUuUsIcjy8vKsVmtXQ8W4kG1ejY+2+oA4GVu35VlU9/LaOpiMTdHJWM6Gbdy4cenSpSUlJcXFxe+8805ZWZnH40Hjs3EhG3BYScgoSh0n9VoZj9nZ2T6fDyBLuxl/0YYtXbr00KFDfX19LS0txcXF7733XllZmdvtZhhmeDgyliXzDrRmZWUJloyiqIULF8rgiccTS4nLysqKxWIAWXpBFqRpurOzk7Vhhw4dam5uLioqKikpaWxs3Lp167Jly/bv3+9yuVh7hjlDk7GjoyOjoyPx+Gg8HldCNn369GRD9ve3COoXn+SfXVatFKvXVrDPLretxXVrj3yDCnP/ux6eXWr67JK9lywuLmZtWHNzc0FBQXZ29rvvvrtr166Ghoavv/76o48+OnnyJE3TkTCTIGSqHjMhd6mNJZMQRlEUB9lJgjCWtbUVPzpbOcg4+gAyrR+QMwwdDAbLy8srKiqampoKCgpWrFhRXl6+ffv2999/f9euXfX19eXl5bW1tQzDRCJhY0DG3wT8Zx0ZhXFh3XzE0XPbL6AojOtbn0Nrq7aJkM39rz8gCkOfKAyapkOhkEDYqVOnaJru6enZsWPH8uXLd+/e3dPTg8wYR1iMfXY5vrtMniX7eAsK9ZFYssUn2VCfQ4s5W0V+zF3/B2/J1h6BUB9dQn3YmYumpqb8/PwVK1awhDEMmvG32+07duz44IMP9uzZY7fbGYYZGUZRGKkA2e7vXkKkzPtqjxBPduJjzA4LGYon27JGhOnZ7y/UXGNNF7W4Sh5PJozJADJdIBPGZMuXLz99+jRN02EmNByjo1E6zNA2m23nzp2ffPJJqo3Jjh3PYQl68wQbtPjzmnm4Ys0BWdDiVha1NYdqenlLNn/rfjZo8frWt7dfFMdkYMl0ClrEQ7LgsWPHRMKiXNBiLMqEGbqrq+vYsWNXrlxhGDoaZWcx7n93qbe7PNZ9No+lSrRW7EwsjozlxmTiNmTJelv2fz9XrMKl5wCyqYmMDTPoeSXDMMiGoeBYMTI2FmPCDMM+L49G2VF/SrhLNvyam/fnwPn4KyH8WgrZs9+fF8OvySkMauU2HH4N7rI75NU9/DoSpsNhWjX8eng4EsGpAOM8VlLOk+lvyVCYP8T4p2GMPx71p5AlA8gAMvmcv4aTsZCtlLbZSmDJICVO95Q4gAwgA8gguddl+OResGRgycCSgSUDSya/3VRbTyzUB+4u4e4SzcErCVKpUjYCyEz+wpXUH5N9tYbKPgGJJCmaSJLQW31SDTLy2WX2CfTqKIAM7i6V3lFRk6i7LH+Dop757hyfEvfzmtVbfgDI/DDwVxClUpEYZJtXU898d1b57FK0ZEQgBh8Z21Ijxviv/Jp9CV7VKj74Z9U38BI8neLJJvQSvJRxl+VvUC/lWVSiMATI9v7t4/+oa0ZvWjy5kppfXIZes3hoMTV33XXyTYsVb1Mo/BretDgVoT6xiLHGZOVvUDmb1UJ9BMiI13keXEyt3IogQ4kki6tIyC6sn0+9fQogQ2/01D2eLB0hI3NJWMhYY4bc4+Iq4Z2xFW9jf7nkVCu8MzYl3hmbMu7y9v3GZH9/i3qZc5e9giXD+b3oxcQVi6m5n15HnPEvJq5YQqF8OEgk0SWRxJhjstvHLP/zzDh3l2jUj9KWuDEZ5y4FyC6smy+D7OL6+QBZarz9OnUsGX6sVP4mf2dIUS+vqZPMk+3928vcxjUr+TEZn62E83vxK9Y5X4kzfi+CuwR3Ca9YN9/br5ObQQ4PyOEBOfJUyolWlSplo8QmYwEygAwgg7+9mezf3qTYwF9lxh/+WwkekCu9o6IG3CXEk2FjlgrvwoAM8jT9lzhwl5BIAokkkEgC8WSKAZhKBYzJYEwGYzL45159/7kXxmQwJoMxGYzJYEymMgRTVMGYDMZkMCaDMRmMyfCLiXvQK9ZPs0GLvXf+iYT/2xsUGSt/xTokkkCMP/zRfd9t0/7R/Th/4AWhPr+5bVexWNzdlsHu37HUDdrrBu3XBu3XPPbrnp4/sNR7euuHev/EcmPIcQPGZDAmgzEZjMlgTOZu9cMLVxSzFpIKmMIAdwnuEtwluEtwl+AuJa5RbQXcJbjLqXCXkUikp+Wnnpafeu/+G8vZ3tazva3nelvPOVrPOdrOOdp+xlLraKt1tJ1HYj3vsF5wWC84rRed7Red7b9w0vFLX8clLJf7OpD0d1zpvyfIr/2dv/Z3/oblan8XkoEuC5bfB7p+H+iqG7DVuTi55uq+5uq+7u7+w20XpN5tr3fb/8Ryw93DyWBvw2DvTSy3Bh23PJzc9jhuexyNHkfjkKNpyMlK81Bf81DfHSwtQ/2cePvvYmn19rd6B9oE8bmsWNp9rnafu93n7mDF776HpdM/2Okf7OLE0+X32LB0B4bshPQEhnqCQ71Bb2/Q6+DE5wj5nCFfX8jfF/L3EzIQ8g+E/K5QwEUH3EiCbjo4SAcHmaCHCXmY0JAg4ZCXE9oXRuIPM4IEwuFAJBzEEoqEkUTDdDRCRyMMlnA0Go5xEonFIrFYFEssFot5XZ1ZWVliOjcuKc1UoilxPp/vDiygAakG3G63lpBFo9GuhgoQ0ACpgWg0CpDBr0JfDQBk+uqX/EGbtgyQAWS6awAg013FpjVgwokDZACZ7hoAyHRXsfCDNm0BIAPIdNeAwSA79qFk3jivTHcF3c/87Pz2JYp6adVVmB0cWwMGhOzDL7gLf2bVPIpKAmdli4Cq+/32JD9+I0PWUHF181+TcL0BsrGNlip8yYes7foB1W+mWoncpWDJRMiQz5q3+Qvkuai/fnsG/YwQf/wyb/NOvje25U7R7Uo9nVhPLTrGqVLS+Tx0CH5B34TrkO+/Qq2Hiq6yRfw+yTC9E2RCOBetCkmG7MYv/ztv7vOrPshO8HxkkPGr6EoLeHU1sFdaoOSLPIriOWNbClcar/LU8r3xjHL8yTtHxIhooq185/i4fG+ilUVunUO/68yqb5M/jpT4sgQ1/yDNkgkZS9gTTzyx+M2sBM+B5ACbB/biSVjpIi8q+yNGhoRlTtqygbUxeBPaS+CyoqvhizyODLVdVCEbqwd5/VRf4wR1q1+zpEEmEDZhyATHI5gHmc8SkeIvp4idxPAgtQqbCI8mHAHfVSh2GcuSjdsDJVpT/lsl24vpR5Ws5+RARhI2Ych4f0SciZSDCUOGDZhyL8mYTBjVYeOnasnG7IGlCnltKim3w8mmOQmQyQjTHjLBOAnKFW2PFEfWXbLEKPeaKGRj9iCaLjRQU/mRiA2IX076VCYBsiXZWU9Il0mOyQSGZO6SHfiLxgaZEH46DUFG3CKQ9wR42C7utfPbD9kpVjUuxdGbZCsaMip7KFvEH11yZ5CWPKmeVBIgO3Fg01cbV5Ly0/GvVb+cslIy8B8bMv4GkxtcCdeYn3FgJzvQVuHGEB+LRVC2lwQjSTNkk2Rb1XpAFo5fRATTx1ApL5OsJgmQyb7B1K7KmDDRlZ5aPUsUC5BJ1JHEK5HGhwbIADLdNWA2yHRXaBobpEmfGkAG2OmuAYBMdxVP2gCkzY4AGUCmuwYAMt1VnDYGadInApABZLprACDTXcWTNgBpsyNABpDprgHtIYvCAhpQaEDjt/oo+ocK0IDWr46aSo3eu3evsrLym2++KSkpaWpqmspDw7EmpAGjWrLTp09nZmZm4KWoqIim6QmdNjSeSg0YErJLly6xeGVkZKxfvx4Im0piJnEsQ0KWnZ3NQrZ69WqPx0Oe9t27d8lVKKeCBowHmdPpFMzYpUuXSCWWlJRs2bKFrBmnXJvPB6ziz/xaoW373gUUtWBvu1ABhQfTgPEgu3HjhgDZU089dfXqVVYDJSUlGRkZn3/+eYIKQZAJZKEVwCpBzU24mfEg8/v9Tz75JMlZXV0dS1hGRsa+ffsS1IEEsqh0LcEuoFliGjAeZE1NTfPnzxcgy8jImDVrFrs6a9asGzduJHbiMqxq80VLhtwladaw++R8K1mf4IGgmcEga2pqKigo2LNnzyuvvEJyxpb37NmT+BUlbRdZjkYlkKFN4FYTV6taSyNBxhJ2+PBhp9NZWVk5d+5cgbMXXnjh+PHjaic4Zh2mRxj7kxaKgIwoch1JeRyzd9hAaMAwkJGE1dTUfPrppxaLxeVy1dXVTW66X0oLWuNBI8iSNkJ6IzYSaoTieBowBmQkYdXV1Sxh451WAttk/BDwEEVZI4AsAcUqmxgAMpKww4cPFxQUWCwW5ZlMtEbGD0GWepHrn7xDmOghzdo+1SFTEjY556i8vhLIEFdq7jKKb0J5P8quCZNryj6hRlUDKQ2Z1WotKChgR/qsDdOKsCjLizDuJ24glcMuhCO/AGGqGI1fmdKQHT58uLS01Ol0ak7Y+EqBrdpqIKUhq6mpKSoq+uGHHwoKCjS0YdpqEHq7rwZSGjKfz1dTU7N//36IrbjvhUzlBikNWSorDr5b4hoAyBLXFbScpAYAskkqDnZLXAMAWeK6gpaT1ABANknFwW6Ja8DAkEFKXOKXObktjQoZpMQll5sJHd2QkEFK3ISucdIbGxIySIlLOjcT+gLGg0ynlDghBmNC6lM0JsM5iJAhRTtTVRgPMl1S4nS55gAZp1bjQaZPSpwelAFkhoVMn5Q4ATKWjFoUxIgWHK+I6tiFCCcTK8lgNBIssiz0b8aCwSwZGyireUocceVZdrhYWIzJggXkGv/2gva9+XyRjLElwSLLxBHMVzQSZGQottYpccK4X0oGWhOzLqXbRFiIuH+yCVkWG5uwZBjISMJ0SIkTLr2MDIIfNmRbjPfH4f+cG1VlVNaVcAjTFYwBGUmYTilx/JWXkTEWZDjunx+hEY3I3cky370pPw0AGUmYfilx/NWXkUHwQ1oychiGc1J4A0fuTpb57k35meqQKQnTKthfyolw8WVkjAEZ2QobNYBM0KCykNKQTWVKHD++J/EhbRdWHYEcasdPa8iq1YBTat5ENSkNGaTEpQeJKQ0ZpMQBZHFyycrK0lwjkBKnuUqT0mFKW7KkaAQOqrkGADLNVQodyjUAkMk1AuuaawAg01yl0KFcAwCZXCOwrrkGDAwZpMRpToNOHRoVMkiJ0wkIPbo1JGSQEqcHCvr1aUjIICVOPyD06Nl4kGmbEseHhPG6JZ5181Xw+aAaMB5kWqbE8ZkiohYBMlEXmpWMB5mmKXF7Zf/VhUKq+UgdzXRs+o6MB5nGKXEo5JDAioRMDBnjg80QLmzAWQI5c5K3uMvdsqnAMxhkbKCstilxkhBZArJxkt4ELjFx6jlzZLcsmKb9K2AjQUaGYmuTEsfZF4IHAjLS2BDVUmDQmlrOHKonrRfRAdmvOcqGgYwkTPOUOBEVKQyIPn7hfaoUMtkgTtid3JPvgYTOHHRxZ2kMyEjC9EmJ49ERKGGzKnkuxGr5fxESW8iUAMI4moon1ZM1AGQkYTqmxLGY7eXvLqWUECjxOHLqJLaQkMlaqereNJWpDpmSMP1S4jgXx/pFkhK8YWLukr215PdB96TCqzNMw5ZwoikNme4pcbw35NWhoIkdTuXXEvaKpI+0XbgPoh072cGPxyR3AfzhzPKZ0pBBSlx6YJjSkEFKHEBGZsTFISUuPYDQ4yxS2pLpccLQ59RrACCbep2b7ogAmeku+dSfMEA29To33REBMtNd8qk/YQNDBilxU4/L5I5oVMggJW5y1zspexkSMkiJSworkz6oISGDlLhJX++k7Gg8yLRKiWMfbgsPsPkn2LLn34lcFPkuaB0t8sfvifSVlm2MB5lGKXGYBAKD2r3sv9jIiUngqkt3kQaiJbB7+jcxHmTapMRJwSCu85gbiDayonQXSbSPrKVJV40HmUYpcWMZHI4YHFmGfJ4Yd4gJEeoJbyhChkrCQphJk8LFn7bBIGMDZTVJiWOBkDEkRBpyhCCmxCYkmCJZsqh/sGQ8W8KnkSAjQ7EfPCUOqYC3PCJHbJVohGQsiRuIP7sh2ihCZQVFm7lgGMhIwjRJiROvOusCOX6kxJBWivCUUpco3QUsmahZrmQMyEjCtEqJk6hC5EQs4QbEKuksx9gZVQNkEuWgFQNARhKmYUqcVBUCQQRVqAWxShSl+0o3AGRS7RgAMiVh2qTEte9dQIyvECbc3KmUGBKyMbPcpLsAZMaCTM+UOOkISxz5S4mRQibeKeBBGU+pdBeAzFiQQUqc4noZsiKlx2SQEmdIphRfOqUhg3+JU1wvQ1akNGSG1Ch8aYUGADKFSqBCaw0AZFprFPpTaEAzyJYuXdrf36/oHyrMroFIJKIZZHl5eS0tLWbXKJy/QgMej2fBAiICCk8xSl6jglcoZZWyprCw0GKxKA4BFWbXQEdHh2aQHT16tLS01OwahfNXaKC6ujozM1OIW2ELSiOVkCWz2Ww5OTmKQ0CF2TWwYcOGGTNmaANZPB7ftGnT5cuXza5UOH9CAy0tLUpfSVEqZkulSmnu4vG41WrNzc0lDgFFs2ugqKjo0UcflZmxB4IsHo9XVlbCyMzsZPHnX11dPWfOHCVhDwoZ6zTPnDnDHwg+TaoBi8Xy2muvTZs2TQnZ7NmzlZ4wUXfJ7hmJRIqLi3fv3h0MBk2qYNOfdnV19auvvvrQQw8pCVM1Y/F4fGKQsahVVVXl5OTAfYDZeKuvr8/NzZ0zZ46qDaMoaubMmUozNknI4vG40+nctGlTdnb2tm3bjh8/Xg9L+mqgurp6+/btixYtysrKeuSRR1QNGFupStjkIWO7CwQCZ8+effrpp7NgSV8NZGZmPv744w8//PA4eI3lKFlOJuMulcBOnz59/G8AW9NbA0okyBptIIvH4y+++GJ66xHOTlUDY43DdIGM7XT+/PmqXwUq008DmZmZJEnjlDWzZOMcAzaZXAMAmckBmIrTB8imQssmPwZAZnIApuL0AbKp0LLJjwGQmRyAqTh9gGwqtGzyY/w/3vJLQ2FJxxUAAAAASUVORK5CYII=;" vertex="1" parent="1">
          <mxGeometry x="525" y="750" width="204" height="225" as="geometry" />
        </mxCell>
        <mxCell id="1T_SigNr_V3jTHDhT6Bn-7" value="" style="shape=image;verticalLabelPosition=bottom;labelBackgroundColor=default;verticalAlign=top;aspect=fixed;imageAspect=0;image=data:image/png,iVBORw0KGgoAAAANSUhEUgAAAMwAAAEACAIAAABwHQ7eAAAgAElEQVR4Ae2deWwUV5rAS2hGm/1jRpFGMxuN5g/CaqRZ7SijmRWJQhhwnHiDrMQKIbOZcIUYMJchibPDscMxieMknA6QBIPBYxxsbOzmSDDYaTBHgmPAYHzRwW3ju9v32V19YXv13qvj1WG72+5yV9lf6cmufvWu+r5ff9/XVe9VMUOwgQQ0lgCjcfvQPEhgCCADCDSXAECmuYihA4AMGNBcAgCZ5iKGDgAyYEBzCQBkmosYOgDIgAHNJQCQaS5i6AAgAwY0lwBAprmIoYNxQWa323NycjZt2hQXF7dw4cJw2CaXBBYuXBiHt4yMjPr6+jF/W8YImdVq3bRp08KFCw8ePFhYWFhcXNxYX+3oaeaTzdGjTHZHD069doc0OXtbhkmtzj5lanP2yRPb1872q6YOtl+ZOlmHSnI5utRSt8upmnpcTrXE9rjYXpLcbC+V+tysIrn63erJ4XZxyeNyoOR2eNzOYRLrcUuTh/V4XELyelzS5PZ6qOR1e7nk8XolyW63FePt8OHDy5Yti4mJuXfv3hhQGwtkqampK1euLCws7OtqaK8vbKowNZSdbCjLxCmroTyrsfxUY3l2Y0V2Y0VOY0VOU4WpqdLUVHkapzNN98803z+LkuUcSTbL17Yfv7b9+A1O520Pztsf5OJ0wV51wV51saUqr8Wa12LNx+nblupvW6vNOF1qrbnUWnO5raag7WFB28MrOF1tq73aXnsNp+vtddfb675rr/uuo/77jvobOBV2NBR2NvyAU1FnY1Fn483Oxptdjbe6mm7jVNzVXNzdfAenu922u922km5bSY/tXo/9Xo+9FKWWMpzKe1rKe1srcKrsba3sbavsbbuPUrulr/1HnB70dTzo66jq66jq77D2d1r7O6txqnF0PcSp1tFd6+iuc3TXObvrnT31zp4GnBqdvY1sbxPb28z2NbN9NrbP5uqzu/rtrv4WnFpdjla3ow0lZ7vb2eF2dnicnR6208N24dTtcXV7XT1ccvd63b0+d5/P0+fz9OPk8Hkdj7xOnNhHPvaRzzXgcw88cg888uDkHRjwDjzy+Xxei8Xy3nvvxcfHezyegFALDLL+/v5NmzalpKS42N7WmoL60oz60oyG0pMA2eSGbHDANzjgG0Csec1mc2xsbH9/v/+cBQZZXFzctWvXetqqGsuz60vTAbKelilhyQhkgwOPBgeRTbNYLLGxsf7bswAgS05OPnHiRE9bVf29E/X30gGyqeMuacgGBwcGBh6ZzeaYmBg/jZm/kFmt1pUrV7qcvY3lpwCyqRaTySAbHBzw+Xxbt2799a9/vWPHjlFR8xeyuLi44uLilupLmDCwZJMw8Pd5WZZlXS5WGfgrIRscHHj48OG8efOmTZv2u9/9bmTO/IKsvr5+2bJlfZ21dSVfAWST8telz+tkWba/v9/hcLhdrOzXpRKyoSHkNTdu3PiLX/yCYZjHH398BM78giw1NTUlJaX14VWAbFJewvB5nU6ns7a2Nj4+/vDhw319fZgz8RKGKmSDg4O5ubkzZ85k8DZ9+vThOPMLsk2bNhUWFtaXpgNkkw8yr8dBCNu8efNLL720YMGCI0eO9PT0uFzsI3TBDF0nU4VsaGiopqo0IiKCQMYwzKuvvqrKmV+QxcTEWK3WupK0USHLWib0iHbmfnhIs4uxe9birtamyy7GZibOwQfmbLyLrsdyF2PPxODMuZtL6j9fh3djs+BibL/Pw9mwzZs3v/766/v374+Pj//LX/6SnJzc1dWF4rMRIWuzWWnIGEYdJ/VcGY9RUVG9vb2jQXZw1yysPepPKCC7cueTp/EQ3jwjQnaAgPX8TlMHQCZe8Rdt2Ouvv378+PGWlhaLxRIfH//Xv/41OTm5o6PD5XI9euQZzpL1tD0IDw+nFM7MmzdPBs/QkH9L4sLDw30+3yiQHXuZdLYqhb+t9O3qVSGwZFfavvvb83go607yluzGJpzz9Gc34LaScFvJwbJsbW0tsWHHjx+vrKzcunXr/v37y8vLP/roo4ULFx49erS9vZ3YM8wZuhg7ODgwODgwNDQ4NDSkhOyxxx6bWMioe5en3hZxX53K3bvMjhYzGeZPey+Te5efrMHZa9Lwzux3buN7l8UJ/yWWXrG7tVpwlyc4/8gwazPIvcssLmflZ8Rd3t2JbdvcTSXo3qXcXZ5bJTYcewrdu/xmNcp5Yc95fO/yyHp8fH0OundZvheb6zXHjH7vkvyWjI+PJzassrLy/fffj4qKeuONNw4cOFBSUpKQkPDWW29lZ2ezLOtxu/yETNVj+uUu/bJkZdspZb1yirpBThNG9Lk69Wzz/eQ9s0Xt4r3XctA9cg4y7hiG7PRyaUkKMumBN86ge+RX73yKqUJh2fX2ulOJc1Gp53fm4LvjEshowkhTsadul+5+Fu2HbStrvtOdvZTrYk1yj+3eefwNWG8y/HUyl4t1OBzHjh1LS0urqKh4//33Fy9efOzYsb1797755psHDhwoLi4+duyY2Wx2uVwej1snkGU25MVgbXJKYZ5bXVSR0/jtGpz5x91mNAuj6MM/osPRH0lnYSTw1ouCbPaG2w/wLIyr74ThJsMSvsKzME7s+1i0ZMzKvWgWRvr/4CIzE79DkLV9Tzzm04nfX2+/sZH3lWQWBgVZ4RZ86JnPitAsDI6t1Ye6ira9gJpb+k3znbI9fKQZtr3cdvEAGsqsA7cND5nP08+yrNPpFAgzmUwsyzY1Ne3bt2/RokUHDx5sampCZowjzEfuXY7sLrW2ZPxUn/xVImpvf9CYEoXVL/3z3Lqb98/e/OhP0lxmTZoI2Zq0XDuB7MQCXOz105KpPoK7xL8ur/8vxoWHrJbzmM9/eqo9801UHflKBWRZi2QDwCW3ljYdjkV7zx64eR5RFbZ0PWJr6XnbUeQ6w/5RbvypPuTKRUVFRVxc3OLFiwlhLhe64t/Y2Lhv374lS5Z8/vnnjY2NLpdr4BGahaEnyPB8slPctYyo3cR0MVGnZPPJUucTBYd9dNRmUbFkAmS3STQ2+93iACC7epf3mIn44sXzO7P5+WSiJbu36xk8hkXnFPPJSFi2PvvweoZ5YW/uN8RL7t2BLNyaY5Pg3qUQky1atOj06dMsy7pdzkc+1utl3S62vr4+MTFxxYoVOovJjr089x8HG8q4SYscZM+tKeIt2dwPk8ikxaL4V/dcOnsznvjNhGbLOdvlWOIQ1S3ZiO6Su04mt2RX27/nvOTzyK4+nXhDmLQoQtbJW7Lnd58jkxZLdy/ZX3S7q6m4dA8Ky14IQ3/X59ztzkGR2QthyHWigMz4lgyHZI7MzEyRMC83adHndbldbF1dXWZm5vXr110u1uslVzFG/3WpsbvkL2EQ+0T+4utkh3Y/R+cxDPNHETLpEXXIqi6OEPgPC1ntKeFXJzN3011xZiwFWcOZz0TXTobyLIGs6yYJy3BkZrvbfWs7jtIYhnnr/GSZGet2ofuVLpcL2TA0OVacGevzudwuF7lf7vWSqF8X7pL+dYkUtipFnH4t+YFJon7x1+Wf9l4eyV2S6denV4g8hn18grqEoRqToenXnMdEvyuzqenXNGQ/dDYUSX5grj7ET7/G0RiKwLaXoenXuTjkZ5iwHSggM74lI9OvPW7W7WZVp18/euTx4KUAI9xWUl4n09iSwRz/1kk7xx9H/bqwZPyvS1hIMukWkgBkshvk+DoZrFYK6molgAwg03xJHEAGkAFksLi33fCLe8GSgSUDSwaWDCyZcoqZMse/qT5wCQOuk6EL5kp+VLKUhQCyKf7AFf3HZB+sRlMw4Kk+Bn6qj94go+9gRp1Cj44CyODXpdI7KnL8dZdoIsYfduXLFpIAZACZAillhn+QbV/F/GFXnvIheCJk3NxrFB3Oz+YfgicuJ4lOIA/ByxFm9C//FB6Cp4eH4OnGXR57mZkVU8hPWqSetChAlrT77bVFlehJi9nRTFh8MnrM4vH5zOzYW/STFtNeY9DsfnjSYoOzRy9PWtQTZMu2CzNj1SCjHueZOh+tJbGca0ZzYufn0JBd3hDGvGYCyNATPQEy2ZMWj73MjArZP18VZx4SyIgxww4Ur4f7xvbjeVvaa7jYAhNZSALPjA31M2N1Y8nQussRY7J/vso8x7nLZsGS4WcTowcTp81nZq+/hdZd8g8mTlvAoEWX8GDi0D+YWD+QZRb+4w8j/LpEUf/bHzbxMRnnLgXILseGySAr2BAGkOnj6dc6ggw9Yv3YK6JDJIt7xetkScKKktXRfEx2nFsYJz6mgPOVDMopgEes6+IR6zqDTOXXJTzHH66TKS+LKXL8u04GN8jhBjlyYwp8gvjoKFitBKuVcKgEkMHzyYTnkwXw2huIyWBmLMyMhZmxMDNW6UGVORD4w6RF7DFD/sAVCPwh8IfAn38+2Y2OenjfZWDvu4TAHwJ/CPwh8IfAXxnmK3Mg8IfAHwJ/eAe5tu8gh5gMYjKIySAmg5hMGYEpcyAmg5gMYjKIySAmqzA1wWMKOuAxBUofSeWAuwR3Ce4S3CW4S3CXHQ/6wF1SvlFlF9wluEtwl+AuwV2CuwR3qeIgpVnh4eEej6fJcqHJcqH5x4s45TU/yGt+kN/8IN/2IN9WlW+r+hYns63KbKu6hJL1ks162Wa9bLcW2KsL7NVXuFRzpaXmKk7XWmpQaq253vpQSN+11n7XWvs9Tjda61BqqyvE6Ye2uh/a6ora6ovauXSzveFme8OtjobbHY1CKu5oLO5ovIPT3Y4mLnU2l3Q238OptNNW2sWlsi5bWZetvMtW3m2r6LaTVNndUtndch8nS3crl3paf8TpQU/rg562KiH1tltxqu5tr+7tqO7tqCGpr+MhTrV9nbV9nXVc6qrr66rHqaG/u5FKTf3dTY7uZkdPs6PHxqVem7PX7uxtcfa1OPtaqdTm7Gtz9rU7+9vZ/g6UHB2so5N1dLocXS5nl8vZLSS3s4dLbK8bpT63S0j9bne/x+3Ayelxo+R1s14P6/W4cHJ7vW4flzw+n8fn8+Lk8/l8Pe214eHh4nLucU5a7O3tvQ8bSEAqgY6OjmBC5vV660rSIIEEaAl4vV6ADL4V2koAINNWvvQXesruA2QAmeYSAMg0F/GUNWDCiQNkAJnmEgDINBex8IWesjsAGUCmuQQMBlnmUul146Vb6koSd85imFnLb4x0fQ6Vmbs9UdWWZC4d9pBqecgMVAIGhAyBFeiXDyALVGLBLA+QpYElC/xLGxiCoYes6laK/yeJ3KXcksmtFOVSIzM5mzd8maVbJJAlRwr+OCY5MFH6fxZTrWSIIbt75cu5s2cuXxLlp9xHhYwucGP7U3ysJoEMlRFiOEwVF67lLp/LPLUzF7OVu3wnQBZwWKL+tQwlZISwJ598cv4r4QFAJpgahsHGhgIIUSJYr7S6ki0xHDSyMjxJWIiiJZNXVxeZn0OFYoIEQgaZQFjAkI3gLilnJ6AoBxGVoUGkYzLEIsPAj80gf7tCAxlNWLAhkwDEf5koSzYSZES4W2IwoRCT8dIbL3MhgExGWDAho4MqSTxBQSYvQx2iqqB4Tm4yxyvrYOnMcO2EALIFUeFPSrfAYjK57iWUSIL6ksSdS8lFWroM2hcCfwST4B+TIwXrRf+AMJxS9TbgEEB2KmXbB5uj6XQhK8FPuajpngYojbsBwEdkPDTDlpm7PVEa+PM1hZ+flHnzc5BQTCaBEEAmGwF8nPQSAMgg0tJcAgCZ5iKe9IZq1BMEyAAyzSUAkGku4lG/6JO+AEAGkGkuAYBMcxFPekM16gkCZACZ5hIAyDQX8ahf9ElfACADyDSXAECmuYgnvaEa9QSDD5kXNpCAQgJBfqqPon3IAAkE+9FREynRi98WHEg9PZE9Ql9jk4AhLVnJvXsRW84yy65Oi768NAE4G5vqJ66WwSBrbrYt/9Q0Lfryb2LzDp84ezTj3E+jC4CzieNlTD0ZBrLu7u4dX+T869vmn0UXbPs8u6KykiTgbEx6n9BKxoAsOf3sr1aZfxpd8NbHpuI7dwXCxsFZdVIEE5FUHTxhD9ugOY6fcMswTJx53D2ijoI79HEPaZQG9A5Zbt6l/3j34rToy/+99cylK9dleJGPZWXlq3flMMuunsj+ZpTTFQ8Py4RYJLA91QYxEBRY5qRgch3YAENXWteQfZl2mll29T835GaYclXxqqiszDqTO+tvX//b2vz5H5hM3+T5LUlVJvyurVJQrUG1PJWqkz1L15Bt/Tz7V6vMyz81lZWVKyG7+G3B6x+Y/iX60rbPsy0Wy8HUM2fO5/utL07/oi+T+k50mN+kR7zDHKKBIkXizF7UPGXIJKMTuxaLkEbMuPOIiAhpZa4xuiPUIOmMDFboS61xSe8T+UHXkO1KNh366uxv38mTcXbjh6L1e7J/Gl2w/OOc4jt3+/r6AhcZpxpeK/gj/wFriP+AQRE4G/6QqHtUhq9AuuE/icNEZfgexJocMHxxupAXjQMfoIpzhIkNJeGQj64nKS32P6F7eofs5OncW7eLBc6K79z9KCnnZ9EFL/7fmTxzgd1udzgcFRUVq1atioyM3L9/P8uy/skPa5/XDqoiaEapFn8OYT4ikqoV7YqmhmeH5Mj6JgdltYWOyfjEMnxTPHj0OaM2VBunC03ovgEgs9vthLNXt5/599j8376Tl2E639TUZLfb29vbWZZ98cUXN2zYkJ6ePnv27CNHjvgnPwVKQgatWdKWP4cIZHIPR40FNctbL7LPu2PK0wk9cRXFsYg4UWXEw4qOVBqnykzsrt4hyzCdt+Pt8pXrv4nN++RITkNDA8mx2+09PT2lpaUzZsxoamryer2HDh1au3atfwKkVEUqoAxsAJSaE8qOcIh4OkUcJRnMCO1w5YQSfD2eLf4/F4Nxlkw5Htok822E/L+uIfvmojlml6no5i273W6xWJYknLZYLAJhXV1dXq83KytrxowZhXhLSEhYvHhxfX29H2IdVp2836PaEDSsqCQESsQFIt0jxfPejGoD7/JQKNvhSioPkL7NcaIHpMpQu2JXqpni4RDs6Royr9ebcTqXcCaDrOjmrYcPH2ZnZ89QbGFhYX4IEqmCokGChuSDGKyhVoc/JOoWN405q06KoKIjnM99lrZTnRRHrp+JjQinUJ0Ugeyj2I6kDGpHOFadJAb+IudC40KTE72jd8gEzvIvXSGWrKKy8uDxM0sSTldW3j969OiKFSsaqS0/P3/GjBl+SJGoilwsQPGLqBRcGSuPi2tE/Y50SKl7Js5MNyPrA5UXNr4LSSPcWeCCfAGpu5SPRzgJ1ca59ib+nwEgI5y99YlpScLpQ1+dXf5pzs4jpvv3LV6vdxyQTbyop26PxoCMcLYk4fTGz7K/u/GDoC6ATBCFnncMA5nX67VarQ6Hg5bm0aNH33jjjXxqS05O9s9d0s3AvrYSMBJkSklcuHBBEffPmD9/vrIk5IRQAsaGLISCg679lwBA5r+soOQYJQCQjVFwUM1/CQBk/ssKSo5RAgaGDJbEjVHnE17NkJDBkrgJ52RcHRoMMlgSNy5th6iyYSCDJXEhIiQI3RoDMg2WxAVBdqpNSG6JU7e1VQv7kYlvdQs3vv2ooMMieodMsyVxWuhCPl9iai6AU0pW15BpuSROKYpx5yDGDG5zxi0D1QZ0DZmWS+KQW6O8GQJE/Ej5PCFTLY9gxa1gS6qWtSkR+KjV5csDuMbk5KLP/Dbi2CS9h/aDriHTckmcDAgKMlqt9FxTXqXUcaJx0XrJP/O6pTsbtjpdyMgL4PiTFv/rHTLNlsRJVYon9nMUIQp4oIig5DmSOf+ysmRBiWSqrb/V6SFJuuApFjJF/dEDx7lqZajiIdk1AGTaLImjNcrNaebJQlBIKEFl5RsujEryBEjVR6qQFv2uLo5JRIXqQjxM9TVs41SZUO/qHTLNlsTJNCa3NmTJCLdIQ1ZW1BlFgJjJ7wkH/a/Os8X/l87oV21HNZMfgk7+6xoyrZfE8aZr2MWKHHoCLnKlDXsAF+T1P2wp5QFCl7EXwMmF5NX9M2M1WxInWdyGcBB+bJrjBPh4TCSF0RJL1RVssABOyRfO0bUlI2MmnAV7SRxnvUioFWdGRoVjC+3ymxhw0bl8Sfk6YMKqsi7n9fgDw1XHp4v7ESgX1wzz+qP6EAanOja+gg7+GwAyWBKnA07GNQRjQAZL4sal5FBXNgxksCQu1KiMvX8jQaY8S1gSp5SJDnOMDZkOBQpDUkoAIFPKBHKCLAGALMgCheaUEggyZPaqfEggAVoCHo8nyJCN+opNKDDVJBD8l6pONQnC+Y4qAYAMXg+tuQQAMs1FPOoXfdIXAMgAMs0lAJBpLuJJb6hGPUGADCDTXAIAmeYiHvWLPukLGAyyzKUMwzy1M1eFjBEODa/FxJ2zmLnbE4cvoNKRsnDm0iA0omx20uQYETKGWbpFroDc5XPRrFN1/iSFkyOZWctvlBB6ADK/vkUSAXKiC6Bi6CGrupXi/zkgm7E0ci4TmSk91Rvbn2JmPTUXIJOKxX/BaloyxJDdvfLl3Nkzly+J8vMksWPaovBxW2KYp3YmL5dBhh0omVXPQUnlEHPIWTIhX+Y6Ebv8JjskVGGWbpG4y+RIvgYTkxzA191PCRixWCghI4Q9+eST818J91N2nDolLi+tjnxEHlN0lwgC3qtiO8e7SEldBBnD8DQgPqQtiCZzSwwjBl6occHnYqo4BOkx5C7fCZBhyxoyyATCxgJZCVI5bycQKGhfqmCpS8WmjvxcUELGs1hXQoVodGvEByGYsEVUHBItGTokd+V+fn8mcbHQQEYTNibI0pBxInAIeqV1T/ksufNSQEb5QQoyASkhyhHaVxwSIcOYMpTNm8To+H9qIYBMRtjYIKtDxgy5NlHBAgQl2IEOZ1G0hYwEYcjQil5YwHSq7oQAsgVR4U9Kt4BjMqwtjNdyghr6VtGQ0fsy1foJmbIFoaL8EGX/qL5EW0tl+v/tn0wlQwDZqZRtH2yOptOFrAQ/ZSraLY4qMbqXQFaCLJwYm5ck7lxKBf6ikZPxIfkobUEeBQqNk1+gnM9NjuQjRTwAMdqb0j8zQwCZnzypFpNAhgMgQakyyEgULw/IkFFBJKENESChSvERg8I3IXZEN4LDL3FUyMjxm/DzEyxZ0B+4ogoHZE5lCRjMkk1lVRn33AGyKR0tTQy4ABlAprkEADLNRTwx1kLPvQBkAJnmEgDINBexnm3MxIwNIAPINJcAQKa5iCfGWui5F4AMINNcAsGHzON2QgIJ0BIIPmTKZ1NBDkggyI+OAoGCBJQSMB5kPxQWfbAyc9uirIJLV5XnAzk6lICRICsrLdu75eS6Z3P278j44pOTG/5s+vTdjJs3b+lQrDAkWgLGgKy+vuHQLoTXrvczCi5drcTb1SvXE7dnxD5z9rNt6VarlT4r2NeVBPQOWXd3d9rh7A1/ztkRnXH+XB7Bi/5rzi9IWIf4O5KY1dLSEpBwqfcUCa/vCqgBPwujdx8JL0Ki6wgvCKMz8dvC4szk7ayq1SSlDfBB75CZ8wtinzm7KSpLlTBCW/7FS39/82TsM2fPn8vzW+TyF2WZk5Kq/a4cYMFhIeN5krSnTp6kiME+6B2y8+fyDu/L3L8jY92zOTveOpmVfrasrFywZKasrxPWIbz2/T390O6TAUA2vN41UOAInSmJUuZoMKKJbdIAkCUfyLLb7aWlpYcTs94NN22Zf/L44ewTKaZtC1Hs/8UnJ2/fLrbb7ckHkLXzW3oj6RId4zbZSwGV2QQgM359IefbUBa/4focZEKztA+Uj0P8LEdTqC64duoFv+SdhcJLDpGJpHvxWyyaFDQMZHa8VVdXnzhq+tsr2XEv5aR8mX3/voXkBw4Z90J6pSZELUtfNim8SZW8OZqnjxAlNoM/iweTzOLLLrlc1IFYXuYxqd4lkFH51Fs2aZRQCaFdVJcfhCbcBNSowSAjSKWnmNJTTAJeZCdAS4alRAgRdUOworVDq1EULJUrgQrzRwHE1ZCVQR+pQjQ/VMMUS3hXbVRUS+iV0nG8+UL5dHlx5CHZm9qQEZFjG8Aphezzzo78F9RFH+QpofQ84qvM+fLSd9fjAYiU0YzRkNEd82PDoxJoIq8t519ezv8PCVLKTgEyLBMBFVHhMllhPfO4UTAINXF59erSMjQ9pBO+FtWslEW+gGxMXKE4M/K5aGwcc9J2lJUmOgcgk+pZxoOgDqmaKS1KK0g/8bVlubKPggGkWkU1qWLULt8m/x9XMidFEP6rkyIikszoj2bXY/iOA/hvAMgO7T5ZV1dHR2DKmKyxsTHgSxi8WeL0yQcxCCdRR3y4T6sZlRCK0AeQ3PFBvunqJCHwF5uk6eE1hVqhGsXZkpbVRyV0KBmOODi++RD/1ztk9+9b9u/I2Pf3jOyT56xWqzLwr6urO2fKTcRl7pXc81ucGAY+vhF0hKtzGpcFZGJunJmyORIUSO9U0wQtWRnZR7FPCkSpJUNFxP4Z4RoGrirlT/qJDCjUf/UOmdfrdTgcVy5f+/zjjN0bM9JTTCUl94glq6ysPJV+dvfGjAMfZpjzC7q6ukItTOhfXQIGgEwY+M2bt44ezNr1PjJsidsQc4f2ZH5//YbL5RLKwI4OJWAkyIj47t+3pP/T9NVRUyDOUYeSn0JDMh5kU0g5k+VUAbLJokkdnwdApmPlTJahAWSTRZM6Pg+ATMfKmSxDA8gmiyZ1fB7GgwyWxOkYJ/WhGQkyWBKnrkPd5xoDMlgSp3uQRhqg3iGb8CVxanevRxIgHBtdAnqHbMKXxAFko0MTaAm9QzbhS+IAskARGr28ASCb2CVxHGTCnDDpHC/JrC7hEDW9jJv3xc9a1NfStNFx0KaEYSAj0xW1XxKHIBNnBUqnAGLyaH74yY40ZbgQzx9qTaigjQYN0KrBIFPOjBWmZQdnSRwxVRavI8cAAAL8SURBVCIXlPekdjnFIp5wUeoQWtKh16VpoeJxakNGpI5tD29wKF7QUeqjgJSgK/Eg2sO4kWVD/JI0/r9QY2ruAGRY71JceGfnP2QYRt0vTQsV4gAZkbxgpkTcZPTRRo3TliwUw4vRiKfV59I0gExdAufP5U3skrjhISPL3UQrJ3BJRk6cLn8YNaO7pWnqItY+V++WbMKXxI0EGb+skltJJ/48wHpClPGMyYHUXpF67kHvkMGSOD3T4+fYDACZcCawJE4QhbF2jAQZkSwsiTMWYfBGEsPpy5ADNp4lM6SYp/agAbKprf8JOfugQRYVFdXd3T0hY4ZODCaBoEG2bNmympoag509DFd7CTgcjhdffFF4SBfZGVJsjCJHJSMuLq64uFj7MUMPBpNATU1NRIT4zPlxQZaampqSkmIwAcBwtZdAbm7uzJkzg2PJrFbrypUrtR8z9GAwCWzduvWXv/xlcCAbGhqKiYmxWCwGkwEMV0sJtLS0zJs3b9q0aUGDrLKyct26dVqOGdo2mARUzRjDqET5KlkqkT/O+uKLL7KysgwmCRiuNhK4du3anDlzZDaMfFTyEwBkHo9n48aNhYWF2gwbWjWMBCwWS2Rk5E9+8hMlZNOnTx8XZENDQ/39/e+9996ZM2cMIw8YaLAlcO3atcjIyMcee0xJmKqvHBoaCsCSEUI9Hk9iYuK6detKS0uDPX5oT9cSqKmp2bp165w5c1RtGMMwTzzxhNKMjQUy0kplZWVsbOzKlStTUlKK8aZr8cDgxiqB0tLS4uLirKysdevWRUREKC9Y0PZMlbCxQ0aas1qtqamp4bBNXgm88MIL4eHhv//973/+85/TPCn3hyNsvJAJ7Sq7hJwpJQGBBNWdgGMy1VaGhoaeeOKJKSVWOFkigccff3w4JIT8oEFGWpw+fTpIf4pIYLgwX2BL2AkyZEK7sAMSECQAkAmigB2tJACQaSVZaFeQAEAmiAJ2tJIAQKaVZKFdQQIAmSAK2NFKAgCZVpKFdgUJ/D/YZZpJY3nNogAAAABJRU5ErkJggg==;" vertex="1" parent="1">
          <mxGeometry x="910" y="10" width="204" height="256" as="geometry" />
        </mxCell>
        <mxCell id="1T_SigNr_V3jTHDhT6Bn-8" value="" style="shape=image;verticalLabelPosition=bottom;labelBackgroundColor=default;verticalAlign=top;aspect=fixed;imageAspect=0;image=data:image/png,iVBORw0KGgoAAAANSUhEUgAAAMwAAADpCAIAAADnIU8gAAAfoElEQVR4Ae2dC1AUV7qAu6zdurlbtVW7ldp7t7a2ahNvbZW3blV2b6rcVKIb1A1Xy9qlYh43G3yEYESjxN3gRnTj4yZIjBolPhJFlCABBGFUohjJKL4ioqI8BCcyIAyv4TnAMNMz0yNw65x+ne4eYMBppnvm7/oL+nH6nNP/+eb//+4+pw81AgtoQGUNUCrnD9mDBkYAMoBAdQ0AZKqrGAoAyIAB1TUAkKmuYigAIAMGVNcAQKa6iqEAgAwYUF0DAJnqKoYCADJgQHUNAGSqqxgKeCzIrFZrQUFBYmJiQkJCdHT0PFhCSwPR0dEJeMnJybFYLJP+tUwSMrPZnJiYGB0dvX///tLS0vLy8hZLvaO/jZd2R79SrI5+LANWh1ScAx2jSKfTrpQup10utL2bHvQpPfSgUnpphw9xOWy+pM/l9Cn9Lqcvoftd9AArbnqAELubVohr0O1bHG4XJx6XA4nb4XE7RxHa45aKh/Z4XIIwHpdU3IyHEMbNcOJhGIlYre3leElNTY2JiYmLi6usrJwEapOBLCMjY8WKFaWlpXZbc7eltLXG0Fx9vLk6F0te8728lnsnWu7lt9Tkt9QUtNQUtNYYWmsNrbUnsZxqvX+q7f5pJKZCVtpN37T/8E37D2ewnG1/cNb6oAjLOWvdOWvdtx115zvM5zvMxVi+66j/rrPeiOVCZ8OFzoaLXQ0lXQ9Luh5ewnK5q/Fyd+MVLFe7m652N13rbrrWY/m+x3IdS2lPc2lv8w0sZb0tZb0tN3tbbtpabtlab2Mpt7WV97XdwXK3r/1uX3tFX3tFf3tlv7Wy31qFpKMay73+jnsDnTVYagc6awe6age67iPpNtm7f8DywN7zwN5TZ++pG+wxD/aaB3vrsTQ4bA+xNDr6Gh19TY6+JmefxdlvcfY3Y2lxDrTQA630QBttb6Pt7bS93WW3ugatrsEOLJ0uR6fb0YXE2e129ridPR5nr4fu9dA2LH0eVx/j6ufEPcC4B7xuu9dj93oGsTi8jOMR48RCP/LSj7yuIa976JF76JEHCzM0xAw98nq9jMlkev/995OSkjwez4RQmxhkg4ODiYmJ6enpLnqgs6HEUpVjqcpprjoOkIU2ZMND3uEh7xBijTEajfHx8YODg/5zNjHIEhISrly50t9V13Iv31KVDZD1d4SFJWMhGx56NDyMbJrJZIqPj/ffnk0AsrS0tKysrP6uOktllqUyGyALH3dJQjY8PDQ09MhoNMbFxflpzPyFzGw2r1ixwuUcaLl3AiALt5hMBtnw8JDX6920adOvfvWrrVu3jouav5AlJCSUl5d31F/AhIElC8HA38vQNE27XLQy8FdCNjw89PDhwwULFkybNm3GjBljc+YXZBaLJSYmxt7b2FTxNUAWkneXXsZJ0/Tg4KDD4XC7aNndpRKykRHkNdevX//kk09SFPWzn/1sDM78giwjIyM9Pb3z4WWALCQfYXgZp9PpbGxsTEpKSk1NtdvtmDPxEYZPyIaHh4uKimbOnEnh5amnnhqNM78gS0xMLC0ttVRlA2ShBxnjcbCEbdiwYf78+a+++urhw4f7+/tdLvoRemCGnpP5hGxkZKShrioyMpKFjKKol19+2SdnfkEWFxdnNpubKjLHhGz/zhdQcREfHQjEw9jt7+K6v5s1xsPYrJQXcaIX190hHsaeWsHuXH+38fM1eHVNLjyMxc9jfTyM5WzYhg0bXnvttb179yYlJb3++utpaWk2mw3FZ2NC1tVuJiGjKN84+d4r4zEqKmpgYEB7kBnvfMLa6v89JUKWshqDNffTE90AGT32E3/Rhr322mvHjh3r6OgwmUxJSUl//etf09LSenp6XC7Xo0ee0SxZf9eDefPmYX1zfxYsWCCDZ2TEvyFx8+bN83q9UwuZf6+VriTMxVe3Opt/rXTtH3jPH1K+h9dKNs9YkDlomm5sbGRt2LFjx2prazdt2rR379579+5t27YtOjr6yJEj3d3drD3DnKGHscPDQ8PDQyMjwyMjI0rInnjiiaBBVvbxf4u8z1pzU3x3eeSz2dyROdve41xk5lnrA9Jd7uBd59d7+MSrs9h3l7zHXJHCvru8sx3bthc/uIveXcrdZWGcWIv4PPTusnAl2jN3VyF+d3kwHh+PP4HeXVZ/9jzaWnU4JN9dsveSSUlJrA2rra1dt25dVFTUG2+8sW/fvoqKiuTk5Lfeeis/P5+maY/b5SdkPj2mX+7yMS3ZibfFpuXXFuWjF+QiYfx+9P/dUSAj01DU66fQO/ILPFX/uINekOeyUdrcT/Pw23EJZCRhbFbxeTcqdz6H1iM+rGy5aTuxhCtiVaqtrfzMKrT1Xn5oviB3uWiHw3H06NHMzMyampp169YtWbLk6NGju3fvfvPNN/ft21deXn706FGj0ehyuTwet7Yh++7dCNx0q77CvTCMa9jNOUlpbRfj5+BD7x7DvTAyX2HbeFTI3tmFemFkvY6TzUy5giDrvMp6zJkp10q6RF/J9sIgILueiN3oc59fv95jKa1g2Vr5RW/pP/H+JYUtN6t2YdOFmNtc1XZ2H6rc8/tuhiZkXs8gTdNOp1MgzGAw0DTd2tq6Z8+exYsX79+/v7W1FZkxjjAv++5ybHcZJEuWHoWYmPVuGd/V50QshiR2W9uxRXhtUQHX1efobuwNR4Ps3Sy2q88u1ntij3mhs4HzmHO3H+/KeQNl+OIHd7iuPgRkuW/isqR/IjZWNn+JXeTzn5cV7o2gqIil8ehHsPRMW+p7FEXN2VzdFpqQsU8uampqEhISlixZwhLmcqEn/i0tLXv27Fm6dOmBAwdaWlpcLtfQI9QLQ7uQcdGYL8hubnsWtfns+FscZMnjxWQ+IRM9Zgp+eDF3ex7fn0yE7O6OP2C+ogtRlzJJfzI2LIs/gQKyP+36hvWS8Z9t/hMKyFL7QhQyISZbvHjxyZMnaZp2u5yPvDTD0G4XbbFYUlJS3nnnHZ3EZKO4y1UZp3lLRvnpLkexZBc6r67DLm/mXPTYbGbKNaHToghZN2/J5u4wsJBV7lz8eemN3uayyl0oLJsbgXxl/InbthNLKYr60xy0+V7+nVCFDIdkjtzcXJEwhuu06GVcbhfd1NSUm5t79epVl4tmGPYpxvh3l1PkLkmHFPHxwZaaAh+BP3uDOcHAf1TIGnK4p7LIV/7jzkNfkDXlf84Gg2L9nmMh6y1jwzKKopacab1tK9uEbBhalp1BnWND0116PYNuF3pf6XK5kA1DnWPFnrFer8vtcrHvyxmGjfq15C65BsL/WMhaawwSzmK3Ed2vk/E9HEVRz+6+OEl32dlwkbvHpKi523O7fEOGul9LbjBXfsF3vz7F8RfxYRXqfv0NCs64gCyUIfN6Bj1u2u2mfXa/fvTI48FDAcZ4raR8Tqa2JXvcPv4F7A0B9UoB9PHXWB9/HPVrwpJNAjIfz8nmbEuHgSRaG0gSSpA9u/vimfYfYLSS5kYr6RoyGBKnjyFxABmMu1R93CVABpABZDCCvFv3I8jBkoElA0sGlgwsmbIfo3KPf/3JJvGcDO4u4e6Sx+3xIPtoFRV1Ar7qo+ev+mgtJtuC+zOzLzCjTqBPRwFkEPjz5mqM//5asqN/pqjf7Szmv0/23aqVqBcGQAaQjQEXf8g/yLaspH6387zyI3giZMRwEraPP4rJ8rn34hQVm8x+BK9gOWsIKWr5p/ARPC18BE8z7vLon6kX4kqrx4Ds0K63V5fVoi8t5sdSqI+/qRD1WxR7xuIvLWa+Qs1eexu+tIg6YmjlS4tagixmS/NYkBGf88xYRMVuQ5ChsSRCH38M2cW1c6hXDAAZQObjI3hH/0yNC9lXL/OOkOIgY40Z2ruoQPhmLDds6VXDA/hmrCa+GasZS1Y9Xkz21cvULM5dtgmWDH+bGH2YOHMRNfu9W4gzvqtP5qvU7L/dhg8Ta+DDxNqBLLf0/343xt0livrf/riVj8lES2YqRJBdjJ8jg6xk7RyATBtfv9YQZOgT60f/IjrEWavKJM/JDu2axR1cFcvHZNzQS7aPPx/4c6me3V0C7hLcJXxiPfy+fh3cEeTw7jJkJ4vQmLv08QgDZiSBJ/78Y/0x/vv3xB8sGVgyFE0rQfKxS5kIIAvzuZXAXULPWOgZCz1joWes0jkq94C7BHeJPWbwv+oDgT8E/hD4w6SqPr7j79ekqhD4Q+APgT8E/hD4K8N85R4I/CHwh8AfJrpXd6J7iMkgJoOYDGIyiMmUEZhyD8RkEJNBTAYxGcRkNYZW+BYGfAtD6SLJPeAuwV2CuwR3Ce4S3GXPAzu4S9I5KtfBXYK7BHcJ7jIk3KXH42k1nWs1nWv74Vss59senG97UNz2oLj9QXF7XXF73XdYjO11xva6C0jMF9rNF9vNF63mEmt9ibX+EicNlzoaLmO50tGApLPhaudDQa51Nl7rbPwey/XOJiRdTaVYbnQ13ehqKuuylHVzcrO7+WZ3862e5ts9LYKU97SU97TcwXK3p5WT3raK3rZKLFW97VU2Tqpt7dW29nu29nt97TV9VlZq+zpq+zruYzH1dXLS3/kDlgf9nQ/6u+oEGeg2Y6kf6K4f6Kkf6Glgxd7zEEujvbfR3tvEia3JbrNgaR7sayGkdbCv1dHX5uhvc/S3czLQ7hywOgc6nPYOp72TkC6nvctp73YOdtODPUgcPbSjl3b0uhw2l9PmcvYJ4nb2c0IPuJHY3S5BBt3uQY/bgcXpcSNh3DTjoRmPC4ubYdxeTjxer8frZbB4vV5vf3fjvHnzuLHY/D+lJ/R3IMnAwMB9WEADUg309PQEEjKGYZoqMkFAA6QGGIYByOBXoa4GADJ19Uv+oMN2HSADyFTXAECmuorD1oAJFw6QAWSqawAgU13Fwg86bFcAMoBMdQ3oDLLcZfwDY/b/so1NFSk7XqCoF5ZfH+v5HEoTsSXFpy3JXTbqIZ/pYedENaBDyBBYE/3xAWQT1Vgg0wNkmWDJJv6jnRiCwYes7la6/xeJ3KXcksmtFOFSF+ZyNm/0NMs2SiBLWyj447i0ianS/6sIt5RBhuzupS8jZs9cvjTKT72PCxmZ4PqWZ/hYTQIZSiPEcJgqLlwrWh5BPbOjCLNVtHwHQDbhsMT3zzKYkLGEPf3004v+Mm8CkAmmhqKwsSEAQpQI1iuzqWJjHAeNLA1PElaiaMnkp/tWmZ9VhWSCBoIGmUDYhCEbw10Szk5AUQ4iSkOCSMZkiEWKgpvNAP+6ggMZSVigIZMAxP+YCEs2FmSscjfGYUIhJuO197jMBQEyGWGBhIwMqiTxBAGZPA1xiDgFxXNyk/m4ug5Um+kunyBA9mrUvKely8RiMnnbSyiRBPUVKTuWsQ9pyTRoXQj8EUyCf0xbKFgv8gZCd42qtQoHAbIT6Zs/2hBLyrm8ZD/14qvtSYAyuRcAfETGQzNqmogtKdLAnz9TuP0kzJuflYRkMg0EATJZDWAz5DUAkEGkpboGADLVVRzyhmrcCwTIADLVNQCQqa7icX/oIZ8AIAPIVNcAQKa6ikPeUI17gQAZQKa6BgAy1VU87g895BMAZACZ6hoAyFRXccgbqnEvMPCQMbCABhQaCPBXfRT5ww7QQKA/HTWVGv32u5J9GSenskQoa3Ia0KUlq6isjNx4moq5PC324rJk4GxyTT91Z+kMsra29uWfGqbFXvx1/PnUrNNHcgp/HFsCnE0dL5MqSTeQ9fX1bf2i4F/fNv40tmTzgfya2lpWgLNJtfuUnqQPyNKyT//bSuOPY0ve+sRQfueuQJgGOTMm8N1rKYpKMD52Y9YfiqSoyEP1j51REDPQOmRF5y/859+/nRZ78X82nbpw6aoML3azuvreqp0FVMzlrPwzQVQlw2AgCLCMh/QNR6CUqWnIvsw8ScVc/q+1RTmGIp941dTW5p0qeuGDb/59dfGijwyGM+cDpZfJ5IMY07nNmcxlj3+OpiHbdCD/31Yal39qqK6+p4Ts2+9KXvvI8C+xFzYfyDeZTPszTp06Wzz+FXMpkFsjjA4CRNwkfJ6w09c+Fisj8mgIL1mekrqMe3pkpKRCDJeZnFy0zS9j1k1SenA3NA3ZzjTDwa9P//Zv52WcXb9R9t5n+T+OLVn+SUH5nbt2u33iSpQBQUBGNmv9oUM4rCJTE8fZFhetl3ybr5Zfp5OJGMQYzpcoTeaPx6kbX7YG/msdsuMni27dLhc4K79zd9uhgp/Glrz0z1PnjSVWq9XhcNTU1KxcuXLhwoV79+6lado/rUqbFIdTnGFAzSrYCJyZfA8PgCIIQ6lZ0Mhg3d/TySpJiuApFnYSlzhq5kSaYK/qADKr1cpy9vKWU/8RX/zbv53PMZxtbW21Wq3d3d00Tb/00ktr167Nzs6ePXv24cOH/VMp2aIcGjxZHCZ802Krwnso4T9OjFKKyciCUfa8+2PXhTPxis/TxTqJOBFFiIeJkkbNnEgT7FWtQ5ZjOGvFy8VLV38df3774YLm5mZ2j9Vq7e/vr6qqmj59emtrK8MwBw8eXL16tX8qlbWY3CAIZCEaZGnFAggCxJ38mnDQ/9N5tvj/HP0cxz7z8bmTr4JG/msasjPfGuN2Gspu3rJarSaTaWnySZPJJBBms9kYhsnLy5s+fXopXpKTk5csWWKxWPxQrowq323FJRJwkec76gGckM9z1FTKAyxdxgTRXxNpiFWxIj53ioc1saZpyBiGyTlZxHImg6zs5q2HDx/m5+dPVyxz5szxR7UIAd7VoXXeuTHGBN5viiaMTIzCrgT2AZi0hesPRQpnSoN0v07Hla4/FBkZScaEkiJwPfkyyMCfvxCibv7oYIrSaB0ygbPiC5dYS1ZTW7v/2KmlySdra+8fOXLknXfeaSGW4uLi6dOn+6c8Fi0WL9SWXOuhVX4hG0/cy6fEQb6YBDPJnykSzMMjHhExUYZ0uHQ+gdRd4ozESgs/EeFeA5dAnOufGtRPpQPIWM7e2m5Ymnzy4Nenl39asOOw4f59E8MwjweZ+tqFErAG9AEZy9nS5JPrP8+/dv2G0HYAmaAKLa/oBjKGYcxms8PhILV55MiRN954o5hY0tLS/HaXZE6wrqIG9ASZUg3nzp1TxP3TFy1apEwJe4KoAX1DFkTFQdH+awAg819XkHKSGgDIJqk4OM1/DQQYMmtdMQhogNSAx+MJMGTjjieGBOGmgcCPIA83DcL1jqsBgAy+haG6BgAy1VU87g895BMAZACZ6hoAyFRXccgbqnEvECADyFTXAECmuorH/aGHfAKdQYYm8BJmcJZOrTXGodFbUTax1ySBE6cAk1Zp9HInWZBOM9QjZMq57jOb0CyWo/InaZu0hcI8hOyUctwE5I/BB0Am0bBCk8GHrO5W+thVJI+i5ly2UDrROLIKeE77Z8Rp6hXXKWYCkI2hHHUOBRkydhbf5UujRAjGvE5sMzbueEE2TTie0D5tuQwy7EDZbvXcnNHEHtYccu5S2C+zauyUq2wWskPCKdSyjRJLRsyDzs+2GV7OUdmUwYRMmCd6QjP3osaWWKNMblM67zOCgJ/jF9s5dgpfPjGHMoKMoiiOBsTHMzuKOCYwRsKM5mhicoEzdEiYdRVTxR0i61C0fEdauOPFAhc0yATCJjoHOW5O1OS8nUCgoHVpA0tdKjZ1LD0SQDFkPIuSEI3MjSUSwYSZUxwSLRk6JHAJhHEaCA5kJGGTggwHYSwcQruSbU/4LNbZScyVYIQqOHfJW3hiU0BKcN9C/opDImQ4Q3FSc+Hc8F4JAmQywiYHWVMFZ5zEBhYgqMA+cTSLorBkghOUWDIFSaKlVBwS68DBhAytiHV4E9ZUkRkEyF6Nmve0dJlwTIabDTft8jghiiIhI9dlbewnZMochBPlhwj7R5SFAkHREYe16wwCZCfSN3+0IZaUc3nJvMMapzEkNgM1thjdi5aGR1CMzStSdiwjAn/RyMn4kGxKontkOCVRoJA5ewfKmcO0hXykmEneefh5daGaLAiQPY4qJZDhAEhoVBlkrO+TB2SIP0QSWpCZkVCl2MSg8FmIBZGZ4FtOsVYs9+wpYuQ3zi/ncRSii3N1BpkudAqVlGkAIAt3MyMDQo1NgAwgU10DAJnqKlbDNugrT4AMIFNdAwCZ6irWl9VRo7YAGUCmugYAMtVVrIZt0FeeABlAproGADLVVawvq6NGbQMPmcftBAENkBoIPGT+f7MKUoaPBgL86ajwURxcqf8a0B9kN0rLPlqRu3lxXsmFy/5fJ6QMogb0BFl1VfXujcfXPF+wd2vOF9uPr/2j4dO/59y8eSuI6oOi/dGAPiCzWJoP7kR47VyXU3Lhci1eLl+6mrIlJ/65059vzjabzf5cLaQJiga0DllfX19mav7aPxZsjc05W3iexYv8aywuSV6D+DucktfR0eG/EtEkRYGZhwhPh0RMseSzDr6L4/b6lYPPbHWxU+uQGYtL4p87nRiV55Mwlrbiby98+Obx+OdOny2cwET3vltdvUbzVZ6vferVIGg5ax2ys4XnU/fk7t2as+b5gq1vHc/LPl1dfU+wZIa8b5LXILz2fJh9cNdxTUMmzmsoNHaYMMboALK0fXlWq7Wqqio1Je/v8wwbFx0/lpqflW7YHI1i/y+2H799u9xqtabtQ9ZOaMBxV0ZrYd8zEeLs0CnskmD0PbkuPzmhkJL0ovISxW1UpjylUBJftJgAV1Fw9URNxr3o4CTQDWTshL319fVZRwwf/CU/YX5B+pf59++LE/kGBDIMB9l8YtujQ0I743T8FokIhyiXheQc+TTT6CCXjsxBYvHEAyRKitKFGgcHovFK1RlkLGrZ6YbsdIMwTzS7EgDIxCbl1SaAoDhENDp5DK3z6HBTohIECNkxmDieUt7+oVJRBsQZCDmcjCgEzR6dwO1WpOdrrqX/ABnRGiQD7G6haRWH+MaXTa4rnCA7nytFzIY4nyWLIw6lkC8YOoE+doZyfp5y/j9xGZpbBciIJhER4HcKzCgOEZAIiWTAKTdFj0mcLk2mKIivCm+zOKo45qT5CGm1tQKQEe1B0sLuFtpQfojcHm1dSg9XDguRkC+7l8iBWCVqhlfxScZDkaw3rT8UGXnIiP7UyxNqbVsHkB3cdbypqYmMwJQxWUtLS0AeYSAExFYjrQpqfOEQ3pBs8SfJGJFtotZnzxVOxkBIkknrUH8oQaAIHRmtEloDi6yP1iG7f9+0d2vOng9z8o8Xms1mZeDf1NRUaChKwWkqKyrJaxt7nW0xMfzhMSH3kxG4gAfbzoQtIhEh131aMi4bvjS2jj7OEipG1kHKn3Rr7KsN6lGtQ8YwjMPhuHTxyoFPcnatz8lON1RUVLKWrLa29kT26V3rc/Z9nGMsLrHZbFOoSYQF2fxTWLT+itIBZIJSb968dWR/3s51yLClbEbMHfws9/ur110ul5BmalYQYsCY37rWE2TsRd2/b8r+yvD1EcOEnKPfChktIeZK8GFSbzfaObCf1YD+IIOW050GADLdNZn+KgyQ6a/NdFdjgEx3Taa/CgNk+msz3dUYINNdk+mvwvqDDIbE6Y4yPUEGQ+J0hxdbYX1ABkPidIqXPiBTb0gc2zlVeIbPvyWSvavWdeNqpfJat2SqDYmTv340HmJ71ABkgUdT65CpNSRuVJZGPRB43YdNjjqATJ0hcagzlq++OhxkQq8y2atwdJhfhENE3zKuu5iQs+RQ2FAlu1DdQMZ2VwzgkDgWFwEUXi8cRRwl0n6BmDySH75/K4kSTsRni3ITTuCLCLv/OoNM2TNW6JY90SFxqKl5u8Qzwe8SuUApuKPEKocJ4gknJQ6hcR66Gq82BciHN2SsgrHt4Q0OwQuPIQeZgJTQLGJatIZxY8cS8ePU+P/CGeG5ApDhdpfiIjNsfkCm4/FqU8A9QMYqWTBTIm4y+jBHBH6yQeA4LNPjeDWAjDlbeF6VIXH1/PBFASXOX44OGTsyV8RM4FLEVI/j1QAyRrUhcWwgpngaIbdXMubw11D4k8TbA9xQKEcpguLWFLSkhovQurvU6pA4DTep9qqmA8gEpWlnSJxQJVjxRwN6goy9niANifNHmZDGtwb0B5nv64C9GtYAQKbhxgmVqgFkodKSGr6OgEEWFRXV19en4SuFqgVHAx6PJ2CQxcXFmUym4FwHlKphDdhstshIsX8U+5BxRLFQij0+diQmJpaWlmr4YqFqwdFAQ0NDwCDLyMhIT08PznVAqRrWQFFR0cyZM/m3JNx/pZXyy5JZLJaYmBgNXyxULTgaWL9+/ZNPPhkYyEZGRhISEsrLy4NzKVCqJjXQ0NCwYMGCadOmBQwys9m8YsUKTV4sVCo4Gti0adMvfvELGWEU5cM3+til9KnsnrS0tKysrOBcEJSqMQ0YjcZZs2YpCXtcyFineeXKFY1dL1RnqjVgMpnmz5+vdJQURT311FNKIzUBSzYyMjI4OJiYmAh3mlPdqloqz2g0zp8//0c/+pGfZmxkZGRikLGQZmRkrFixAp6caanpp6IuJpPp/fffnzVrlk8bRlHUL3/5S6UZmyRkIyMjZrM5MTExOjp6//79paWl5bCEtAZSU1NjYmIiIyN//vOf+zRg7E6fhE0eMjY7q9VaUFAQERExD5aQ1sBvfvObn/zkJ2Pg5TPeF5ibjLsUThZWnnjiibFrAEdDWwMCCT5XAgPZyMjIjBkzQluPcHU+NTBaHEbSFjDI2Ex///vf+6wK7Aw9DcyYMYMkaYz1AEM2RklwKGw1AJCFbdNP3YUDZFOn67AtCSAL26afugsHyKZO12FbEkAWtk0/dRcOkE2drsO2pP8HCqY3iMd8mtMAAAAASUVORK5CYII=;" vertex="1" parent="1">
          <mxGeometry x="910" y="310" width="204" height="233" as="geometry" />
        </mxCell>
        <mxCell id="1T_SigNr_V3jTHDhT6Bn-9" value="" style="shape=image;verticalLabelPosition=bottom;labelBackgroundColor=default;verticalAlign=top;aspect=fixed;imageAspect=0;image=data:image/png,iVBORw0KGgoAAAANSUhEUgAAAMwAAADpCAIAAADnIU8gAAAgAElEQVR4Ae2dC2wU17mAR6jVza1UqVXUe6uqUhOuKnF1pbS3EokSaDFOfEGotUIeSmMecU1sSDC0MbcYbnk0cRwCBBweLRhjxzhgbOzlETDgLJhXcGwwGL/Y4LWx149dv9de787uzvpxdc68zszsrtfG493Z/Ue/7LMzZ845859v//+f2XPmUOOwgQZU1gClcvlQPGhgHCADCFTXAECmuoqhAoAMGFBdAwCZ6iqGCgAyYEB1DQBkqqsYKgDIgAHVNQCQqa5iqAAgAwZU1wBAprqKoYIngsxisRQXF6empqakpMTFxUXDFl4aiIuLS8Fbfn6+yWSa8rdlipAZjcbU1NS4uLgDBw6Ul5dXVVW1m5rsg528mO2DSrHYB7EMWexScQx1+ZBuh00pPQ6bXGhbLz3sVfroYaX003Yv4rQPeBOr0+FVBp0Ob0IPOukhVlz0ECE2F60Q57DLu9hdTk7cTjsSl93tcvgQ2u2Sipt2u52CMG6nVFyMmxDGxXDiZhiJWCzmKrxlZmbGx8cnJSU9ePBgCqhNBbLc3NzExMTy8nLbQFuvqbyjXtdWe7KttgBLYVtdYXvdqfa6ovb6ovb64vb64o56XUeDrqPhNJYzHQ/PdD48i8RwjhWz4Svzd1+ZvzuP5YL50QXLoxIsFy2NFy2Nl7oaL3cZL3cZS7F83dX0dXeTHsuV7uYr3c1Xe5rLeh6X9Ty+huV6T8v13pYbWG72tt7sbb3V23qrz/RNn+k2lvK+tvL+tm+xVPS3V/S3V/a3Vw603xnouIulaqCzytp5D8t9q/m+1VxtNVcPmh8MWh4MWmqQdNViqRvsqhvqrsfSMNTdMNTTMNTzEEmvwdb7HZZHtr5Htr5GW1/jcJ9xuN843N+Epdk+8BhLi93aYre22q2tDqvJMWhyDLZhaXcMtdNDHfRQJ23rpG1m2mZ22izOYYtzuAtLt9Pe7bL3IHH0uhx9Lkef29Hvpvvd9AAWq9tpZZyDnLiGGNeQx2XzuG0e9zAWu4exjzAOLPSIhx7xOEc9rtER1+iIGwszOsqMjng8HsZgMHzwwQdpaWlut3tSqE0OsuHh4dTU1JycHCc91N1cZqrJN9Xkt9WcBMjCG7KxUc/YqGcUscbo9frk5OTh4eHAOZscZCkpKTdu3BjsaWyvKzLVnADIBrsiwpKxkI2NjoyNIZtmMBiSk5MDt2eTgCwrK+v48eODPY2mB8dND04AZJHjLknIxsZGR0dH9Hp9UlJSgMYsUMiMRmNiYqLTMdRedwogi7SYTAbZ2Niox+PZsmXLz372s+3bt0+IWqCQpaSkVFVVdTVdwYSBJQvDwN/D0DRNO520MvBXQjY2Nvr48ePFixfPmjVrzpw5/jkLCDKTyRQfH2/rb2mt/hIgC8u7Sw/joGl6eHjYbre7nLTs7lIJ2fg48pobN258+umnKYr60Y9+5IezgCDLzc3NycnpfnwdIAvLRxgexuFwOFpaWtLS0jIzM202G+ZMfIThFbKxsbGSkpK5c+dSeHvmmWd8cRYQZKmpqeXl5aaaEwBZ+EHGuO0sYZs2bVq0aNHrr79+5MiRwcFBp5MeQQ/M0HMyr5CNj483N9bExMSwkFEU9eqrr3rlLCDIkpKSjEZja3WeX8gO7HpJqI5LrM6Z6sPYvNf5sl7XNe58D39473hpl3E3m37/uK+HsQUZv8O5f7fxPnoeyz2MPZOEdy7YVG06uBYnkwvhYeywx83ZsE2bNr3xxhv79u1LS0t78803s7KyBgYGUHzmF7Ies5GEjKK84+R9r4zH2NjYoaGhKUBGUdSCjw5N+ol/2foozAH+M1nIrt3b8Tw+8e0zImT7WbAW7tT1AWTiE3/Rhr3xxhvHjh3r6uoyGAxpaWl//OMfs7Ky+vr6nE7nyIjblyUb7HkUHR0t9hVFLV68WAbP+HhgU+Kio6M9Hk+AkC348CD+WenQ7nm49nnvVUz2Z6W81zi8Hil/VprQkl3rufXXhfj8tSd5S3Y7Fe95/vPb8LOS8LOSnabplpYW1oYdO3asoaFhy5Yt+/btq6ur+/jjj+Pi4o4ePdrb28vaM8wZehg7NjY6NjY6Pj42Pj6uhOypp56aSciKKj76Fe7r2FP1H63BqTVf4MS8tZX4t8vKj3+Dd+M/85Pv4N8uixPEfSi16lOLX3d5JlHM/34++9tlIecxEz9n3eX9ndi2LUitRr9dyt3ludViCcmn0G+X53FzX/7sAv7t8sg6fHxdMfrtsm4Pjgney9b6b5fsvWRaWhprwxoaGjZs2BAbG/vWW2/t37+/uro6PT39nXfeKSoqomna7XIGCJlXjxmQu5ySJfs713fIknGQcZ2JISuSwYSOvVb83flJQXbmXZEPNoU5u37vU0wVCstu9raeyliADi7cWYx/HZdARhLGlpB86m7N7hdROmprbec9a9FKdj/1Xtag+cEFHBKu02n+OZnTSdvt9uzs7Ly8vPr6+g0bNixfvjw7O3vPnj1vv/32/v37q6qqsrOz9Xq90+l0u12hBRnXJfy/1TnFHQJk896vaMCjMK6sZaOuNcfQQAzz1WT2Y9TH2ebvLpjl7tJH4H8jBTvBuRk30SiMezvwvXRiRs/j6z3fsB7z+Yxvbvbe3sj7SnYUBgFZ+WZ86IXPK9AoDI6tNYcGKra+jNq/8nznvdrP+NuZqG115kv7UUNf2n9X85B53MM0TTscDoEwnU5H03RHR8fevXuXLVt24MCBjo4OZMY4wjzsb5f+3eUMWTKeLoqiYk9xQ30Ed3m6g4UsdynKNj+5Eo/2MRu+4gxYQvokIDv+JlEXn/zd/957fL2nhfOYCz891VvwNjqGfKUCssJl/GnE/wVbajoyk9GOF/dXXkBURa1ch9haecF8FLnOqL/XaX+oD/vkor6+PiUlZfny5SxhTid64t/e3r53794VK1YcPHiwvb3d6XSOjqBRGCEEGR/4k+PJ5JBVpv036sQng+zeJ+xjwDfPeBtPdp/3mBn44cXCnUX8eDLRkj3Y9QKGa9k5xXgyNixbV5S5jqJe3lNynvWSe7YjC/dedhj8dinEZMuWLTt9+jRN0y6nY8RDMwztctImkykjI+Pdd98N8ZjMH2SdPtzle3nnp2DJFu7IZwct3tvxVsata8hdtlzv/YbzkgtRQPZ8xm1h0KIIWT9vyRbuPscOWqzZvWJfxd2Bjqqaz1BY9nIU+ruu+L61GEVmL0ch14kCMu1bMhyS2QsKCkTCGG7Qoodxupx0a2trQUHBzZs3nU6aYdinGBPfXc6QuwzEknU+POsl8J+/Dt9gBhyTNR3n7iJFXzdXhKzllHh0Qep9cWQsAVnbmc/xPYFYAPUiC9lAJRuW4cjMfN96ZxuO0iiKeudCuIyMdTnR75VOpxPZMDQ4VhwZ6/E4XU4n+3s5w7BRv9bcJTv8WsIZisb44dcBBv5oBPYV8hEGhaJ+3pK13OA8JrqvLCKGX5OQfdvfViG5wVxziB9+jaMxFIFtq0XDr0twyE9RUdtRQKZ9S8YOv3a7aJeL9jr8emTE7cZTAfz8rKR8Tqa2JYMx/mE7xh9H/SFhyQAygAzFHao+8QfIADKADKbETXVKHLhLmHep+rxLgAwgA8hgBnmv5meQgyUDSwaWDCwZWDLlUw3lnsDGk8EjDHiEEbRHGB+uoWJPwVt9tPxWn1CLybYRg5nZ8WQAGQT+Su+o2BOou8z+PUX9alcp/36yr9es/uhQez1ABpApkFLuCAyybaupX+26rHwJnghZxUd4rCJy3EuL+JfgiWMxuIEYF4pXoRxoQ7NI4CV4wX8JXsi4y+zfUy8lldf6gezw7j9xY/yLEqiotCz0msVjS6n5yXfINy3mvUbNX38X3rSIXrYYKm9aDCXI4re1+YOMeJ1n7lIq4WMEGZpCsrSYhOzq+ijqNR1ABpB5eQle9u+pCSH74lXOD1IUBxlrzNDepcU+By3CO2OD/M7YkLFktRPFZF+8SglT4gRLxs9WMuctpYTh1+yLifNep+b/+S7EZCHwYuLQgayg/O+/8nN3iaL+P33ETolDwT7rLgXIriZHySArWx8FkIXG269DCDL0ivXsP4gOcd6aCjTvUri7PMy9HYOi1iTwMdkxPAETnfObPVfxGH9ugD/eU6Z8F0ZplxFesT7Tr1gPMci8BP7wHn94TqZ8LKbYE9hzMvjtEn67RC5Jgc90vjoKIAPIADIY4w9j/MXJvbC2UoitrQSBP4yMhZGxMDIWRsYq7wWUe+DuMsKXIgR3Ce4S3CW4S3CXSueo3APuEtwl9pjBfwkePIyFh7HwMBYexsLDWHgYG7IL3cPdJdxdwt0l3F3C3aXyXlK5B+4u4e4S7i7Rsjc9j8vwq6/Ft1/3iksR3iLefn27z1Te11be3wbrXQ573HYPY/f69uvRkQlW7vW6ShyMJ2OXvQHIbB63jX3FOkBWYvGy3iWM8bc4h2GMfx3/Loz6onZuAS9dB7zVB97qowz2yT0Q+EPgD4E/BP49Lkevy9HncvS5Hf1uut9ND2Cxup1WxjnICTzxhyf+kf7E3+12dxgudhgudn53CcvlzkeXOx+Vdj4qNT8qNTeWmhu/xqI3N+rNjVeQGK+YjVfNxqsWY5mlqczSdI2T5mtdzdex3OhqRtLdfLP7sSC3ultudbd8g+V2dyuSntZyLN/2tH7b01rRY6ro5aSyt62yt+1OX9vdvnZBqvraq/ra72G539fBSX9ndX/nAyw1/eaaAU5qB8y1A+a6AXOd1VxvtbDSYO1qsHY9xGKwdnMy2P0dlkeD3Y8GexoFGeo1Ymka6m0a6msa6mtmxdb3GEuLrb/F1t/KyUCrbcCEpW3Y2k5Ix7C1w27ttA922gfNnAyZHUMWx1CXw9blsHUT0uOw9ThsvY7hXnq4D4m9j7b30/Z+p33A6RhwOqyCuByDnNBDLiQ2l1OQYZdr2O2yY3G4XUgYF824acbtxOJiGJeHE7fH4/Z4GCwej8cz2NsSHR2NfhUnNjLQYtNeZskpM0VHRw8NDT2EDTQg1UBfX990QsYwTGt1HghogNQAwzAAGXwr1NUAQKaufskvdMSmATKATHUNAGSqqzhiDZhw4QAZQKa6BgAy1VUsfKEjNgGQAWSqa0BjkBWsJJ4ZUxS1cnNrdcbOlyjqpVW3/T2fQ3kWbMvwaksKVvo85DU/7JysBjQIGQJrsl8+gGyyGpvO/ABZHliyyX9pJ4dg8CFrvJMT+EUidym3ZHIrRbjUJQWczfOdZ+VmCWRZSwR/nJQ1OVUGfhWRljPIkN2/9s8F8+euWhEboN4nhIzMcHvbc3ysJoEM5RFiOEwVF66VrFpAPbezBLNVsmonQDbpsMT71zKYkLGEPfvss0v/ED0JyARTQ1HY2BAAIUoE65XXWr05iYNGlocnCStRtGTy072rLMCmQjZBA0GDTCBs0pD5cZeEsxNQlIOI8pAgkjEZYpGi4GZzmr9dwYGMJGy6IZMAxH+ZCEvmDzJWuZuTMKEQk/Hae1LmggCZjLDphIwMqiTxBAGZPA9xiDgFxXNyk/mkup6uPtNcOUGA7PXY6Gel2+RiMnnfSyiRBPXVGTtXsg9pyTwoLQT+CCbBP2YtEawXeQOhuU4NtQYHAbJTOVs/3JRAysXC9AD14q3vSYDyuB8A+IiMh8ZnngXbMqSBP3+mcPtJmLcAGwnZZBoIAmSyFsDHsNcAQAaRluoaAMhUV3HYG6oJLxAgA8hU1wBAprqKJ/yih30GgAwgU10DAJnqKg57QzXhBQJkAJnqGgDIVFfxhF/0sM8AkAFkqmsAIFNdxWFvqCa8wOmHjIENNKDQwDS/1UdRPuwADUz3q6NmUqOXvi7bn3t6JmuEuqamAU1asuoHD2I2n6Xir89KuLoyHTibWtfP3Fkag6yz07zqU92shKs/T76cefzs0fxz308oA85mjpcp1aQZyKxW6/Z/FP/rn/Q/TCjberCovqGBFeBsSv0+oydpA7KsE2f/bbX++wll73yiq7p3XyAsBDnTp/DDaymKStE/cWc2HY6hqJjDTU9cUBALCHXISi5f+c+/XJqVcPV/tpy5cu2mDC/2Y21t3ZpdxVT89eNF54OoSobBQBBg6Q9rG47pUmZIQ/bPvNNU/PX/Wl+Sryvxild9Q0PhmZKX/vrVv79fuvRDne785enSy1TKQYxp3OZM5bInPiekIdtysOjfVutXfaqrra1TQnbp67I3PtT9S8KVrQeLDAbDgdwzZy6UTnzFXA7k1gijgwARPxI+T9jpbR+LlR55NISXrExJWyY8PSZG0iCGK0xOLvrMb37bJqk9uB9CGrJdWbpDX5795Z8vyzi7/W3Fus+Kvp9QtuqT4qp792022+SVKAOCgIzs1qbDh3FYReYmjrM9Llov+We+WQGdTmZiEGO4XKI2mT+eoG183SHwP9QhO3m65M7dKoGzqnv3Pz5c/MOEslf+78xlfZnFYrHb7fX19atXr16yZMm+fftomg5Mq9IuxeEUZxhQtwo2Ahcm38MDoAjCUG4WNDJYD/R0skmSKniKhZ3EJfosnMgT7KQGILNYLCxnr2478x/Jpb/88+V83YWOjg6LxdLb20vT9CuvvLJ+/foTJ07Mnz//yJEjgamU7FEODZ4sDhO+a7FV4T2U8B9nRjnFbGTFqHje/bFp4Uyc8Hq62CYRJ6IK8TBRk8/CiTzBToY6ZPm6Cxa8Xb128+fJl3ccKW5ra2P3WCyWwcHBmpqa2bNnd3R0MAxz6NCh999/PzCVynpMbhAEshANsrxiBQQB4k4+JRwM/HSeLf4/Rz/HsddyvO7kmxAi/0MasvOX9Em7dBWVdywWi8FgWJF+2mAwCIQNDAwwDFNYWDh79uxyvKWnpy9fvtxkMgWgXBlV3vuKyyTgIi/X5wGckS/TZy7lAZYufYror4k8RFJsiNed4uGQSIU0ZAzD5J8uYTmTQVZReefx48dFRUWzFVtUVFQgqkUI8K4OpXnnxuhTeL8pmjAyMwq7UtgHYNIebjocI5wpDdIDOh03uulwTEwMGRNKqsDt5OsgA3/+Qoi2BaKDGcoT6pAJnJVeucZasvqGhgPHzqxIP93Q8PDo0aPvvvtuO7GVlpbOnj07MOWxaLF4ob7keg8l+Y3sPHEvnxMH+WIWzCR/pkgwD494RMREGdLh2vkMUneJCxIbLXxFhHsNXANxbmBqUD+XBiBjOXtnh25F+ulDX55d9WnxziO6hw8NDMM8GWTqaxdqwBrQBmQsZyvST2/8vOjW7W+FvgPIBFWEckIzkDEMYzQa7XY7qc2jR4++9dZbpcSWlZUVsLskS4K0ihrQEmRKNVy8eFER989eunSpMifsCaIGtA1ZEBUHVQeuAYAscF1BzilqACCbouLgtMA1MM2QWRpLQUADpAbcbvc0QzbhfGLIEGkamP4Z5JGmQbjeCTUAkMG7MFTXAECmuoon/KKHfQaADCBTXQMAmeoqDntDNeEFAmQAmeoaAMhUV/GEX/Swz6AxyNACXsIKztKltfwc8t2LsoW9pgicuASYtEm+651iRRotUIuQKde6z2tFq1j65E/SN1lLhHUI2SXluAXIn4APgEyiYYUmgw9Z450c/00kj6LuXLlEutA4sgp4TfvnxGXqFdcpFgKQ+VGOOoeCDBm7iu+qFbEiBH6vE9uMzTtfki0Tjhe0z1olgww7UHZYPbdmNLGHNYecuxT2y6wau+QqW4TskHAKtXKzxJIR66Dzq21GlnNUdmUwIRPWiZ7Uyr2osyXWKI/7KF33GUHAr/GL7Ry7hC+fmUMZQUZRFEcD4uO5nSUcExgjYUVztDC5wBk6JKy6iqniDpFtKFm1MyvS8WKBCxpkAmGTXYMcdyfqct5OIFBQWtrBUpeKTR1LjwRQDBnPoiREI0tjiUQwYeYUh0RLhg4JXAJhnAaCAxlJ2JQgw0EYC4fQr2TfEz6LdXYScyUYoWrOXfIWnvgoICW4b6F8xSERMlyguKi5cG5kJ4IAmYywqUHWWs0ZJ7GDBQiqsU/0ZVEUlkxwghJLpiBJtJSKQ2IbOJiQoRWxjmzCWqvzggDZ67HRz0q3ScdkuNtw165KEqIoEjIyLevjACFTliCcKD9E2D+iLhQIio44ol1nECA7lbP1w00JpFwsTOcd1gSdIbEZqLPF6F60NDyCYmxenbFzJRH4i0ZOxofkoyS6R4ZTEgUKhbN3oJw5zFrCR4p55J1HgFcXrtmCANmTqFICGQ6AhE6VQcb6PnlAhvhDJKENmRkJVYqPGBS+CLEishB8yym2iuWePUWM/Cb45jyJQjRxrsYg04ROoZEyDQBkkW5mZECo8REgA8hU1wBAprqK1bAN2ioTIAPIVNcAQKa6irVlddRoLUAGkKmuAYBMdRWrYRu0VSZABpCprgGATHUVa8vqqNHa6YfM7XKAgAZIDUw/ZIG/swpyRo4GpvnVUZGjOLjSwDWgPci+La/4MLFg67LCsivXA79OyBlEDWgJstqa2j2bT659sXjf9vx/7Di5/re6T/+SX1l5J4jqg6oD0YA2IDOZ2g7tQnjt2pBfduV6A96uX7uZsS0/+YWzn289YTQaA7layBMUDYQ6ZFarNS+zaP1vi7cn5F84d5nFi/yrLy1LX4v4O5JR2NXVFbgSiUWK0DjDqS1JxK/DlKJnFzjiFlpCu4k1l7w0CtWurJLbi0v1f76XIkN3V6hDpi8tS37hbGpsoVfCWNpKL13529snk184e+HcJBa6l3SzfNmswDpMUgR5ysSQiQvQEef5LI/Io8VkqEN24dzlzL0F+7bnr32xePs7JwtPnK2trRMsma7wq/S1CK+9fztxaPfJqUPGrhw4WeNBrH0q7fsAIPNCWbgyxmgAsqz9hRaLpaamJjOj8C/Rus1LTx7LLDqeo9sah2L/f+w4efdulcViydqPrJ20s/19knUpzwX7X4+XIyScHz/YX+AQ5RM25Pj4AlCdZBp9RnVxm+gjZQ0gqJv4dAneuClCuZJD/hQwc8c0Axm7YG9TU9Pxo7q//qEoZVFxzj+LHj4UF/J9Qsj4Lsc9RgRUmA+yB6XHBOgkYEko4UtW0EcekKxBHcDpJEq4iXxD0LlCc2eOI781aQwyFrUTOboTOTphnWg28USQoX5iuwlDJvSSpLuxIkkyyJ72BZm808lzfJVF1OrrdCILWkw6JYVovtB6vz0/gwcjGzLeh/GEKTwdiQHbK0TvIgfHGxCpiyQyoRLkm0CBWLyvonyeLtDHLljOL1vO/59BhCauKrIhE3pbVBTBBxdMSTORx32RQVo1kSOxDjHFH5WUFNjpHGUcVeInEXuxmiCnADJZB5AQSc0Tm5HEgUyTZJBpaXmyyvhITFKQpFY/p+OT9Idj2C9B0+GYmMN69KdJUUmwd2gAskO7T7a2tpIRmDIma29vf8JHGHxHyHsV2Rqx43jLw+aWsEGeSKbxXaNYQtPhFAkGKCtFViF32dIGkKejI+KZbEFiRfwFhcD/UIfs4UPDvu35e/+WX3TynNFoVAb+ra2t53QlGTjPg+oHgatUyotwnoQPdi/bmWxgJfGdgUHGWiYhLpOUwBFFYIyqlLWB41DZACl/0k/CBYVAItQhYxjGbrdfu3rj4Cf5uzfmn8jRVVc/YC1ZQ0PDqRNnd2/M3/9Rvr60bGBgIAT0CU3wogENQCa0urLyztEDhbs2IMOWsRUxd+izgm9u3nY6nUIeSISgBrQEGau+hw8NJ77QfXlUNynnGIKqj5wmaQ+yyOmbsLlSgCxsujJ0LwQgC92+CZuWAWRh05WheyEAWej2Tdi0DCALm64M3QvRHmQwJS50afLRMi1BBlPifHRiqO/WBmQwJS7UOfLbvlCHTL0pcdKh98IENdmP036VBwcD00CoQ6balDg8tIEYEaE/zI7AAcgCA2cyuUIdMrWmxPlkyeeByWgV8ko0oAHI1JkS52M4GT+WSxhDJhsFiA0gNzZMOKQYVybOF5Ickmg+gj5oBjJ2uOI0ToljcRFA4fuco4hzpNKBgJg8wcUSx0iUcCa+WFSacAJfRcT91xhkypGxwrDsyU6JQ13N2yWeCX6XyAXKwR0lkhwmiCeclTiEJnaE9gS1mWc8siFj9Y1tD29wCF54DDnIBKSEXhLzohTGjZ08xE9M4/8LZ0RmAiDD/S7FRWbYAoAM28QUPZo0gljjmCO9aGTixV41QMbqQTBTIm4y+vhbAoIWEiKc1sQENeICZiipAchUmRLXxM9XFFDi/KVvyNhJkqKVE7hku4p1uvxhVIw4XW2GOjNUqwl1yFSbEscywU9U49nwOh1NPCh5Pw8fxfFdi0oUs0o/8Xki83+oQwZT4sKASw1AJmgZpsQJqtBWQkuQsZqFKXHaIgxWJNFcf2mywdqzZJpUc2Q3GiCL7P6fkaufNshiY2OtVuuMtBkq0ZIG3G73tEGWlJRkMBi0dPXQ1hnRwMDAQEwM8aZw/GhyXLFRij1edqSmppaXl89Is6ESLWmgubl52iDLzc3NycnR0tVDW2dEAyUlJXPnzuV/WuH+K61UQJbMZDLFx8fPSLOhEi1pYOPGjU8//fT0QDY+Pp6SklJVVaUlBUBbVdZAc3Pz4sWLZ82aNW2QGY3GxMRElZsNxWtJA1u2bPnJT34iI4yivPhGL7uUPpXdk5WVdfz4cS2pAdqqmgb0ev28efOUhD0pZKzTvHHjhmoth4K1oQGDwbBo0SKlo6Qo6plnnlEaqUlYsvHx8eHh4dTUVLjT1AYL6rRSr9cvWrToe9/7XoBmbHx8fHKQsZDm5uYmJibCkzN1OjF0SzUYDB988MG8efO82jCKon76058qzdgUIRsfHzcajampqXFxcQcOHCgvL6+CLaw1kJmZGR8fHxMT8+Mf/9irAWN3eiVs6pCxxVksluLi4gULFkTDFtYa+MUvfvGDH/zAD15e432Buam4S+FkIfHUU0/5b6/IxZgAAABzSURBVAEcDW8NCCR4TUwPZOPj43PmzAlvPcLVedWArziMpG3aIGML/fWvf+21KbAz/DQwZ84ckiQ/6WmGzE9NcChiNQCQRWzXz9yFA2Qzp+uIrQkgi9iun7kLB8hmTtcRWxNAFrFdP3MXDpDNnK4jtqb/B4oFmrdwbXqnAAAAAElFTkSuQmCC;" vertex="1" parent="1">
          <mxGeometry x="920" y="585" width="204" height="233" as="geometry" />
        </mxCell>
        <mxCell id="1T_SigNr_V3jTHDhT6Bn-10" value="" style="shape=image;verticalLabelPosition=bottom;labelBackgroundColor=default;verticalAlign=top;aspect=fixed;imageAspect=0;image=data:image/png,iVBORw0KGgoAAAANSUhEUgAAAMwAAADpCAIAAADnIU8gAAAfqUlEQVR4Ae2dC2wU17mAR6jVza1UqVXU3qqq1ISrSlxdKW1T0SiBxkDjC0KJFQJRGvOIY8AkwSVlaTE0PJoYhwAJDo8Ug8Exjm38WgwBE8wa80gwBgx+YLPBa2Ov1/b6/Vjvzu7OYvvqnHmdmVnba7PLzuz+o1/2zJwzZ87859v//2fmnDnUKCyggQBrgApw+VA8aGAUIAMIAq4BgCzgKoYTAGTAQMA1AJAFXMVwAoAMGAi4BgCygKsYTgCQAQMB1wBAFnAVwwkAMmAg4BoAyAKuYjjBI0FmtVoLCgoSEhJ0Ol10dPQ8WEJLA9HR0Tq8ZGdnm83mKf9apgiZyWRKSEiIjo4+cOBAWVlZRUWFxdxgH2jjpd0+oBSrfQDLoNUuFcdgxxjS6bAppcthkwtt66aHvEoPPaSUXtruRZz2Pm/S73R4lQGnw5vQA056kBUXPUiIzUUrxDnk8i52l5MTt9OOxGV3uxxjCO12ScVNu91OQRi3Uyouxk0I42I4cTOMRKzW9gq8HD58OCYmJi4urqqqagqoTQWy9PT01atXl5WV2fpaus1lrbX6lpoTLTU5WHJb7uZa7uZZ7uZbavMttQWW2oLWWn1rnb617iSWwtZ7hW33TiExnmal3fh1+/dft39/BsvZ9vtnrfeLsJyz1p+z1n/TUX++w3S+w1SM5UJHw4XOBgOWks7Gks7Gi12NpV0PSrseXMJyuavpcnfTFSxXu5uvdjd/2938bY/5ux7zNSxlPS1lvS3XsZT3Wsp7LTd6LTf6LDf7Wm9hqehrq+hvu43lTn/7nf72yv72yoH2qgFr1YC1GklHDZa7Ax13BztrsdQNdtYNdtUNdt1D0m20dX+P5b6t576tp97WUz/UYxrqNQ31NmBptPc9wNJk72+y9zfb+5sd/WbHgNkx0ILF4hi00IOt9GAbbWujbe20rd1pszqHrM6hDiydTnuny96FxNHtcvS4HD1uR6+b7nXTfVj63c5+xjnAiWuQcQ16XDaP2+ZxD2Gxexj7Q8aBhX7ooR96nMMe1/BD1/BDNxZmeJgZfujxeBij0bh+/frExES32z0p1CYH2dDQUEJCQlpampMe7GwsNVdnm6uzW6pPAGShDdnIsGdk2DOMWGMMBkN8fPzQ0JDvnE0OMp1Od+XKlYGuesvdfHN1FkA20BEWloyFbGT44cgIsmlGozE+Pt53ezYJyFJTUzMzMwe66s1VmeaqLIAsfNwlCdnIyPDw8EODwRAXF+ejMfMVMpPJtHr1aqdj0HI3DyALt5hMBtnIyLDH49myZcsvf/nL7du3T4iar5DpdLqKioqOhhJMGFiyEAz8PQxN07TTSSsDfyVkIyPDDx48WLBgwbRp02bMmDE+Zz5BZjabY2JibL1NzZVfAWQheXfpYRw0TQ8NDdntdpeTlt1dKiEbHUVec+PGjU8++SRFUT/5yU/G4cwnyNLT09PS0jofXAbIQvIRhodxOByOpqamxMTEw4cP22w2zJn4CMMrZCMjI0VFRTNnzqTw8tRTT43FmU+QJSQklJWVmauzALLQg4xx21nCNm3aNH/+/MWLFx85cmRgYMDppB+iB2boOZlXyEZHRxvrqyMjI1nIKIp69dVXvXLmE2RxcXEmk6m5MmNCyHJjhDOilYiPDllqP3wH73vnS98fxu58Fx/ybgb/MDZzCV/uH+bMxqsv6m6j57Hcw9jC1ezOv99+kPweXl17Ah7G9rnpCR/GcjZs06ZNS5Ys2bdvX2Ji4uuvv56amtrX14fis3Eh62o3kZBRlHecvO+V8RgVFTU4ODgRZAd2v8CTwP/3D2SX35/DF0hRS/Ym/QFvvV4oQraXBWvuzpwugGwST/xFG7ZkyZLjx493dHQYjcbExMS//OUvqampPT09Tqfz4UP3WJZsoOv+vHnzxMahqAULFsjgGR31bUjcvHnzPB7PBJAde5k92Zo0/rXShXfW+MWSZS7GJS85yb5WuryeZe69TN6SXd0wF+WYmfwtvFby/bWSnabppqYm1oYdP368rq5uy5Yt+/btu3v37o4dO6Kjo48ePdrd3c3aM8wZehg7MjI8MjI8OjoyOjqqhOyJJ554vJBx7y4Fd5myZxYH/Tvp4rvL/FhuJ0VR72acaf/+bPt90V3qV4qpaG3Vng5T5t4X8c5Vn7Lu8vZOHHu++Pfb6N2l3F0WxoklrM1F7y5P4z1zdxfid5f/jsfp8Xno3WX1nufR1juHQ/7dJXsvmZiYyNqwurq6DRs2REVFvfHGG/v376+srExKSnrrrbfy8/Npmna7nD5C5tVj+uQufbJkNdvWiK35Sp74gpyDTExEa4vy8QtykjA2w7sZE0J2oeJj7DFRWFbS2ZiZjJmbu/MEfjsugYyL1Yhzr829VrnrObQjYnNVy/Xe3KVc4ppDfZabZ3D8GJ8X+i/InU7abrcfO3YsIyOjtrZ2w4YNy5YtO3bs2Gefffbmm2/u37+/oqLi2LFjBoPB6XS63S6VQJbTcj4ugmhOatY75agXBg/Z2x+hXhhfvoqz/P7TklNtF+Ox43v2s4uoF8bNHc+ipNidpCVDvTBk7tJ0oePKes4/XinpvKrjfSXbC4OA7LuNOOmPyddQL4zKXX9E5ccd7Lm2Ge9ferrletVuDBxi7oNqy+l96AKe31ce+pB53EM0TTscDoEwvV5P03Rra+vevXuXLl164MCB1tZWZMY4wjzsu8vx3WWgLRnf1ad4jYja2x8KkHF3l4a1OBVDdnwRySS3PnvdTcJdeoesgbdeH2d2Zr2ODkS+UgHZiTe9lB+xqdJ8cC1KeO7zssLPIygqYmk8qtOyM5ZDyHVGbKluDX3I2CcXtbW1Op1u2bJlLGFOJ3rib7FY9u7du3z58oMHD1osFqfTOfwQ9cJQE2S4P1ke9ywjKo+3ZErIbrCmi1pUIO9PJsZkY0B24fbHbBymS8YPL7CvlEN25xNsuqg3CxX9yU5j1x6f+0U8Rc3dU8ht7vngzyggO9QXBpAJMdnSpUtPnjxJ07TL6XjooRmGdjlps9mcnJy8atUqlcVkx16O+NeBlhqu0yIH2ax3y8eGrI23ZHN2HGU7Ld7c8dpnFyUx2ViQdV7hvORcFJDNTL4qdFok3CVvyebuymc7LVbuiv782rUec1kl9pJzI5CvjM8r781bRlHUnyNQ1B+fdyscIMMhmT0nJ0ckjOE6LXoYp8tJNzc35+TkXL161emkGYZ9ijHx3WWA3SX/CIP0UF6ek5Hu0nj0U/bJqnjMs75CxntMdOiLG26LPWMJyJry2HsCsXjqORaynjI2LKMoaulpS3lv+Qc4SqMoavkZ1Dk29N2lxz3kcqL3lU6nE9kw1DlW7Bnr8ThdTif7vpxh2KhfFe6SvLtEzbomje1+LTzCwE/8JZCh7teSG8zYJNkjjDEtWYOB85gUNXdnNtH9moTsSnfTVfIRBor6UQ/ssp6WkygaQxHYP6tQ9+vT/OaW6rCBzOMecrtol4v22v364UO3Gw8FGOe1kvI5WYAtGfTx7wzZPv446leFJePvLmEgScgNJAHIYLRSwEcrAWQAGUAG4y67NT/uEiwZWDKwZGDJwJIpe/8o9/jWCwPuLuERBnryqOTHyy5lJoAszL+FATEZxGQQk6EX5FF58FUfLX/VR22WjHyDGZXHdVoEyLT96Sg1QYY6Yvx2d7FyIAlABpApQ33pHt8C/21rqN/uPq/8CJ7oLss/+j3u+SD28Zf0wkBdMNBAkgJh8MjKT1AvDPgIXrA/gqcaS3bsZeqFuDK+0yLxpUUBspQ9b79XXoe+tJgfS81JTEWfWTy+iJodf5PsGZvxGjV73S340iL62KJavrSoJshitgk9Y71BRowgT19Exe5AkKGxJNLu1xfXzaFe0wNkAJmXj+Ade5maEDJuqBL2mSxkrDFDOxYVCN+MzXgN51isv89/pgC+GRvUb8aqxpKhcZfjxmRfvkrN4txlm2DJ8LeJ0YeJMxZRs/96E8dk3IeJMxZTs9+/BTGZCj5MrB7Icsr+9dtx7i5R1I+GXnIxGecuBcguxs+RQVa6bg5Apo6vX6sIMvSJ9WOv8PePFDG4l32EQXymIJaPyfgBSxT17GcX8SfWOV9JoT2l4C5V8Yl1lUHm5e4SvuMP/cmkj8S8bvn2nAx6YUAvDOTGlAh52aXMBJBBLwzsMYM+uBeGxMGQOByPK40UWDKYW2niuZUg8If+ZNCfDPr4Qx9/pQdV7oHAHwJ/CPxhvsvAzncJMRnEZBCTQUwGMZkyAlPugZgMYjKIySAmg5gMJrrX+ET3EPhD4A+BPwT+EPgrw3zlHgj8IfCHwB8Cfwj8IfCHwF/pH2V7wF2CuwR3Ce4S3CW4S3CXMueo3AR3Ce4S3CW4y5Bwl263u9V4rtV4ru37b7Ccb7t/vu1+cdv94vb7xe31xe31F7AY2usN7fUlSEwl7aaL7aaLVlOptaHU2nCJk8ZLHY2XsVzpaETS2Xi184Eg33Y2fdvZ9B2Wa53NSLqay7Bc72q+3tVc3mUu7+bkRnfLje6Wmz0tt3osglT0WCp6LLex3Olp5aS3rbK3rQpLdW97dR8nNX3tNX3td/va7/a31/ZbWanr76jr77iHxdjfyclA5/dY7g903h/oqhdksNuEpWGwu2Gwp2Gwp5EVW88DLE223iZbbzMnfc22PjOWlqF+CyGtQ/2t9v42+0CbfaCdk8F2x6DVMdjhsHU4bJ2EdDlsXQ5bt2Oomx7qQWLvoe29tL3Xae9zOvqcjn5BXI4BTuhBFxKbyynIkMs15HbZsTjcLiSMi2bcNON2YnExjMvDidvjcXs8DBaPx+MZ6G6aN2+eOJz7EQeSDA4O3oMFNCDVQE9Pjz8hYximuTIDBDRAaoBhGIAMfhWB1QBAFlj9kj/osF0HyACygGsAIAu4isPWgAkXDpABZAHXAEAWcBULP+iwXQHIALKAa0BjkOWskD43XrG5uTJ51wsU9cLKa+M9n0N5IrYle7UlOSvGTPKaH3ZOVgMahAyBNdkfH0A2WY35Mz9AlgGWbPI/2skhGHzI6m+m+X6RyF3KLZncShEudWEOZ/PGzrNiswSy1IWCP45LnZwqfb+KcMsZZMjuXPp3xOyZK5dH+aj3CSEjM1zb9gwfq0kgQ3mEGA5TxYVrRSsjqGd2FWG2ilbuAsgmHZZ4/1kGEzKWsKeffnrRK/MmAZlgaigKGxsCIESJYL0ymis3x3HQyPLwJGElipZMfrh3lflYVcgmaCBokAmETRqycdwl4ewEFOUgojwkiGRMhlikKLjZ9POvKziQkYT5GzIJQPyPibBk40HGKndzHCYUYjJee4/KXBAgkxHmT8jIoEoSTxCQyfMQScQhKJ6Tm8xH1bW/2kxz5QQBssVR856WLpOLyeRtL6FEEtRXJu9awT6kJfOgdSHwRzAJ/jF1oWC9yBsIzTWq2iocBMjy0rZ+uCmWlHO5ST7qxVvbkwBlcC8A+IiMh2bMPBHbkqWBP3+kcPtJmDcfKwnZZBoIAmSyGsBmyGsAIINIK+AaAMgCruKQN1QTXiBABpAFXAMAWcBVPOEPPeQzAGQAWcA1AJAFXMUhb6gmvECADCALuAYAsoCreMIfeshnAMgAsoBrACALuIpD3lBNeIH+h4yBBTSg0ICfv+qjKB92gAb8/emox6nRby6U7k8/+TjPCOeamgY0ackqq6oiN5+iYi5Pi724Igk4m1rTP76jNAZZW1v7yk/002Iv/ir+/OHMU0ezT/8wthQ4e3y8TOlMmoGsv79/+xcF//m24cexpVsP5tfW1bECnE2p3R/rQdqALDXr1M/XGH4YW/rWx/qK23cEwlTImUHHd6+lKEpneOTGbEiJpKjIlIZHLiiIBagdsqLzJf/zt2+mxV78vy2FJZeuyvBiN2tq7r6zu4CKuZyZfyaIqmQYDAQBliFF23D4S5mqhuzfGSepmMv/u64oW1/kFa/aurrcwqIX/vH1f71XvOhDvf7MeX/pZSrlIMY0bnOmctkTH6NqyLYczP/5GsPKT/Q1NXeVkH1zoXTJh/r/iC3ZejDfaDQeSC8sPFs88RVzOZBbI4wOAkTcJHyesNPbPhYrA/JoCC9ZmZK6THh4ZKSkQgxXmJxctM0v49ZNcvbgbqgast2p+kNfnfrN++dlnF27Xv7XT/N/GFu68uOCitt3bDbb5JUoA4KAjGzWhpQUHFaRuYl0tsVF6yXf5qvl0+FkJgYxhsslzibzxxPUjT+3Cv6rHbITJ4tu3qoQOKu4fWdHSsGPY0tf+mfheUOp1Wq12+21tbVr1qxZuHDhvn37aJr2TavSJsXhFGcYULMKNgIXJt/DA6AIwlBuFjQyWPf1cLJKklPwFAs7iUscs3AiT7BXNQCZ1WplOXt1W+F/xxf/5v3z2fqzra2tVqu1u7ubpumXXnpp3bp1WVlZs2fPPnLkiG8qJVuUQ4Mni8OEb1psVXgPJfzHmVFOMRt5YlQ87/7YdeFIvOL1cLFOIk7EKcRk4kxjFk7kCfaq2iHL1p+14uXipau/ij+/80hBS0sLu8dqtQ4MDFRXV0+fPr21tZVhmEOHDr333nu+qVTWYnKDIJCFaJDlFU9AECDu5NeERN8P59ni/3P0cxx7LcfrTr4KKvmvasjOfGOI260vv3HTarUajcblSSeNRqNAWF9fH8Mwubm506dPL8NLUlLSsmXLzGazD8qVUeW9rbhMAi7ycsdMwBn5MsfMpUxg6TLoRH9N5CFWxYp43Skmq2JN1ZAxDJN9sojlTAZZ+Y2bDx48yM/Pn65Y5syZ44tqEQK8q0PrvHNjDDreb4omjMyMwi4d+wBM2sINKZHCkdIg3afDcaUbUiIjI8mYUHIKXE/+HGTgz18IUTdfdPCY8qgdMoGz4pJLrCWrras7cLxwedLJurp7R48eXbVqlYVYiouLp0+f7pvyWLRYvFBbcq2HVvmFbDxxL58TB/liFswkf6RIMA+PmCJiogzp8Nn5DFJ3iQsSKy38RIR7DXwG4ljf1BD4XBqAjOXsrZ365UknD311auUnBbuO6O/dMzIM82iQBV67cAasAW1AxnK2POnkxs/zv712XWg7gExQhZpXNAMZwzAmk8lut5PaPHr06BtvvFFMLKmpqT67S7IkWA+gBrQEmVIN586dU8T90xctWqTMCXuCqAFtQxZExcGpfdcAQOa7riDnFDUAkE1RcXCY7xrwM2TW+mIQ0ACpAbfb7WfIJhxPDBnCTQP+H0EebhqE651QAwAZfAsj4BoAyAKu4gl/6CGfASADyAKuAYAs4CoOeUM14QUCZABZwDUAkAVcxRP+0EM+g8YgQxN4CTM4S6fWGidp7FaUTew1ReDEKcCkVRr7vFM8kUYL1CJkyrnuM5rRLJZj8idpm9SFwjyE7JRy3ATkj8AHQCbRsEKTwYes/mba+FUkU1FzrlgonWgcWQU8p/0z4jT1iusUCwHIxlFOYJKCDBk7i+/K5VEiBONeJ7YZm3e9IJsmHE9on7pSBhl2oGy3em7OaGIPaw45dynsl1k1dspVtghZknAItWKzxJIR86Dzs22Gl3NUNmUwIRPmiZ7UzL2osSXWKIPblM77jCDg5/jFdo6dwpfPzKGMIKMoiqMB8fHMriKOCYyRMKM5mphc4AwlCbOuYqq4JLIORSt3pYY7XixwQYNMIGyyc5Dj5kRNztsJBApalzaw1KViU8fSIwEUQ8azKAnRyNJYIhFMmDlFkmjJUJLAJRDGaSA4kJGETQkyHISxcAjtSrY94bNYZycxV4IRquTcJW/hiU0BKcF9C+UrkkTIcIHipObCseG9EgTIZIRNDbLmSs44iQ0sQFCJfeJYFkVhyQQnKLFkCpJES6lIEuvAwYQMrYh1eBPWXJkRBMgWR817WrpMOibDzYabdmWcEEWRkJHrsjb2ETJlCcKB8iTC/hHnQoGg6IjD2nUGAbK8tK0fbool5VxuEu+wJmgMic1AjS1G96Kl4REUY/PK5F0riMBfNHIyPiSbkugeGU5JFCgUzt6BcuYwdSEfKWaQdx4+Xl2oZgsCZI+iSglkOAASGlUGGev75AEZ4g+RhBZkZiRUKTYxKHwR4onIQvAtp1grlnv2EDHym+CX8ygK0cSxGoNMEzqFSso0AJCFu5mRARGITYAMIAu4BgCygKs4ELZBW2UCZABZwDUAkAVcxdqyOoGoLUAGkAVcAwBZwFUcCNugrTIBMoAs4BoAyAKuYm1ZnUDU1v+QuV0OENAAqQH/Q+b7N6sgZ/howM+fjgofxcGV+q4B7UF2vaz8w9U5W5fmlpZc9v06IWcQNaAlyGqqaz7bfGLt8wX7tmd/sfPEuj/pP/lb9o0bN4OoPji1LxrQBmRmc8uh3Qiv3RuyS0su1+Hl8qWryduy45879fnWLJPJ5MvVQp6gaEDtkPX392cczl/3p4LtsdlnT59n8SL/GopLk9Yi/o4k53Z0dExKicQ8RcL0XZIJs3wrTX4IPzmTTiedgporDZ1VZ2AnRCImZvLtXJrMpXbIDMWl8c+dSojK9UoYS1vxNyUfvHki/rlTZ0/7PtG9fKIsQ4q3id98alMpZBxD+EhynS/K2z4+LUT/qx2ys6fPH96bs2979trnC7a/dSI361RNzV3Bkulzv05ai/Da+0HWoT0nJgGZFAyiccdMIPLIVqWHEBOiepuONQwZYzQAWer+XKvVWl1dfTg592/z9JsXnTh+OD8zTb81GsX+X+w8cetWhdVqTd2PrJ2s/cfeHKuxOWJQMl5kDk3YL/hXdmZLNhs6WFjwnIDy04jbUjSFmYLR4dxsghJccdHCNIOSpLEvUiUpmoGMnbC3oaEh86j+H6/k6+YXpP07/949cSLfSULGTRIpY4ibC5VsZ3FaSXGOVek8lFJcZO0vUoVanNiSHEXsJybRJItCOYSqoGMF4FRC0jjV0BhkLGpZafqsNL0wTzS7MlnIkFKweSAaj98lNiCBgrxlBQSIPCxHEnJJfoRDlJSKp8Qo4iKIgtGM0TodR5m8JuO0ryqSwhsytgmwkeAtA9GwPIYcM2w2wRviFYyG9BASJFy+SJkkiThq3JLxKdhZyfm5yfn/qiDIh0oAZFhJYouLa7IE0tVJFSs9REISzshTJk0hjuIzSItFWyiTzoBOjVgTtyS2UnmYyvYAZGyDCO1MtD3fylyLylLEhpQmSFHCudjCZQnEUcSqWCq7hg8ypESy3rQhJTIyxYD+NMgzqnlbA5Ad2nOiubmZjMCUMZnFYpn0Iwy23XDjoFbm/KWswSWbCBaxfRtSdN4erclYEssnj5XGZOwNgZeSuVsF8UhcUaIOakZLrJvaIbt3z7hve/beD7LzT5w2mUzKwL+5ufm0vigZ56mqrBKvbII1BIy4kA0cSTaiBDLxTkEMyOS4INcmlsZXAsMh3e1LyehwKdnSLb54lf9XO2QMw9jt9ksXrxz8OHvPxuysNH1lZRVryerq6vKyTu3ZmL3/o2xDcWlfX5/KdR221dMAZELb3Lhx8+iB3N0bkGFL3oqYO/RpzndXrzmdTiEPrKhQA1qCjFXfvXvGrC/1Xx3VT8Y5qlDzYVQl7UEWRo0TKpcKkIVKS6r4OgAyFTdOqFQNIAuVllTxdQBkKm6cUKkaQBYqLani69AeZDAkTsU4ea+aliCDIXHe21D1e7UBGQyJUz1I41VQ7ZBpYUjcePqFNA18cEULQ+IApAk0oHZLpoUhcROoGJI1AJmqhsSxvQbZjmhC/zBJFzKcQ+gQKUkKV9w0AxnbXTH4Q+L4ASeS3oQkSrg3JM8fIk4ALlwZ087g3vG7X09+cC9ucd4u8Uxw3VwJLlAOLpVY5XBBPGGEiCQ05kOzY9cC9DPQmCVTdr8W4JvKuEtWqdj28GARvKBUYlNASmgKMRGtYdzYcUX8mDX+v3BEeK4AZLjdpbjIDBu3OR5kxGg1xBrHHOlFwxMv9qoBMlYPAkEibjL6SKPGEUNChNe1PnaNuy5//9MAZGodEidwybYJ2tT62DV/08WVp3bIVDYkDg9Q40fSyW4bEWWio5VuBaj1NFKs2iGDIXEaAWm8amoAMqH6MCROUIW2VrQEGatZGBKnLcI08IJccwqFCis1oD1LprwG2KNyDQBkKm+gUKie3yCLiorq7+8PBZXANfhVA26322+QxcXFGY1Gv1YPCgsFDfT19UVGEh8Fx08ZRxULpdjjZUdCQkJZWVkoaAWuwa8aaGxs9Btk6enpaWlpfq0eFBYKGigqKpo5cyb/loT7r7RSPlkys9kcExMTClqBa/CrBjZu3Pjkk0/6B7LR0VGdTldRUeHXGkJh2tZAY2PjggULpk2b5jfITCbT6tWrta0VqL1fNbBly5af/exnMsIoyotv9LJL6VPZPampqZmZmX6tJxSmVQ0YDIZZs2YpCXtUyFineeXKFa0qBurtJw0Yjcb58+crHSVFUU899ZTSSE3Cko2Ojg4NDSUkJMCdpp8aS5PFGAyG+fPn/+AHP/DRjI2Ojk4OMhbS9PT01atXw5MzTTLyCJU2Go3r16+fNWuWVxtGUdQvfvELpRmbImSjo6MmkykhISE6OvrAgQNlZWUVsIS0Bg4fPhwTExMZGfnTn/7UqwFjd3olbOqQscVZrdaCgoKIiIh5sIS0Bn7961//6Ec/Ggcvr/G+wNxU3KVwsLDyxBNPjF8DSA1tDQgkeF3xD2Sjo6MzZswIbT3C1XnVwFhxGEmb3yBjC/3d737ntSqwM/Q0MGPGDJKkcdb9DNk4Z4KksNUAQBa2Tf/4Lhwge3y6DtszAWRh2/SP78IBssen67A9E0AWtk3/+C4cIHt8ug7bM/0/vwxKZvcsczsAAAAASUVORK5CYII=;" vertex="1" parent="1">
          <mxGeometry x="920" y="870" width="204" height="233" as="geometry" />
        </mxCell>
        <mxCell id="1T_SigNr_V3jTHDhT6Bn-11" value="" style="endArrow=classic;html=1;rounded=0;exitX=0;exitY=0.515;exitDx=0;exitDy=0;exitPerimeter=0;" edge="1" parent="1" source="1T_SigNr_V3jTHDhT6Bn-4" target="1T_SigNr_V3jTHDhT6Bn-1">
          <mxGeometry width="50" height="50" relative="1" as="geometry">
            <mxPoint x="-20" y="250" as="sourcePoint" />
            <mxPoint x="30" y="200" as="targetPoint" />
            <Array as="points">
              <mxPoint x="140" y="60" />
            </Array>
          </mxGeometry>
        </mxCell>
        <mxCell id="1T_SigNr_V3jTHDhT6Bn-13" value="" style="endArrow=classic;html=1;rounded=0;exitX=0.998;exitY=0.513;exitDx=0;exitDy=0;entryX=0.51;entryY=0.001;entryDx=0;entryDy=0;exitPerimeter=0;entryPerimeter=0;" edge="1" parent="1" source="1T_SigNr_V3jTHDhT6Bn-4" target="1T_SigNr_V3jTHDhT6Bn-5">
          <mxGeometry width="50" height="50" relative="1" as="geometry">
            <mxPoint x="640" y="470" as="sourcePoint" />
            <mxPoint x="690" y="420" as="targetPoint" />
            <Array as="points">
              <mxPoint x="630" y="60" />
            </Array>
          </mxGeometry>
        </mxCell>
        <mxCell id="1T_SigNr_V3jTHDhT6Bn-14" value="" style="endArrow=classic;html=1;rounded=0;exitX=0.5;exitY=1;exitDx=0;exitDy=0;entryX=0.5;entryY=0;entryDx=0;entryDy=0;" edge="1" parent="1" source="1T_SigNr_V3jTHDhT6Bn-1" target="1T_SigNr_V3jTHDhT6Bn-2">
          <mxGeometry width="50" height="50" relative="1" as="geometry">
            <mxPoint x="110" y="790" as="sourcePoint" />
            <mxPoint x="160" y="740" as="targetPoint" />
          </mxGeometry>
        </mxCell>
        <mxCell id="1T_SigNr_V3jTHDhT6Bn-15" value="" style="endArrow=classic;html=1;rounded=0;entryX=0.5;entryY=0;entryDx=0;entryDy=0;exitX=0.5;exitY=1;exitDx=0;exitDy=0;" edge="1" parent="1" source="1T_SigNr_V3jTHDhT6Bn-2" target="1T_SigNr_V3jTHDhT6Bn-3">
          <mxGeometry width="50" height="50" relative="1" as="geometry">
            <mxPoint x="140" y="760" as="sourcePoint" />
            <mxPoint x="160" y="740" as="targetPoint" />
          </mxGeometry>
        </mxCell>
        <mxCell id="1T_SigNr_V3jTHDhT6Bn-16" value="" style="endArrow=classic;html=1;rounded=0;exitX=0.5;exitY=1;exitDx=0;exitDy=0;entryX=0.5;entryY=0;entryDx=0;entryDy=0;" edge="1" parent="1" source="1T_SigNr_V3jTHDhT6Bn-5" target="1T_SigNr_V3jTHDhT6Bn-6">
          <mxGeometry width="50" height="50" relative="1" as="geometry">
            <mxPoint x="150" y="700" as="sourcePoint" />
            <mxPoint x="200" y="650" as="targetPoint" />
          </mxGeometry>
        </mxCell>
        <mxCell id="1T_SigNr_V3jTHDhT6Bn-18" value="" style="endArrow=classic;html=1;rounded=0;exitX=0;exitY=0.5;exitDx=0;exitDy=0;entryX=1;entryY=0.75;entryDx=0;entryDy=0;" edge="1" parent="1" source="1T_SigNr_V3jTHDhT6Bn-10" target="1T_SigNr_V3jTHDhT6Bn-5">
          <mxGeometry width="50" height="50" relative="1" as="geometry">
            <mxPoint x="80" y="600" as="sourcePoint" />
            <mxPoint x="130" y="550" as="targetPoint" />
            <Array as="points">
              <mxPoint x="840" y="987" />
              <mxPoint x="840" y="558" />
            </Array>
          </mxGeometry>
        </mxCell>
        <mxCell id="1T_SigNr_V3jTHDhT6Bn-19" value="" style="endArrow=classic;html=1;rounded=0;exitX=-0.003;exitY=0.493;exitDx=0;exitDy=0;entryX=0.972;entryY=0.6;entryDx=0;entryDy=0;entryPerimeter=0;exitPerimeter=0;" edge="1" parent="1" source="1T_SigNr_V3jTHDhT6Bn-9" target="1T_SigNr_V3jTHDhT6Bn-5">
          <mxGeometry width="50" height="50" relative="1" as="geometry">
            <mxPoint x="100" y="420" as="sourcePoint" />
            <mxPoint x="150" y="370" as="targetPoint" />
            <Array as="points">
              <mxPoint x="880" y="700" />
              <mxPoint x="880" y="488" />
            </Array>
          </mxGeometry>
        </mxCell>
        <mxCell id="1T_SigNr_V3jTHDhT6Bn-20" value="" style="endArrow=classic;html=1;rounded=0;exitX=0;exitY=0.5;exitDx=0;exitDy=0;" edge="1" parent="1" source="1T_SigNr_V3jTHDhT6Bn-8">
          <mxGeometry width="50" height="50" relative="1" as="geometry">
            <mxPoint x="-90" y="490" as="sourcePoint" />
            <mxPoint x="740" y="427" as="targetPoint" />
          </mxGeometry>
        </mxCell>
        <mxCell id="1T_SigNr_V3jTHDhT6Bn-21" value="" style="endArrow=classic;html=1;rounded=0;exitX=0.003;exitY=0.742;exitDx=0;exitDy=0;entryX=1.007;entryY=0.323;entryDx=0;entryDy=0;entryPerimeter=0;exitPerimeter=0;" edge="1" parent="1" source="1T_SigNr_V3jTHDhT6Bn-7" target="1T_SigNr_V3jTHDhT6Bn-5">
          <mxGeometry width="50" height="50" relative="1" as="geometry">
            <mxPoint x="140" y="280" as="sourcePoint" />
            <mxPoint x="190" y="230" as="targetPoint" />
            <Array as="points">
              <mxPoint x="840" y="200" />
              <mxPoint x="840" y="360" />
            </Array>
          </mxGeometry>
        </mxCell>
        <mxCell id="1T_SigNr_V3jTHDhT6Bn-22" value="" style="endArrow=classic;html=1;rounded=0;exitX=0.5;exitY=0;exitDx=0;exitDy=0;entryX=0.25;entryY=0;entryDx=0;entryDy=0;" edge="1" parent="1" source="1T_SigNr_V3jTHDhT6Bn-7" target="1T_SigNr_V3jTHDhT6Bn-1">
          <mxGeometry width="50" height="50" relative="1" as="geometry">
            <mxPoint x="420" y="470" as="sourcePoint" />
            <mxPoint x="470" y="420" as="targetPoint" />
            <Array as="points">
              <mxPoint x="1012" y="-80" />
              <mxPoint x="90" y="-80" />
            </Array>
          </mxGeometry>
        </mxCell>
      </root>
    </mxGraphModel>
  </diagram>
</mxfile>
